<svg width="336" height="158" viewBox="0 0 336 158" fill="none" xmlns="http://www.w3.org/2000/svg">
<path d="M47.729 155.518H4.60017L77.0566 23.3282L76.8409 34.1105H0.50293V1.97949H114.579V32.1697L47.729 155.518Z" fill="#93CB40"/>
<path d="M186.735 157.459C167.758 157.459 153.167 150.702 142.959 137.188C132.896 123.675 127.864 104.123 127.864 78.5331C127.864 53.3747 132.896 34.1105 142.959 20.7405C153.167 7.22682 167.758 0.469971 186.735 0.469971C205.712 0.469971 220.232 7.22682 230.295 20.7405C240.502 34.1105 245.606 53.3747 245.606 78.5331C245.606 104.123 240.502 123.675 230.295 137.188C220.232 150.702 205.712 157.459 186.735 157.459ZM186.735 127.053C193.636 127.053 198.596 123.315 201.615 115.84C204.634 108.22 206.143 95.7847 206.143 78.5331C206.143 61.7129 204.634 49.5649 201.615 42.0893C198.596 34.6136 193.636 30.8758 186.735 30.8758C179.835 30.8758 174.875 34.6136 171.856 42.0893C168.837 49.5649 167.327 61.7129 167.327 78.5331C167.327 95.7847 168.837 108.22 171.856 115.84C174.875 123.315 179.835 127.053 186.735 127.053Z" fill="#93CB40"/>
<path d="M335.155 71.0739V78.0849H267.519V71.0739H335.155ZM297.9 40.6926H304.774V108.466H297.9V40.6926Z" fill="#93CB40"/>
</svg>
