<?xml version="1.0" encoding="utf-8"?>
<!-- Generator: Adobe Illustrator 23.0.1, SVG Export Plug-In . SVG Version: 6.00 Build 0)  -->
<svg version="1.1" id="Layer_1" xmlns="http://www.w3.org/2000/svg" xmlns:xlink="http://www.w3.org/1999/xlink" x="0px" y="0px"
	 viewBox="0 0 66 66" style="enable-background:new 0 0 66 66;" xml:space="preserve">
<style type="text/css">
	.st0{fill-rule:evenodd;clip-rule:evenodd;fill:#FFFFFF;fill-opacity:0.7;}
	.st1{fill:none;stroke:#FFFFFF;}
	.st2{fill:none;stroke:#FFFFFF;stroke-dasharray:1,2.3;}
	.st3{fill:#93CB40;}
	.st4{fill:#FFFFFF;fill-opacity:0.7;}
	.st5{fill-rule:evenodd;clip-rule:evenodd;fill:#FFFFFF;}
	.st6{fill:#FFFFFF;}
</style>
<path class="st0" d="M65.2,32l-1,0c0-0.2,0-0.3,0-0.5s0-0.3,0-0.5l1,0c0,0.2,0,0.3,0,0.5C65.2,31.7,65.2,31.9,65.2,32z M65,28.8
	l-1,0.1c0-0.3-0.1-0.6-0.1-1l1-0.1C65,28.1,65,28.4,65,28.8z M64.6,25.5l-0.9,0.2c-0.1-0.3-0.1-0.6-0.2-0.9l0.9-0.2
	C64.5,24.9,64.5,25.2,64.6,25.5z M63.8,22.4l-0.9,0.3c-0.1-0.3-0.2-0.6-0.3-0.9l0.9-0.3C63.6,21.8,63.7,22.1,63.8,22.4z M62.7,19.3
	l-0.9,0.4c-0.1-0.3-0.3-0.6-0.4-0.9l0.9-0.4C62.4,18.7,62.6,19,62.7,19.3z M61.2,16.4l-0.8,0.5c-0.2-0.3-0.3-0.6-0.5-0.8l0.8-0.5
	C60.9,15.8,61.1,16.1,61.2,16.4z M59.5,13.6l-0.8,0.6c-0.2-0.3-0.4-0.5-0.6-0.8l0.8-0.6C59.1,13.1,59.3,13.4,59.5,13.6z M57.5,11.1
	l-0.7,0.6c-0.2-0.2-0.4-0.5-0.6-0.7l0.7-0.7C57.1,10.6,57.3,10.8,57.5,11.1z M55.2,8.7l-0.7,0.7c-0.2-0.2-0.5-0.4-0.7-0.6l0.6-0.7
	C54.8,8.3,55,8.5,55.2,8.7z M52.7,6.7l-0.6,0.8c-0.3-0.2-0.5-0.4-0.8-0.6l0.6-0.8C52.2,6.3,52.5,6.5,52.7,6.7z M50,4.8l-0.5,0.8
	c-0.3-0.2-0.5-0.3-0.8-0.5l0.5-0.8C49.5,4.5,49.8,4.7,50,4.8z M47.2,3.3l-0.4,0.9c-0.3-0.1-0.6-0.3-0.9-0.4l0.4-0.9
	C46.6,3,46.9,3.2,47.2,3.3z M44.1,2.1L43.8,3c-0.3-0.1-0.6-0.2-0.9-0.3l0.3-0.9C43.5,1.9,43.8,2,44.1,2.1z M41,1.2l-0.2,0.9
	c-0.3-0.1-0.6-0.1-0.9-0.2L40,1C40.4,1.1,40.7,1.1,41,1.2z M37.8,0.6c-0.3,0-0.7-0.1-1-0.1l-0.1,1c0.3,0,0.6,0.1,1,0.1L37.8,0.6z
	 M34.5,0.4l0,1c-0.2,0-0.3,0-0.5,0s-0.3,0-0.5,0l0-1c0.2,0,0.3,0,0.5,0S34.4,0.4,34.5,0.4z M31.3,0.5l0.1,1c-0.3,0-0.6,0.1-1,0.1
	l-0.1-1C30.6,0.6,31,0.6,31.3,0.5z M28.1,1l0.2,0.9c-0.3,0.1-0.6,0.1-0.9,0.2l-0.2-0.9C27.4,1.1,27.7,1.1,28.1,1z M24.9,1.8l0.3,0.9
	c-0.3,0.1-0.6,0.2-0.9,0.3L24,2.1C24.3,2,24.6,1.9,24.9,1.8z M21.8,2.9l0.4,0.9c-0.3,0.1-0.6,0.3-0.9,0.4l-0.4-0.9
	C21.2,3.2,21.5,3,21.8,2.9z M18.9,4.3l0.5,0.8c-0.3,0.2-0.6,0.3-0.8,0.5l-0.5-0.8C18.4,4.7,18.6,4.5,18.9,4.3z M16.2,6.1l0.6,0.8
	c-0.3,0.2-0.5,0.4-0.8,0.6l-0.6-0.8C15.6,6.5,15.9,6.3,16.2,6.1z M13.6,8.1l0.6,0.7C14,9,13.8,9.2,13.5,9.4l-0.7-0.7
	C13.1,8.5,13.4,8.3,13.6,8.1z M11.3,10.4L12,11c-0.2,0.2-0.4,0.5-0.6,0.7l-0.7-0.6C10.8,10.8,11,10.6,11.3,10.4z M9.2,12.8l0.8,0.6
	c-0.2,0.3-0.4,0.5-0.6,0.8l-0.8-0.6C8.8,13.4,9,13.1,9.2,12.8z M7.4,15.5L8.2,16c-0.2,0.3-0.3,0.5-0.5,0.8l-0.8-0.5
	C7,16.1,7.2,15.8,7.4,15.5z M5.8,18.4l0.9,0.4c-0.1,0.3-0.3,0.6-0.4,0.9l-0.9-0.4C5.6,19,5.7,18.7,5.8,18.4z M4.6,21.4l0.9,0.3
	c-0.1,0.3-0.2,0.6-0.3,0.9l-0.9-0.3C4.4,22.1,4.5,21.8,4.6,21.4z M3.7,24.6l0.9,0.2c-0.1,0.3-0.1,0.6-0.2,0.9l-0.9-0.2
	C3.6,25.2,3.6,24.9,3.7,24.6z M36.8,62.5l-0.1-1c0.3,0,0.6-0.1,1-0.1l0.1,1C37.5,62.5,37.1,62.5,36.8,62.5z M40,62.1l-0.2-0.9
	c0.3-0.1,0.6-0.1,0.9-0.2l0.2,0.9C40.7,61.9,40.4,62,40,62.1z M43.2,61.3l-0.3-0.9c0.3-0.1,0.6-0.2,0.9-0.3l0.3,0.9
	C43.8,61.1,43.5,61.2,43.2,61.3z M46.3,60.2l-0.4-0.9c0.3-0.1,0.6-0.3,0.9-0.4l0.4,0.9C46.9,59.9,46.6,60,46.3,60.2z M49.2,58.7
	l-0.5-0.8c0.3-0.2,0.6-0.3,0.8-0.5l0.5,0.8C49.8,58.4,49.5,58.6,49.2,58.7z M51.9,57c0.3-0.2,0.5-0.4,0.8-0.6l-0.6-0.8
	c-0.3,0.2-0.5,0.4-0.8,0.6L51.9,57z M54.5,55l-0.6-0.7c0.2-0.2,0.5-0.4,0.7-0.6l0.7,0.7C55,54.5,54.8,54.8,54.5,55z M56.8,52.7
	c0.2-0.2,0.4-0.5,0.7-0.7l-0.7-0.6c-0.2,0.2-0.4,0.5-0.6,0.7L56.8,52.7z M58.9,50.2l-0.8-0.6c0.2-0.3,0.4-0.5,0.6-0.8l0.8,0.6
	C59.3,49.7,59.1,50,58.9,50.2z M60.8,47.5L59.9,47c0.2-0.3,0.3-0.5,0.5-0.8l0.8,0.5C61.1,46.9,60.9,47.2,60.8,47.5z M62.3,44.6
	l-0.9-0.4c0.1-0.3,0.3-0.6,0.4-0.9l0.9,0.4C62.6,44,62.4,44.3,62.3,44.6z M63.5,41.6l-0.9-0.3c0.1-0.3,0.2-0.6,0.3-0.9l0.9,0.3
	C63.7,41,63.6,41.3,63.5,41.6z M64.4,38.5l-0.9-0.2c0.1-0.3,0.1-0.6,0.2-0.9l0.9,0.2C64.5,37.8,64.5,38.2,64.4,38.5z M64.9,35.3
	l-1-0.1c0-0.3,0.1-0.6,0.1-1l1,0.1C65,34.6,65,35,64.9,35.3z"/>
<line class="st1" x1="2.9" y1="62.1" x2="34.5" y2="62.1"/>
<line class="st2" x1="33.8" y1="62.1" x2="60.6" y2="62.1"/>
<path class="st3" d="M64.5,62.1l-5,2.9v-5.8L64.5,62.1z"/>
<path class="st4" d="M3.8,32.2l-2.9-5h5.8L3.8,32.2z"/>
<path class="st5" d="M55.5,40.2c0,11.9-9.6,21.5-21.5,21.5c0,0-0.1,0-0.1,0v1c0,0,0.1,0,0.1,0c12.4,0,22.4-10.1,22.4-22.4
	c0-12.4-10.1-22.4-22.4-22.4c-12.4,0-22.4,10.1-22.4,22.4c0,0,0,0,0,0.1h1c0,0,0,0,0-0.1c0-11.9,9.6-21.5,21.5-21.5
	C45.9,18.7,55.5,28.3,55.5,40.2z"/>
<path class="st6" d="M40.2,43c-0.6-0.6-1.1-1.1-1.1-3.8c0-2.7-2-5-4.6-5.4c0.1-0.2,0.2-0.4,0.2-0.6c0-0.6-0.5-1.1-1.1-1.1
	c-0.6,0-1.1,0.5-1.1,1.1c0,0.2,0.1,0.4,0.2,0.6c-2.6,0.4-4.6,2.7-4.6,5.4c0,2.7-0.6,3.3-1.1,3.8c-1.6,1.6-0.4,3.9,1.5,3.9h3.1
	c0,1.2,0.9,2.1,2.1,2.1c1.2,0,2.1-0.9,2.1-2.1h3.1C40.6,46.9,41.8,44.6,40.2,43z M33.5,47.6c-0.4,0-0.8-0.4-0.8-0.8h1.6
	C34.3,47.3,34,47.6,33.5,47.6z M38.7,45.3H28.4c-0.6,0-0.8-0.7-0.4-1.1c0.9-0.9,1.7-1.8,1.7-5c0-2.2,1.8-3.9,3.9-3.9
	s3.9,1.8,3.9,3.9c0,3.2,0.8,4.1,1.7,5C39.5,44.6,39.3,45.3,38.7,45.3z"/>
<path class="st3" d="M12.1,44.4l-2.9-5H15L12.1,44.4z"/>
</svg>
