<svg width="68" height="69" viewBox="0 0 68 69" fill="none" xmlns="http://www.w3.org/2000/svg">
<path fill-rule="evenodd" clip-rule="evenodd" d="M16.198 31.0992C16.2202 31.1346 16.2429 31.1694 16.266 31.2035C16.8538 32.0484 17.7078 32.4708 18.8282 32.4708C19.9486 32.4708 20.7981 32.0438 21.3767 31.1897C21.9644 30.3357 22.2583 29.0867 22.2583 27.4428C22.2583 25.8082 21.969 24.5684 21.3904 23.7235C20.9558 23.0819 20.3658 22.6813 19.6202 22.5217C19.3942 22.8104 19.1776 23.1067 18.9709 23.4104C19.6791 23.4483 20.2056 23.773 20.5501 24.3847C20.9267 25.0276 21.1149 26.0469 21.1149 27.4428C21.1149 28.8387 20.9267 29.8673 20.5501 30.5285C20.1828 31.1897 19.6088 31.5203 18.8282 31.5203C18.0476 31.5203 17.4691 31.1897 17.0925 30.5285C16.8473 30.0871 16.6839 29.482 16.6024 28.7133C16.4113 29.4884 16.275 30.2852 16.198 31.0992ZM19.9135 43.1841C19.4446 42.6189 19.0127 42.0218 18.6216 41.3965V34.7805L16.6104 36.0623V34.974L19.1175 33.3761H19.765V42.2336H21.9277V43.1841H19.9135ZM28.0248 31.4101H30.1875V32.3606H24.7187V31.4101H26.8814V23.957L24.8702 25.2388V24.1505L27.3773 22.5526H28.0248V31.4101ZM35.3479 32.4708C34.2275 32.4708 33.3734 32.0484 32.7857 31.2035C32.2071 30.3494 31.9178 29.1005 31.9178 27.4566C31.9178 25.8128 32.2071 24.5684 32.7857 23.7235C33.3642 22.8694 34.2183 22.4424 35.3479 22.4424C36.4775 22.4424 37.3315 22.8694 37.9101 23.7235C38.4887 24.5684 38.7779 25.8082 38.7779 27.4428C38.7779 29.0867 38.4841 30.3357 37.8963 31.1897C37.3178 32.0438 36.4683 32.4708 35.3479 32.4708ZM35.3479 31.5203C36.1285 31.5203 36.7025 31.1897 37.0698 30.5285C37.4463 29.8673 37.6346 28.8387 37.6346 27.4428C37.6346 26.0469 37.4463 25.0276 37.0698 24.3847C36.7025 23.7327 36.1285 23.4067 35.3479 23.4067C34.5673 23.4067 33.9887 23.7327 33.6122 24.3847C33.2449 25.0367 33.0612 26.0561 33.0612 27.4428C33.0612 28.8387 33.2449 29.8673 33.6122 30.5285C33.9887 31.1897 34.5673 31.5203 35.3479 31.5203ZM44.5444 31.4101H46.7072V32.3606H41.2384V31.4101H43.4011V23.957L41.3899 25.2388V24.1505L43.897 22.5526H44.5444V31.4101ZM24.5258 42.027C25.1136 42.8719 25.9677 43.2943 27.0881 43.2943C28.2085 43.2943 29.0579 42.8673 29.6365 42.0132C30.2242 41.1591 30.5181 39.9102 30.5181 38.2663C30.5181 36.6316 30.2288 35.3919 29.6503 34.547C29.0717 33.6929 28.2176 33.2659 27.0881 33.2659C25.9585 33.2659 25.1044 33.6929 24.5258 34.547C23.9473 35.3919 23.658 36.6362 23.658 38.2801C23.658 39.924 23.9473 41.1729 24.5258 42.027ZM28.81 41.352C28.4426 42.0132 27.8687 42.3438 27.0881 42.3438C26.3075 42.3438 25.7289 42.0132 25.3524 41.352C24.985 40.6908 24.8013 39.6622 24.8013 38.2663C24.8013 36.8796 24.985 35.8602 25.3524 35.2082C25.7289 34.5562 26.3075 34.2301 27.0881 34.2301C27.8687 34.2301 28.4426 34.5562 28.81 35.2082C29.1865 35.851 29.3748 36.8704 29.3748 38.2663C29.3748 39.6622 29.1865 40.6908 28.81 41.352ZM38.4473 42.2336H36.2846V33.3761H35.6372L33.1301 34.974V36.0623L35.1413 34.7805V42.2336H32.9785V43.1841H38.4473V42.2336ZM41.0455 42.027C41.6332 42.8719 42.4873 43.2943 43.6077 43.2943C44.7281 43.2943 45.5776 42.8673 46.1562 42.0132C46.7439 41.1591 47.0378 39.9102 47.0378 38.2663C47.0378 36.6316 46.7485 35.3919 46.1699 34.547C45.5914 33.6929 44.7373 33.2659 43.6077 33.2659C42.4781 33.2659 41.6241 33.6929 41.0455 34.547C40.4669 35.3919 40.1777 36.6362 40.1777 38.2801C40.1777 39.924 40.4669 41.1729 41.0455 42.027ZM45.3296 41.352C44.9623 42.0132 44.3883 42.3438 43.6077 42.3438C42.8271 42.3438 42.2485 42.0132 41.872 41.352C41.5047 40.6908 41.321 39.6622 41.321 38.2663C41.321 36.8796 41.5047 35.8602 41.872 35.2082C42.2485 34.5562 42.8271 34.2301 43.6077 34.2301C44.3883 34.2301 44.9623 34.5562 45.3296 35.2082C45.7062 35.851 45.8944 36.8704 45.8944 38.2663C45.8944 39.6622 45.7062 40.6908 45.3296 41.352Z" fill="#C4C4C4"/>
<path fill-rule="evenodd" clip-rule="evenodd" d="M65.1507 33.1774L64.1509 33.1618C64.1535 32.9947 64.1548 32.8274 64.1548 32.6597C64.1548 32.492 64.1535 32.3246 64.1509 32.1575L65.1507 32.1419C65.1534 32.3142 65.1548 32.4868 65.1548 32.6597C65.1548 32.8326 65.1534 33.0052 65.1507 33.1774ZM65.0284 29.7736L64.0322 29.8613C64.0029 29.5282 63.9684 29.1967 63.9289 28.8667L64.9217 28.7476C64.9626 29.088 64.9982 29.43 65.0284 29.7736ZM64.5535 26.4052L63.572 26.5966C63.5081 26.2686 63.4391 25.9425 63.365 25.6183L64.34 25.3957C64.4163 25.7303 64.4876 26.0668 64.5535 26.4052ZM63.7277 23.1053L62.7718 23.3989C62.6737 23.0796 62.5707 22.7625 62.4629 22.4477L63.4089 22.1237C63.5202 22.4486 63.6265 22.7758 63.7277 23.1053ZM62.5587 19.9103L61.639 20.3029C61.508 19.996 61.3722 19.6915 61.2318 19.3897L62.1385 18.9679C62.2834 19.2794 62.4235 19.5935 62.5587 19.9103ZM61.0602 16.8556L60.1867 17.3426C60.0244 17.0514 59.8575 16.763 59.6862 16.4775L60.5437 15.963C60.7204 16.2575 60.8926 16.5551 61.0602 16.8556ZM59.25 13.9749L58.4323 14.5505C58.2404 14.2779 58.0443 14.0084 57.8441 13.7423L58.6432 13.1411C58.8498 13.4157 59.0521 13.6937 59.25 13.9749ZM57.1494 11.2987L56.396 11.9562C56.1769 11.7051 55.9538 11.4575 55.7268 11.2135L56.4591 10.5325C56.6932 10.7842 56.9233 11.0396 57.1494 11.2987ZM54.782 8.85535L54.101 9.58764C53.857 9.3607 53.6093 9.1376 53.3582 8.91841L54.0158 8.16501C54.2748 8.39111 54.5303 8.62126 54.782 8.85535ZM52.1733 6.67122L51.5722 7.47036C51.306 7.27014 51.0366 7.07405 50.764 6.88218L51.3396 6.06443C51.6208 6.26238 51.8987 6.46467 52.1733 6.67122ZM49.3515 4.77076L48.837 5.62826C48.5515 5.45698 48.2631 5.2901 47.9718 5.12771L48.4588 4.2543C48.7593 4.42186 49.0569 4.59404 49.3515 4.77076ZM46.3466 3.17592L45.9248 4.08262C45.6229 3.94221 45.3185 3.80644 45.0116 3.67541L45.4042 2.75571C45.7209 2.89093 46.0351 3.03103 46.3466 3.17592ZM43.1908 1.90552L42.8668 2.85157C42.5519 2.74373 42.2348 2.64074 41.9155 2.54269L42.2091 1.58675C42.5386 1.68794 42.8659 1.79423 43.1908 1.90552ZM39.9188 0.974507L39.6962 1.94942C39.372 1.8754 39.0458 1.80638 38.7179 1.74245L38.9092 0.76093C39.2476 0.8269 39.5842 0.898122 39.9188 0.974507ZM36.5669 0.39271C36.2265 0.35187 35.8844 0.316293 35.5409 0.286061L35.4532 1.28221C35.7863 1.31152 36.1178 1.34601 36.4477 1.38559L36.5669 0.39271ZM33.1725 0.163708L33.1569 1.16359C32.9899 1.16098 32.8225 1.15967 32.6548 1.15967C32.4871 1.15967 32.3197 1.16098 32.1527 1.16359L32.137 0.163708C32.3093 0.161018 32.4819 0.159668 32.6548 0.159668C32.8277 0.159668 33.0003 0.161018 33.1725 0.163708ZM29.7687 0.286061L29.8564 1.28221C29.5233 1.31152 29.1918 1.346 28.8618 1.38559L28.7427 0.392709C29.0831 0.351869 29.4252 0.316292 29.7687 0.286061ZM26.4003 0.760929L26.5917 1.74245C26.2637 1.80638 25.9376 1.8754 25.6134 1.94942L25.3908 0.974506C25.7254 0.898121 26.0619 0.826899 26.4003 0.760929ZM23.1005 1.58675L23.394 2.54269C23.0748 2.64074 22.7577 2.74373 22.4428 2.85157L22.1188 1.90552C22.4437 1.79423 22.771 1.68794 23.1005 1.58675ZM19.9054 2.75571L20.298 3.67541C19.9911 3.80644 19.6866 3.94221 19.3848 4.08262L18.963 3.17592C19.2745 3.03103 19.5887 2.89093 19.9054 2.75571ZM16.8507 4.2543L17.3377 5.12771C17.0465 5.2901 16.7581 5.45698 16.4726 5.62826L15.9581 4.77076C16.2527 4.59404 16.5502 4.42185 16.8507 4.2543ZM13.97 6.06443L14.5456 6.88218C14.273 7.07405 14.0036 7.27014 13.7374 7.47036L13.1363 6.67122C13.4108 6.46467 13.6888 6.26238 13.97 6.06443ZM11.2938 8.16501L11.9514 8.91841C11.7002 9.13759 11.4526 9.3607 11.2086 9.58764L10.5276 8.85535C10.7793 8.62126 11.0347 8.39111 11.2938 8.16501ZM8.85047 10.5325L9.58276 11.2135C9.35582 11.4575 9.13271 11.7051 8.91353 11.9562L8.16013 11.2987C8.38623 11.0396 8.61638 10.7842 8.85047 10.5325ZM6.66634 13.1411L7.46548 13.7423C7.26526 14.0084 7.06917 14.2779 6.8773 14.5505L6.05955 13.9749C6.2575 13.6937 6.45979 13.4157 6.66634 13.1411ZM4.76588 15.963L5.62338 16.4775C5.4521 16.7629 5.28522 17.0514 5.12283 17.3426L4.24942 16.8556C4.41697 16.5551 4.58916 16.2575 4.76588 15.963ZM3.17104 18.9679L4.07774 19.3897C3.93733 19.6915 3.80156 19.996 3.67053 20.3029L2.75083 19.9103C2.88604 19.5935 3.02615 19.2794 3.17104 18.9679ZM1.90064 22.1237L2.84669 22.4477C2.73885 22.7625 2.63586 23.0796 2.53781 23.3989L1.58187 23.1053C1.68306 22.7758 1.78935 22.4486 1.90064 22.1237ZM0.969625 25.3957L1.94454 25.6183C1.87052 25.9425 1.8015 26.2686 1.73757 26.5966L0.756047 26.4052C0.822018 26.0668 0.89324 25.7303 0.969625 25.3957ZM0.387827 28.7476L1.38071 28.8667C1.34112 29.1967 1.30664 29.5282 1.27733 29.8612L0.281178 29.7736C0.31141 29.43 0.346987 29.088 0.387827 28.7476ZM0.158826 32.1419C0.156135 32.3142 0.154785 32.4868 0.154785 32.6597C0.154785 32.8326 0.156135 33.0051 0.158826 33.1774L1.1587 33.1618C1.15609 32.9947 1.15479 32.8274 1.15479 32.6597C1.15479 32.492 1.15609 32.3246 1.1587 32.1575L0.158826 32.1419ZM0.281178 35.5457L1.27733 35.4581C1.30664 35.7911 1.34112 36.1227 1.38071 36.4526L0.387826 36.5717C0.346987 36.2313 0.311409 35.8893 0.281178 35.5457ZM0.756046 38.9141L1.73757 38.7228C1.8015 39.0507 1.87052 39.3768 1.94454 39.7011L0.969624 39.9236C0.893239 39.5891 0.822017 39.2525 0.756046 38.9141ZM1.58187 42.214L2.5378 41.9204C2.63586 42.2397 2.73885 42.5568 2.84669 42.8717L1.90064 43.1957C1.78935 42.8707 1.68306 42.5435 1.58187 42.214ZM2.75083 45.409L3.67053 45.0164C3.80156 45.3234 3.93733 45.6278 4.07774 45.9297L3.17104 46.3514C3.02614 46.04 2.88604 45.7258 2.75083 45.409ZM4.24942 48.4637L5.12283 47.9767C5.28521 48.268 5.4521 48.5564 5.62338 48.8419L4.76587 49.3563C4.58915 49.0618 4.41697 48.7642 4.24942 48.4637ZM6.05955 51.3444C6.25749 51.6257 6.45979 51.9036 6.66633 52.1782L7.46547 51.5771C7.26526 51.3109 7.06917 51.0415 6.8773 50.7689L6.05955 51.3444ZM8.16012 54.0207L8.91352 53.3631C9.13271 53.6142 9.35582 53.8619 9.58275 54.1059L8.85047 54.7869C8.61638 54.5352 8.38623 54.2797 8.16012 54.0207ZM10.5276 56.464C10.7793 56.6981 11.0347 56.9282 11.2938 57.1543L11.9514 56.4009C11.7002 56.1817 11.4526 55.9586 11.2086 55.7317L10.5276 56.464ZM13.1363 58.6481L13.7374 57.849C14.0036 58.0492 14.273 58.2453 14.5456 58.4372L13.97 59.2549C13.6888 59.057 13.4108 58.8547 13.1363 58.6481ZM15.9581 60.5486L16.4726 59.6911C16.7581 59.8624 17.0465 60.0292 17.3377 60.1916L16.8507 61.065C16.5502 60.8975 16.2527 60.7253 15.9581 60.5486ZM18.963 62.1434L19.3848 61.2367C19.6866 61.3771 19.9911 61.5129 20.298 61.6439L19.9054 62.5636C19.5887 62.4284 19.2745 62.2883 18.963 62.1434ZM22.1188 63.4138L22.4428 62.4678C22.7577 62.5756 23.0748 62.6786 23.394 62.7766L23.1004 63.7326C22.771 63.6314 22.4437 63.5251 22.1188 63.4138ZM25.3908 64.3448L25.6134 63.3699C25.9376 63.4439 26.2637 63.513 26.5917 63.5769L26.4003 64.5584C26.0619 64.4924 25.7254 64.4212 25.3908 64.3448ZM28.7427 64.9266L28.8618 63.9337C29.1918 63.9733 29.5233 64.0078 29.8564 64.0371L29.7687 65.0333C29.4251 65.003 29.0831 64.9675 28.7427 64.9266ZM32.137 65.1556L32.1527 64.1558C32.3197 64.1584 32.4871 64.1597 32.6548 64.1597C32.8225 64.1597 32.9899 64.1584 33.1569 64.1558L33.1725 65.1556C33.0003 65.1583 32.8277 65.1597 32.6548 65.1597C32.4819 65.1597 32.3093 65.1583 32.137 65.1556ZM64.9217 36.5717L63.9289 36.4526C63.9684 36.1227 64.0029 35.7911 64.0322 35.4581L65.0284 35.5457C64.9982 35.8893 64.9626 36.2313 64.9217 36.5717Z" fill="white"/>
<circle cx="32.6549" cy="32.6598" r="16.8959" stroke="white"/>
<rect x="47.1543" y="49.8374" width="4.01384" height="10.3945" rx="1" transform="rotate(-45 47.1543 49.8374)" fill="white"/>
<rect x="44.1897" y="44.7742" width="1.19514" height="7.46921" transform="rotate(-45 44.1897 44.7742)" fill="white"/>
<path d="M65.677 35.3918C64.4812 34.7014 62.9523 35.1111 62.2619 36.3069C61.5716 37.5026 61.9812 39.0316 63.177 39.7219C64.3727 40.4123 65.9017 40.0026 66.592 38.8069C67.2824 37.6111 66.8727 36.0822 65.677 35.3918Z" fill="#7ACC00"/>
<path d="M35.7839 62.591C34.5882 61.9007 33.0592 62.3103 32.3688 63.5061C31.6785 64.7018 32.0882 66.2308 33.2839 66.9211C34.4796 67.6115 36.0086 67.2018 36.699 66.0061C37.3893 64.8103 36.9796 63.2814 35.7839 62.591Z" fill="#7ACC00"/>
</svg>
