<svg width="63" height="66" viewBox="0 0 63 66" fill="none" xmlns="http://www.w3.org/2000/svg">
<path d="M44.5689 10.0469H12.5371C12.5371 10.0469 7.18726 12.5546 7.18726 21.3818C7.18726 30.2089 12.5371 32.6163 12.5371 32.6163H47.5782C47.5782 32.6163 52.928 35.9599 52.928 43.7171C52.928 51.4743 47.5782 55.052 47.5782 55.052H16.1482" stroke="white" stroke-dasharray="1 2.3"/>
<path d="M2.84 61.9907H0.5L6.296 49.1747H8.186L13.982 61.9907H11.678L6.962 50.9747H7.592L2.84 61.9907ZM3.056 58.9847L3.938 57.1847H10.472L11.318 58.9847H3.056Z" fill="#7ACC00"/>
<path d="M49.4993 16.25V3.434H55.1333C56.4413 3.434 57.4733 3.728 58.2293 4.316C58.9973 4.904 59.3813 5.726 59.3813 6.782C59.3813 7.502 59.1833 8.12 58.7873 8.636C58.3913 9.152 57.8333 9.512 57.1133 9.716V9.572C57.9413 9.752 58.5773 10.118 59.0213 10.67C59.4773 11.222 59.7053 11.918 59.7053 12.758C59.7053 13.85 59.3153 14.708 58.5353 15.332C57.7673 15.944 56.6873 16.25 55.2953 16.25H49.4993ZM51.7673 14.432H55.0613C55.9133 14.432 56.5313 14.288 56.9153 14C57.3113 13.7 57.5093 13.22 57.5093 12.56C57.5093 11.912 57.3113 11.432 56.9153 11.12C56.5193 10.808 55.9013 10.652 55.0613 10.652H51.7673V14.432ZM51.7673 8.834H54.7373C55.5653 8.834 56.1773 8.684 56.5733 8.384C56.9693 8.084 57.1673 7.634 57.1673 7.034C57.1673 6.422 56.9693 5.972 56.5733 5.684C56.1773 5.396 55.5653 5.252 54.7373 5.252H51.7673V8.834Z" fill="#7ACC00"/>
<rect x="32.6975" y="37.998" width="11.8061" height="11.8061" stroke="white" stroke-opacity="0.5"/>
<rect x="34.4043" y="39.7048" width="8.39249" height="8.39249" fill="white" fill-opacity="0.7"/>
<rect x="16.6147" y="15.4619" width="11.8061" height="11.8061" stroke="white" stroke-opacity="0.5"/>
<rect x="18.3215" y="17.1687" width="8.39249" height="8.39249" fill="white" fill-opacity="0.7"/>
</svg>
