<svg width="50" height="56" viewBox="0 0 50 56" fill="none" xmlns="http://www.w3.org/2000/svg">
<path d="M22.1897 33.6926C26.3897 33.6926 29.7897 30.2926 29.7897 26.0926C29.7897 21.8926 26.3897 18.4926 22.1897 18.4926C17.9897 18.4926 14.5897 21.8926 14.5897 26.0926C14.5897 30.2926 17.9897 33.6926 22.1897 33.6926Z" stroke="#93CB40" stroke-miterlimit="10" stroke-linecap="round" stroke-linejoin="round"/>
<path d="M20.6163 54.2887C14.6053 51.0012 3.08342 44.1043 1.63196 36.2918L1.62805 9.2918C4.22805 8.8918 17.6757 6.68794 20.4757 1.28794C20.5757 1.08794 20.6757 1.08794 20.7757 1.28794C23.6757 6.68794 37.1249 8.87935 39.6249 9.27935L39.6241 26.3036H40.6085L40.6202 8.70591C40.6202 8.50591 40.4202 8.30591 40.3202 8.30591C40.1202 8.30591 24.6281 6.16472 21.6281 0.764724C21.171 0.116808 20.1124 0.0962788 19.6124 0.796279C16.7124 6.19628 1.01487 8.29185 0.914868 8.29185C0.814868 8.29185 0.614868 8.39185 0.614868 8.69185V36.2918C2.61633 46.2918 16.3764 52.9137 20.3124 55.1887C20.4171 55.2301 20.5124 55.2887 20.6124 55.2887C20.6632 55.2809 20.7726 55.2692 20.9124 55.1887C21.4124 54.8887 27.7149 51.1918 33.0149 46.8918L32.4149 46.3918C27.4149 50.1918 21.8163 53.4887 20.6163 54.2887Z" fill="#212529" stroke="#212529" stroke-width="0.2"/>
<circle cx="40.4288" cy="37.9801" r="9.0625" stroke="#212529"/>
<circle cx="22.1788" cy="26.0426" r="7.5" stroke="#93CB40"/>
<path d="M39.2726 41.5739L38.9331 41.941C39.1261 42.1194 39.4243 42.118 39.6156 41.9377L39.2726 41.5739ZM34.584 37.9196L38.9331 41.941L39.612 41.2067L35.2629 37.1854L34.584 37.9196ZM39.6156 41.9377L46.2352 35.6976L45.5492 34.9699L38.9296 41.21L39.6156 41.9377Z" fill="#93CB40"/>
<path fill-rule="evenodd" clip-rule="evenodd" d="M7.52144 42.1676C10.1691 37.4848 15.1941 34.3239 20.9574 34.3239C24.167 34.3239 27.1477 35.3042 29.6163 36.9819V35.7891C27.1024 34.2264 24.1353 33.3239 20.9574 33.3239C14.6209 33.3239 9.12252 36.9122 6.38342 42.1676H7.52144Z" fill="#93CB40"/>
</svg>
