<svg width="68" height="68" viewBox="0 0 68 68" fill="none" xmlns="http://www.w3.org/2000/svg">
<path d="M45.9461 16.9712C43.6516 16.9712 41.7743 18.8485 41.7743 21.143C41.7743 21.8731 41.9829 22.4988 42.2958 23.1246L37.7068 26.462C36.9768 25.6277 35.8295 25.0019 34.578 25.0019C32.9093 25.0019 31.4491 26.0449 30.8234 27.4007L25.9215 25.732C25.9215 25.5234 26.0258 25.3148 26.0258 25.1062C26.0258 22.8117 24.1485 20.9344 21.854 20.9344C19.5595 20.9344 17.6822 22.8117 17.6822 25.1062C17.6822 25.8363 17.8908 26.462 18.2036 26.9835L12.8846 30.7381C12.1545 29.9038 11.0073 29.3823 9.86004 29.3823C7.56554 29.3823 5.68823 31.2596 5.68823 33.5541C5.68823 35.8486 7.56554 37.7259 9.86004 37.7259C12.1545 37.7259 14.0318 35.8486 14.0318 33.5541C14.0318 32.8241 13.8233 32.1983 13.5104 31.5725L18.7251 27.9222C19.4552 28.7565 20.6024 29.278 21.854 29.278C23.5227 29.278 24.9828 28.2351 25.6086 26.7749L30.5105 28.4437C30.5105 28.6522 30.4062 28.9651 30.4062 29.1737C30.4062 31.4682 32.2835 33.3455 34.578 33.3455C36.8725 33.3455 38.7498 31.4682 38.7498 29.1737C38.7498 28.548 38.5412 27.8179 38.3326 27.2964L42.9216 23.959C43.6517 24.7933 44.7989 25.3148 45.9461 25.3148C48.2406 25.3148 50.1179 23.4375 50.1179 21.143C50.1179 18.8485 48.2406 16.9712 45.9461 16.9712ZM9.86004 36.5787C8.19131 36.5787 6.73118 35.2228 6.73118 33.4498C6.73118 31.6768 8.08702 30.321 9.86004 30.321C10.6944 30.321 11.5288 30.6339 12.0502 31.2596C12.2588 31.4682 12.4674 31.7811 12.676 32.094C12.8846 32.5112 12.9889 32.9283 12.9889 33.4498C12.9889 35.2228 11.5288 36.5787 9.86004 36.5787ZM24.8785 25.4191C24.8785 25.732 24.7742 26.1492 24.5656 26.462C24.0442 27.505 23.0012 28.2351 21.7497 28.2351C20.9153 28.2351 20.081 27.8179 19.5595 27.2964C19.3509 27.0878 19.1423 26.7749 18.9337 26.462C18.7251 26.0449 18.6208 25.6277 18.6208 25.2105C18.6208 23.5418 19.9767 22.0817 21.7497 22.0817C23.5227 22.0817 24.8785 23.4375 24.8785 25.2105C24.9828 25.2105 24.9828 25.3148 24.8785 25.4191ZM34.578 32.3026C32.9093 32.3026 31.4491 30.9467 31.4491 29.1737C31.4491 29.0694 31.4491 28.8608 31.4491 28.7565C31.4491 28.4437 31.5534 28.0265 31.762 27.7136C32.2835 26.6706 33.3264 26.0449 34.578 26.0449C35.5166 26.0449 36.2467 26.462 36.8725 26.9835C37.0811 27.1921 37.2897 27.505 37.4982 27.8179C37.7068 28.2351 37.8111 28.6522 37.8111 29.0694C37.7068 30.8424 36.351 32.3026 34.578 32.3026ZM45.9461 24.2719C45.1118 24.2719 44.2774 23.959 43.7559 23.3332C43.5474 23.1246 43.3388 22.8117 43.1302 22.4988C42.9216 22.0817 42.8173 21.6645 42.8173 21.143C42.8173 19.4743 44.1731 18.0141 45.9461 18.0141C47.7192 18.0141 49.075 19.37 49.075 21.143C49.075 22.916 47.6149 24.2719 45.9461 24.2719Z" fill="#93CB40"/>
<circle cx="27.8391" cy="28.1711" r="27.1955" stroke="#212529"/>
<rect x="50.9232" y="55.5193" width="6.39033" height="16.5488" rx="1" transform="rotate(-45 50.9232 55.5193)" fill="#212529"/>
<rect x="46.2034" y="47.4583" width="1.90275" height="11.8915" transform="rotate(-45 46.2034 47.4583)" fill="#212529"/>
</svg>
