<svg width="68" height="66" viewBox="0 0 68 66" fill="none" xmlns="http://www.w3.org/2000/svg">
<g clip-path="url(#clip0)">
<path d="M29.8007 58.7184C21.5947 58.7184 14.1445 55.2632 8.96179 49.7566C12.7409 41.9825 20.6229 36.6918 29.8007 36.6918C32.284 36.6918 34.6595 37.1237 36.9269 37.8795L37.3588 36.9077C36.1711 36.4758 34.9834 36.1519 33.7957 36.044C38.1146 34.4244 41.1379 30.3214 41.1379 25.4626C41.1379 19.2001 36.0631 14.1253 29.8007 14.1253C23.5382 14.1253 18.4635 19.2001 18.4635 25.4626C18.4635 30.3214 21.4867 34.4244 25.8056 36.044C18.1395 37.3396 11.5532 42.3064 8.20598 49.0008C3.77907 43.818 1.07973 37.2317 1.07973 29.9974C1.07973 14.1253 13.9286 1.27651 29.8007 1.27651C45.6728 1.27651 58.5216 14.1253 58.5216 29.9974C58.5216 30.2134 58.5216 30.4293 58.5216 30.6453L59.6013 31.1852C59.6013 30.7533 59.6013 30.4293 59.6013 29.9974C59.6013 13.5855 46.2126 0.196777 29.8007 0.196777C13.3887 0.196777 0 13.5855 0 29.9974C0 37.6636 2.91528 44.5739 7.66611 49.8646C7.88206 50.1885 8.20598 50.4044 8.42193 50.7283C13.8206 56.343 21.3787 59.7981 29.8007 59.7981C32.284 59.7981 34.7674 59.4742 37.0349 58.8263C36.9269 58.5024 36.711 58.1785 36.603 57.8546C34.4435 58.3945 32.1761 58.7184 29.8007 58.7184ZM19.5432 25.2466C19.5432 19.632 24.186 14.9891 29.8007 14.9891C35.4153 14.9891 40.0581 19.632 40.0581 25.2466C40.0581 30.8612 35.4153 35.5041 29.8007 35.5041C24.186 35.5041 19.5432 30.9692 19.5432 25.2466ZM67.4834 47.4891C67.3754 46.4094 66.6196 45.6536 65.5399 45.5456L63.1644 45.3297C62.8405 45.3297 62.5166 45.1137 62.3007 44.7898C61.7608 43.6021 61.005 42.4144 60.1412 41.4426C59.9252 41.2267 59.8173 40.7948 59.9252 40.4709L60.6811 38.2034C61.005 37.2317 60.5731 36.1519 59.6013 35.6121L58.9535 35.2881L57.9817 34.7483L57.3339 34.4244C56.3621 33.9925 55.2824 34.3164 54.6345 35.1802L53.3389 37.1237C53.1229 37.4476 52.799 37.5556 52.4751 37.5556C51.1794 37.4476 49.7757 37.5556 48.4801 37.7715C48.1561 37.8795 47.7242 37.7715 47.5083 37.4476L46.1046 35.828C45.4568 35.0722 44.2691 34.8562 43.4053 35.5041L41.2458 36.9077C40.8139 37.1237 40.598 37.5556 40.49 37.9875C40.49 37.9875 40.2741 38.6353 40.3821 39.1752C40.3821 39.2832 40.49 39.3911 40.49 39.6071L41.5698 41.7665C41.7857 42.0905 41.6777 42.5224 41.4618 42.7383C41.0299 43.2782 40.706 43.818 40.3821 44.4659C40.0581 45.0057 39.8422 45.6536 39.6262 46.3014C39.5183 46.6254 39.1943 46.9493 38.8704 46.9493L36.495 47.3812C35.5233 47.5971 34.7674 48.5689 34.7674 49.5406L34.8754 52.024C34.9834 53.1038 35.7392 53.8596 36.8189 53.9675L39.1943 54.1835C39.5183 54.1835 39.8422 54.3994 40.0581 54.7234C40.2741 55.2632 40.598 55.8031 40.9219 56.235C41.1379 56.5589 41.3538 56.8828 41.5698 57.2067C41.7857 57.5307 42.0017 57.7466 42.2176 58.0705C42.4335 58.2865 42.5415 58.7184 42.4335 59.0423L41.6777 61.3097C41.3538 62.2815 41.7857 63.3612 42.7575 63.9011L45.0249 64.9808C45.3488 65.0888 45.6727 65.1968 45.9967 65.1968C46.6445 65.1968 47.2924 64.8729 47.7242 64.225L49.0199 62.2815C49.2359 61.9576 49.5598 61.8496 49.8837 61.8496C50.8555 61.9576 51.7193 61.9576 52.691 61.8496C53.0149 61.8496 53.4468 61.7416 53.7708 61.6337C54.0947 61.5257 54.5266 61.6337 54.7425 61.9576L56.2541 63.6851C56.902 64.441 58.0897 64.6569 58.9535 64.0091L61.1129 62.6054C61.9767 62.0655 62.3007 60.8778 61.8688 59.9061L60.789 57.7466C60.5731 57.4227 60.6811 56.9908 60.897 56.7749C61.3289 56.235 61.6528 55.6951 61.8688 55.1553C62.1927 54.6154 62.4086 53.9675 62.6246 53.3197C62.7326 52.9958 63.0565 52.6719 63.3804 52.6719L65.7558 52.24C66.7276 52.024 67.4834 51.0523 67.4834 50.0805V47.4891ZM65.8638 51.1602L63.4884 51.5921C62.7326 51.7001 62.0847 52.24 61.8688 52.9958C61.6528 53.5356 61.4369 54.1835 61.2209 54.6154C61.005 55.1553 60.6811 55.6951 60.2492 56.127C59.8173 56.7748 59.7093 57.5307 60.0332 58.2865L61.1129 60.4459C61.3289 60.8778 61.2209 61.4177 60.789 61.7416L58.6296 63.1453C58.1977 63.4692 57.6578 63.3612 57.3339 62.9293L55.8223 61.2018C55.3904 60.6619 54.7425 60.4459 54.0947 60.5539C53.9867 60.5539 53.8787 60.5539 53.8787 60.5539C53.5548 60.6619 53.3389 60.6619 53.0149 60.7699C52.0432 60.8778 51.1794 60.9858 50.2076 60.8778C49.4518 60.7699 48.696 61.2018 48.2641 61.7416L46.9684 63.6851C46.6445 64.117 46.1046 64.225 45.6728 64.0091L43.4053 62.9293C42.9734 62.7134 42.7575 62.1735 42.8654 61.7416L43.6213 59.4742C43.8372 58.7184 43.7292 57.9626 43.1894 57.4227C42.9734 57.2067 42.8654 57.0988 42.7575 56.8828C42.5415 56.5589 42.3256 56.343 42.1096 56.019C41.7857 55.4792 41.4618 54.9393 41.2458 54.3994C40.9219 53.7516 40.2741 53.2117 39.5183 53.2117L37.1429 52.9958C36.603 52.9958 36.2791 52.5639 36.1711 52.024L36.0631 49.5406C36.0631 49.0008 36.387 48.5689 36.9269 48.4609L39.3023 48.029C40.0581 47.921 40.706 47.3812 40.9219 46.6253C41.1379 46.0855 41.3538 45.5456 41.5698 45.0057C41.7857 44.4659 42.1096 43.926 42.5415 43.4941C42.9734 42.8463 43.0814 42.0905 42.7575 41.3346L42.2176 40.1469L41.4618 39.0672C41.3538 38.8513 41.3538 38.6353 41.3538 38.4194C41.3538 38.2034 41.5698 37.8795 41.7857 37.7715L43.9452 36.3679C44.1611 36.2599 44.2691 36.1519 44.485 36.1519C44.809 36.1519 45.0249 36.2599 45.2409 36.4758L46.8605 38.3114C47.4003 38.8513 48.1561 39.1752 48.912 38.9592C50.0997 38.6353 51.2874 38.6353 52.4751 38.7433C53.2309 38.8513 53.9867 38.4194 54.4186 37.8795L55.7143 35.936C56.0382 35.5041 56.5781 35.3961 57.01 35.6121L57.9817 36.044L58.9535 36.5838L59.2774 36.7998C59.7093 37.0157 59.9252 37.5556 59.8173 37.9875L58.9535 40.1469C58.7375 40.9028 58.8455 41.6586 59.3854 42.1984C60.2492 43.0622 60.897 44.142 61.4369 45.2217C61.7608 45.8695 62.4086 46.4094 63.1644 46.4094L65.5399 46.6253C66.0797 46.6253 66.4036 47.0572 66.5116 47.5971L66.7276 50.0805C66.6196 50.6204 66.2957 51.0523 65.8638 51.1602Z" fill="#212529"/>
<circle cx="51.5788" cy="49.9887" r="8.56535" stroke="#93CB40" stroke-dasharray="1 1"/>
<circle cx="51.5788" cy="49.9887" r="8.56535" stroke="#93CB40" stroke-dasharray="1 1"/>
</g>
<defs>
<clipPath id="clip0">
<rect width="67.6993" height="65" fill="white" transform="translate(0 0.196777)"/>
</clipPath>
</defs>
</svg>
