<svg width="59" height="56" viewBox="0 0 59 56" fill="none" xmlns="http://www.w3.org/2000/svg">
<path fill-rule="evenodd" clip-rule="evenodd" d="M16.5627 13.2527C16.5627 6.23155 22.2905 0.503784 29.3116 0.503784C36.3328 0.503784 41.9681 6.23155 42.0605 13.2527C42.0605 16.948 40.3976 20.3662 37.8109 22.6758C37.6723 22.7682 37.5338 22.8836 37.3952 22.9991C37.2566 23.1146 37.118 23.2301 36.9795 23.3225C34.8546 24.9854 32.1755 25.9092 29.3116 25.9092C26.4478 25.9092 23.7686 24.893 21.6438 23.3225C21.3667 23.1377 21.0895 22.9529 20.8124 22.6758C18.2256 20.3662 16.5627 17.0404 16.5627 13.2527ZM22.1985 21.5037C23.3494 18.6833 26.0983 16.6709 29.3116 16.6709C32.49 16.6709 35.214 18.6398 36.3867 21.412C36.6223 21.2066 36.849 20.9912 37.0661 20.7664C36.0094 18.5916 34.0772 16.861 31.7136 16.2089C33.4689 15.3775 34.6699 13.5298 34.6699 11.405C34.6699 8.44875 32.2679 6.04678 29.3116 6.04678C26.3554 6.04678 23.9534 8.44875 23.9534 11.405C23.9534 13.4374 25.1544 15.2851 26.8173 16.1166C24.3753 16.7678 22.4353 18.4948 21.3766 20.729C21.637 21.0011 21.9113 21.2597 22.1985 21.5037ZM35.354 3.10097C33.5684 2.00777 31.47 1.36693 29.2193 1.33523C22.66 1.33523 17.3942 6.69346 17.3942 13.1603C17.3942 16.1792 18.536 18.9698 20.4051 21.0483C22.5687 23.4846 25.7248 25.0196 29.2394 25.0196C35.7626 25.0196 41.0507 19.7315 41.0507 13.2083C41.0507 8.92333 38.7688 5.17127 35.354 3.10097ZM29.404 6.97061C26.9097 6.97061 24.9696 9.00305 24.9696 11.405C24.9696 13.8994 27.0021 15.8394 29.404 15.8394C31.8984 15.8394 33.8384 13.807 33.8384 11.405C33.8384 8.91066 31.806 6.97061 29.404 6.97061Z" fill="#212529"/>
<path fill-rule="evenodd" clip-rule="evenodd" d="M0.197876 42.8473C0.197876 35.8262 5.92564 30.0984 12.9468 30.0984C19.9679 30.0984 25.6033 35.8262 25.6957 42.8473C25.6957 46.5426 24.0328 49.9608 21.446 52.2704C21.3075 52.3628 21.1689 52.4782 21.0303 52.5937C20.8917 52.7092 20.7532 52.8247 20.6146 52.9171C18.4898 54.58 15.8107 55.5038 12.9468 55.5038C10.0829 55.5038 7.40377 54.4876 5.27896 52.9171C5.00181 52.7323 4.72466 52.5475 4.44751 52.2704C1.86077 49.9608 0.197876 46.635 0.197876 42.8473ZM5.83366 51.0982C6.98464 48.2778 9.73351 46.2655 12.9468 46.2655C16.1252 46.2655 18.8492 48.2344 20.0219 51.0067C20.2575 50.8013 20.4842 50.5859 20.7013 50.3611C19.6446 48.1863 17.7124 46.4556 15.3487 45.8035C17.104 44.9721 18.305 43.1244 18.305 40.9996C18.305 38.0434 15.903 35.6414 12.9468 35.6414C9.9905 35.6414 7.58854 38.0434 7.58854 40.9996C7.58854 43.032 8.78952 44.8797 10.4524 45.7112C8.01045 46.3624 6.07052 48.0894 5.0118 50.3234C5.27215 50.5956 5.54649 50.8542 5.83366 51.0982ZM18.9706 32.6842C17.189 31.5979 15.0973 30.9614 12.8544 30.9298C6.29517 30.9298 1.02933 36.2881 1.02933 42.7549C1.02933 45.7813 2.17679 48.5782 4.05406 50.6583C6.2173 53.0856 9.36746 54.6142 12.8747 54.6142C19.3978 54.6142 24.6859 49.3261 24.6859 42.8029C24.6859 38.5101 22.3958 34.7522 18.9706 32.6842ZM13.0392 36.5652C10.5448 36.5652 8.60475 38.5977 8.60475 40.9996C8.60475 43.494 10.6372 45.434 13.0392 45.434C15.5335 45.434 17.4736 43.4016 17.4736 40.9996C17.4736 38.5053 15.4411 36.5652 13.0392 36.5652Z" fill="#212529"/>
<path fill-rule="evenodd" clip-rule="evenodd" d="M32.9105 42.8473C32.9105 35.8262 38.6383 30.0984 45.6594 30.0984C52.6805 30.0984 58.3159 35.8262 58.4083 42.8473C58.4083 46.5426 56.7454 49.9608 54.1587 52.2704C54.0201 52.3628 53.8815 52.4782 53.743 52.5937C53.6044 52.7092 53.4658 52.8247 53.3272 52.9171C51.2024 54.58 48.5233 55.5038 45.6594 55.5038C42.7955 55.5038 40.1164 54.4876 37.9916 52.9171C37.7145 52.7323 37.4373 52.5475 37.1602 52.2704C34.5734 49.9608 32.9105 46.635 32.9105 42.8473ZM38.5463 51.0981C39.6973 48.2778 42.4462 46.2655 45.6594 46.2655C48.8378 46.2655 51.5618 48.2344 52.7345 51.0066C52.9701 50.8012 53.1968 50.5858 53.4139 50.361C52.3572 48.1862 50.425 46.4556 48.0614 45.8035C49.8167 44.9721 51.0176 43.1244 51.0176 40.9996C51.0176 38.0434 48.6157 35.6414 45.6594 35.6414C42.7032 35.6414 40.3012 38.0434 40.3012 40.9996C40.3012 43.032 41.5022 44.8797 43.1651 45.7112C40.7231 46.3624 38.7832 48.0893 37.7245 50.3234C37.9848 50.5955 38.2592 50.8541 38.5463 51.0981ZM51.6678 32.6749C49.8895 31.5943 47.8035 30.9613 45.567 30.9298C39.0078 30.9298 33.742 36.2881 33.742 42.7549C33.742 45.7843 34.8917 48.5838 36.7724 50.6645C38.9354 53.0882 42.0831 54.6141 45.5873 54.6141C52.1105 54.6141 57.3986 49.326 57.3986 42.8028C57.3986 38.5036 55.1015 34.7408 51.6678 32.6749ZM45.7518 36.5652C43.2575 36.5652 41.3174 38.5977 41.3174 40.9996C41.3174 43.494 43.3498 45.434 45.7518 45.434C48.2462 45.434 50.1862 43.4016 50.1862 40.9996C50.1862 38.5053 48.1538 36.5652 45.7518 36.5652Z" fill="#212529"/>
<path fill-rule="evenodd" clip-rule="evenodd" d="M46.062 28.1382L45.1314 28.1125C45.1355 27.9645 45.1375 27.816 45.1375 27.6669C45.1375 27.5179 45.1355 27.3694 45.1314 27.2214L46.062 27.1957C46.0663 27.3522 46.0685 27.5093 46.0685 27.6669C46.0685 27.8245 46.0663 27.9816 46.062 28.1382ZM46.01 26.2573L45.0823 26.3345C45.0576 26.038 45.0247 25.7439 44.9839 25.4523L45.9059 25.3233C45.9491 25.632 45.9839 25.9434 46.01 26.2573ZM45.7495 24.3966L44.8363 24.5773C44.7787 24.286 44.713 23.9975 44.6396 23.7122L45.5412 23.4803C45.619 23.7825 45.6885 24.0881 45.7495 24.3966ZM45.2813 22.5766L44.3943 22.8591C44.3042 22.5763 44.2065 22.297 44.1012 22.0214L44.9708 21.6892C45.0824 21.9812 45.1859 22.2771 45.2813 22.5766ZM44.6107 20.8208L43.7612 21.2016C43.64 20.931 43.5113 20.6645 43.3755 20.4022L44.2023 19.9742C44.3461 20.252 44.4823 20.5343 44.6107 20.8208ZM43.7469 19.152L42.9455 19.6257C42.7947 19.3706 42.6369 19.1201 42.4725 18.8745L43.2461 18.3566C43.4202 18.6166 43.5872 18.8819 43.7469 19.152ZM15.3772 18.3566L16.1508 18.8745C15.9864 19.1201 15.8286 19.3706 15.6778 19.6257L14.8764 19.152C15.0361 18.8819 15.2031 18.6166 15.3772 18.3566ZM14.421 19.9742L15.2478 20.4022C15.112 20.6645 14.9833 20.931 14.8621 21.2016L14.0126 20.8208C14.141 20.5343 14.2772 20.252 14.421 19.9742ZM13.6525 21.6892L14.5221 22.0214C14.4168 22.297 14.319 22.5763 14.229 22.8591L13.3419 22.5766C13.4373 22.2771 13.5409 21.9812 13.6525 21.6892ZM13.0821 23.4803L13.9836 23.7122C13.9103 23.9975 13.8446 24.286 13.787 24.5773L12.8738 24.3966C12.9348 24.0881 13.0043 23.7825 13.0821 23.4803ZM12.7174 25.3233L13.6394 25.4523C13.5986 25.7439 13.5657 26.038 13.541 26.3346L12.6133 26.2573C12.6394 25.9434 12.6742 25.632 12.7174 25.3233ZM12.5613 27.1957C12.557 27.3523 12.5548 27.5093 12.5548 27.6669C12.5548 27.8245 12.557 27.9816 12.5613 28.1382L13.4919 28.1125C13.4878 27.9645 13.4857 27.816 13.4857 27.6669C13.4857 27.5179 13.4878 27.3694 13.4919 27.2214L12.5613 27.1957ZM26.968 44.2612L27.097 43.3392C27.3886 43.38 27.6827 43.4129 27.9793 43.4376L27.902 44.3653C27.5881 44.3392 27.2767 44.3044 26.968 44.2612ZM28.8404 44.4173L28.8661 43.4867C29.0141 43.4908 29.1626 43.4928 29.3116 43.4928C29.4607 43.4928 29.6092 43.4908 29.7572 43.4867L29.7829 44.4173C29.6263 44.4216 29.4692 44.4238 29.3116 44.4238C29.1541 44.4238 28.997 44.4216 28.8404 44.4173ZM30.7213 44.3653L30.644 43.4376C30.9406 43.4129 31.2347 43.38 31.5263 43.3392L31.6553 44.2612C31.3466 44.3044 31.0352 44.3392 30.7213 44.3653Z" fill="#93CB40"/>
</svg>
