<svg width="68" height="68" viewBox="0 0 68 68" fill="none" xmlns="http://www.w3.org/2000/svg">
<path d="M46.7774 17.0811C44.4829 17.0811 42.6056 18.9584 42.6056 21.2529C42.6056 21.9829 42.8142 22.6087 43.1271 23.2345L38.5381 26.5719C37.8081 25.7375 36.6608 25.1118 35.4093 25.1118C33.7406 25.1118 32.2804 26.1547 31.6547 27.5106L26.7528 25.8418C26.7528 25.6333 26.8571 25.4247 26.8571 25.2161C26.8571 22.9216 24.9798 21.0443 22.6853 21.0443C20.3908 21.0443 18.5135 22.9216 18.5135 25.2161C18.5135 25.9461 18.7221 26.5719 19.0349 27.0934L13.7159 30.848C12.9858 30.0137 11.8386 29.4922 10.6913 29.4922C8.39684 29.4922 6.51953 31.3695 6.51953 33.664C6.51953 35.9585 8.39684 37.8358 10.6913 37.8358C12.9858 37.8358 14.8631 35.9585 14.8631 33.664C14.8631 32.9339 14.6545 32.3081 14.3417 31.6824L19.5564 28.032C20.2865 28.8664 21.4337 29.3879 22.6853 29.3879C24.354 29.3879 25.8141 28.3449 26.4399 26.8848L31.3418 28.5535C31.3418 28.7621 31.2375 29.075 31.2375 29.2836C31.2375 31.5781 33.1148 33.4554 35.4093 33.4554C37.7038 33.4554 39.5811 31.5781 39.5811 29.2836C39.5811 28.6578 39.3725 27.9277 39.1639 27.4063L43.7529 24.0688C44.483 24.9032 45.6302 25.4247 46.7774 25.4247C49.0719 25.4247 50.9492 23.5474 50.9492 21.2529C50.9492 18.9584 49.0719 17.0811 46.7774 17.0811ZM10.6913 36.6885C9.02261 36.6885 7.56248 35.3327 7.56248 33.5597C7.56248 31.7867 8.91832 30.4308 10.6913 30.4308C11.5257 30.4308 12.3601 30.7437 12.8815 31.3695C13.0901 31.5781 13.2987 31.891 13.5073 32.2038C13.7159 32.621 13.8202 33.0382 13.8202 33.5597C13.8202 35.3327 12.3601 36.6885 10.6913 36.6885ZM25.7098 25.529C25.7098 25.8418 25.6055 26.259 25.3969 26.5719C24.8755 27.6149 23.8325 28.3449 22.581 28.3449C21.7466 28.3449 20.9123 27.9277 20.3908 27.4063C20.1822 27.1977 19.9736 26.8848 19.765 26.5719C19.5564 26.1547 19.4521 25.7376 19.4521 25.3204C19.4521 23.6516 20.808 22.1915 22.581 22.1915C24.354 22.1915 25.7098 23.5474 25.7098 25.3204C25.8141 25.3204 25.8141 25.4247 25.7098 25.529ZM35.4093 32.4124C33.7406 32.4124 32.2804 31.0566 32.2804 29.2836C32.2804 29.1793 32.2804 28.9707 32.2804 28.8664C32.2804 28.5535 32.3847 28.1363 32.5933 27.8235C33.1148 26.7805 34.1577 26.1547 35.4093 26.1547C36.3479 26.1547 37.078 26.5719 37.7038 27.0934C37.9124 27.302 38.121 27.6149 38.3295 27.9277C38.5381 28.3449 38.6424 28.7621 38.6424 29.1793C38.5381 30.9523 37.1823 32.4124 35.4093 32.4124ZM46.7774 24.3817C45.9431 24.3817 45.1087 24.0688 44.5872 23.4431C44.3787 23.2345 44.1701 22.9216 43.9615 22.6087C43.7529 22.1915 43.6486 21.7743 43.6486 21.2529C43.6486 19.5841 45.0044 18.124 46.7774 18.124C48.5505 18.124 49.9063 19.4798 49.9063 21.2529C49.9063 23.0259 48.4462 24.3817 46.7774 24.3817Z" fill="#93CB40"/>
<circle cx="28.6704" cy="28.281" r="27.1955" stroke="#212529"/>
<rect x="51.7545" y="55.6292" width="6.39033" height="16.5488" rx="1" transform="rotate(-45 51.7545 55.6292)" fill="#212529"/>
<rect x="47.0347" y="47.5681" width="1.90275" height="11.8915" transform="rotate(-45 47.0347 47.5681)" fill="#212529"/>
</svg>
