<svg width="70" height="81" viewBox="0 0 70 81" fill="none" xmlns="http://www.w3.org/2000/svg">
<g opacity="0.2">
<g opacity="0.25">
<path opacity="0.25" d="M34.8145 69.3556C15.8936 69.3556 0.47998 53.96 0.47998 35.0211C0.47998 16.0823 15.8936 0.70462 34.8145 0.70462C53.7353 0.70462 69.131 16.1003 69.131 35.0211C69.131 53.942 53.7353 69.3556 34.8145 69.3556ZM34.8145 6.1003C18.8613 6.1003 5.87566 19.0859 5.87566 35.0211C5.87566 50.9564 18.8613 63.942 34.7965 63.942C50.7317 63.942 63.7173 50.9564 63.7173 35.0211C63.7173 19.0859 50.7677 6.1003 34.8145 6.1003Z" fill="white"/>
</g>
<g opacity="0.25">
<path opacity="0.25" d="M63.4654 51.1183C63.0877 51.1183 62.692 51.0284 62.3323 50.8665C60.9834 50.237 60.3899 48.6363 61.0194 47.2874C62.8 43.4744 63.7352 39.2298 63.7352 35.0212C63.7352 28.2226 61.3251 21.6039 56.9366 16.4061C55.9834 15.273 56.1273 13.5644 57.2604 12.6111C58.3935 11.6579 60.1021 11.8018 61.0554 12.9349C66.2532 19.1219 69.1309 26.9637 69.1309 35.0392C69.1309 40.0392 68.0158 45.0751 65.9115 49.5895C65.4618 50.5428 64.4906 51.1183 63.4654 51.1183ZM3.48346 33.3665C3.35756 33.3665 3.23166 33.3665 3.10576 33.3485C1.63094 33.1507 0.605762 31.7838 0.803603 30.309C1.97267 21.9097 6.19928 14.2658 12.6921 8.7982C16.2892 5.77662 20.354 3.56439 24.8144 2.19749C26.2352 1.76583 27.746 2.57518 28.1777 3.99605C28.6093 5.41691 27.8 6.9277 26.3791 7.35935C22.6201 8.49245 19.1849 10.3629 16.1633 12.9169C10.6957 17.5212 7.13453 23.9601 6.14533 31.0464C5.96547 32.3773 4.81439 33.3665 3.48346 33.3665Z" fill="white"/>
</g>
<g opacity="0.25">
<path opacity="0.25" d="M5.28214 49.05C4.203 49.05 3.17782 48.3845 2.76415 47.3233C1.25336 43.3665 0.47998 39.2298 0.47998 35.0212C0.47998 30.8126 1.25336 26.6759 2.76415 22.719C4.4548 18.3485 6.9548 14.4277 10.1922 11.1003C11.2354 10.0392 12.944 10.0032 14.0051 11.0464C15.0663 12.0896 15.1023 13.7982 14.0591 14.8593C11.3253 17.6651 9.22098 20.9565 7.80012 24.6615C6.52314 27.9888 5.87566 31.478 5.87566 35.0212C5.87566 38.5644 6.52314 42.0536 7.80012 45.3809C8.33969 46.7658 7.63825 48.3305 6.25336 48.8701C5.92962 48.996 5.60588 49.05 5.28214 49.05ZM66.3792 35.5967C64.9763 35.5967 63.7893 34.4996 63.6814 33.0788C62.926 21.8737 55.6598 12.0356 45.1742 8.00683C43.7893 7.46726 43.0879 5.9205 43.6274 4.51762C44.167 3.13273 45.7138 2.43129 47.1166 2.97086C53.3397 5.36294 58.6994 9.46366 62.6022 14.8593C66.3972 20.0931 68.6274 26.2802 69.077 32.719C69.185 34.2118 68.0519 35.4888 66.5591 35.5967C66.4871 35.5967 66.4332 35.5967 66.3792 35.5967Z" fill="white"/>
</g>
<path d="M39.2929 78.0068H30.2462C28.6635 78.0068 27.3865 76.7298 27.3865 75.1471V63.7982H42.1347V75.1651C42.1526 76.7298 40.8757 78.0068 39.2929 78.0068Z" fill="#847886"/>
<path d="M42.1524 75.1651V63.8162H40.4078C40.4078 63.8162 36.0373 65.0752 36.0373 68.8522C36.0373 68.8522 36.5769 78.0248 30.4258 78.0248H39.3107C40.8754 78.0068 42.1524 76.7299 42.1524 75.1651Z" fill="#685E6B"/>
<path d="M30.3361 78.0067V78.2225C30.3361 79.5894 31.4512 80.7046 32.8181 80.7046H36.8828C38.2497 80.7046 39.3648 79.5894 39.3648 78.2225V78.0067H30.3361Z" fill="#564A59"/>
<path d="M42.1526 69.7334H27.4044C26.3073 69.7334 25.426 68.8521 25.426 67.755C25.426 66.6579 26.3073 65.7766 27.4044 65.7766H42.1526C43.2498 65.7766 44.131 66.6579 44.131 67.755C44.131 68.8521 43.2498 69.7334 42.1526 69.7334Z" fill="#C2B8C2"/>
<path d="M32.0805 69.7334H29.9223C28.8251 69.7334 27.9438 68.8521 27.9438 67.755C27.9438 66.6579 28.8251 65.7766 29.9223 65.7766H32.0805C33.1777 65.7766 34.059 66.6579 34.059 67.755C34.059 68.8521 33.1777 69.7334 32.0805 69.7334Z" fill="#E0DAE0"/>
<path d="M42.1526 69.7335H40.7138C39.6166 69.7335 38.7354 68.8522 38.7354 67.7551C38.7354 66.658 39.6166 65.7767 40.7138 65.7767H42.1526C43.2497 65.7767 44.131 66.658 44.131 67.7551C44.131 68.8522 43.2497 69.7335 42.1526 69.7335Z" fill="#E0DAE0"/>
<path d="M42.1526 75.4888H27.4044C26.3073 75.4888 25.426 74.6075 25.426 73.5104C25.426 72.4132 26.3073 71.532 27.4044 71.532H42.1526C43.2498 71.532 44.131 72.4132 44.131 73.5104C44.131 74.6075 43.2498 75.4888 42.1526 75.4888Z" fill="#C2B8C2"/>
<path d="M32.0804 75.4889H29.9221C28.825 75.4889 27.9437 74.6076 27.9437 73.5105C27.9437 72.4134 28.825 71.5321 29.9221 71.5321H32.0804C33.1775 71.5321 34.0588 72.4134 34.0588 73.5105C34.0588 74.6076 33.1775 75.4889 32.0804 75.4889Z" fill="#E0DAE0"/>
<path d="M42.1526 75.4888H40.7138C39.6166 75.4888 38.7354 74.6076 38.7354 73.5104C38.7354 72.4133 39.6166 71.532 40.7138 71.532H42.1526C43.2497 71.532 44.131 72.4133 44.131 73.5104C44.131 74.6076 43.2497 75.4888 42.1526 75.4888Z" fill="#E0DAE0"/>
<path d="M56.2173 34.9313C56.2173 22.9528 46.4152 13.2766 34.4008 13.4385C22.7461 13.6003 13.2677 23.1867 13.2317 34.8413C13.1958 41.7478 16.4332 47.9169 21.4871 51.8737C23.5914 53.5104 24.8325 56.0284 24.8325 58.6902V60.9924C24.8325 62.6471 26.1814 63.996 27.8361 63.996H41.613C43.2677 63.996 44.6166 62.6471 44.6166 60.9924V58.7082C44.6166 56.0643 45.8037 53.5643 47.89 51.9456C52.9619 47.9888 56.2173 41.8557 56.2173 34.9313Z" fill="white" fill-opacity="0.8"/>
<path d="M34.8144 50.3089C43.2576 50.3089 50.1021 43.4644 50.1021 35.0212C50.1021 26.578 43.2576 19.7334 34.8144 19.7334C26.3712 19.7334 19.5266 26.578 19.5266 35.0212C19.5266 43.4644 26.3712 50.3089 34.8144 50.3089Z" fill="white"/>
<path d="M41.3073 29.6255H39.9404C37.89 29.6255 36.2174 31.2982 36.2174 33.3485V38.6183H33.3397V33.3485C33.3397 31.2982 31.667 29.6255 29.6167 29.6255H28.2498C26.1994 29.6255 24.5267 31.2982 24.5267 33.3485V36.1543C24.5267 38.2047 26.1994 39.8773 28.2498 39.8773H32.0807V53.0068H33.3397V50.6687V50.4888V39.8773H36.2174V50.4888V50.6687V53.0068H37.4764V39.8773H41.3073C43.3577 39.8773 45.0303 38.2047 45.0303 36.1543V33.3485C45.0303 31.2982 43.3577 29.6255 41.3073 29.6255ZM32.0807 38.6183H28.2498C26.8828 38.6183 25.7857 37.5212 25.7857 36.1543V33.3485C25.7857 31.9816 26.8828 30.8845 28.2498 30.8845H29.6167C30.9836 30.8845 32.0807 31.9816 32.0807 33.3485V38.6183ZM43.7713 36.1543C43.7713 37.5212 42.6742 38.6183 41.3073 38.6183H37.4764V33.3485C37.4764 31.9816 38.5735 30.8845 39.9404 30.8845H41.3073C42.6742 30.8845 43.7713 31.9816 43.7713 33.3485V36.1543Z" fill="#2A3342"/>
<path d="M39.1308 63.978H30.3179V54.6974C30.3179 53.1686 31.5589 51.9276 33.0877 51.9276H36.379C37.9078 51.9276 39.1488 53.1686 39.1488 54.6974V63.978H39.1308Z" fill="white"/>
<path d="M15.1202 37.701C14.113 37.701 13.2677 36.9097 13.2317 35.8845C13.2137 35.5967 13.2137 35.309 13.2137 35.0392C13.2137 29.4097 15.372 24.0859 19.2749 20.0392C23.3756 15.7946 28.8972 13.4385 34.8144 13.4385C35.6058 13.4385 36.3972 13.4744 37.1706 13.5644C38.2137 13.6723 38.9511 14.6075 38.8432 15.6507C38.7353 16.6939 37.8001 17.4313 36.7569 17.3234C36.1094 17.2514 35.4619 17.2154 34.8144 17.2154C29.9403 17.2154 25.39 19.1399 21.9907 22.6471C18.7713 25.9924 16.9907 30.3809 16.9907 35.0212C16.9907 35.255 16.9907 35.4888 17.0087 35.7226C17.0447 36.7658 16.2353 37.6471 15.1922 37.6831C15.1742 37.701 15.1562 37.701 15.1202 37.701Z" fill="white"/>
<path d="M16.7389 45.4528C16.2173 45.4528 15.6957 45.165 15.4439 44.6615C14.9224 43.6003 14.4727 42.4852 14.131 41.3521C13.8972 40.5967 14.3288 39.7874 15.0842 39.5535C15.8396 39.3197 16.649 39.7514 16.8828 40.5068C17.1885 41.496 17.5662 42.4672 18.0339 43.3845C18.3936 44.1039 18.1058 44.9672 17.3864 45.3089C17.1706 45.3989 16.9547 45.4528 16.7389 45.4528ZM54.5986 40.4888C54.5086 40.4888 54.4007 40.4708 54.3108 40.4528C53.5374 40.291 53.0338 39.5356 53.1957 38.7622C53.4475 37.5392 53.5734 36.2802 53.5734 35.0392C53.5734 32.1615 52.8899 29.2838 51.613 26.6938C51.2533 25.9744 51.559 25.1111 52.2604 24.7694C52.9799 24.4097 53.8432 24.7154 54.1849 25.4169C55.6597 28.4025 56.4511 31.7298 56.4511 35.0392C56.4511 36.478 56.3072 37.9348 56.0194 39.3557C55.8576 40.0212 55.264 40.4888 54.5986 40.4888ZM15.9655 29.2478C15.7857 29.2478 15.6238 29.2118 15.4439 29.1579C14.7065 28.8701 14.3288 28.0428 14.6166 27.3053L14.6346 27.2694C16.3792 22.737 19.4907 19.014 23.6454 16.514C24.3288 16.1003 25.2101 16.3161 25.6238 16.9996C26.0375 17.6831 25.8216 18.5643 25.1382 18.978C21.5411 21.1543 18.8432 24.3737 17.3324 28.3125L17.3144 28.3485C17.0806 28.9061 16.5411 29.2478 15.9655 29.2478Z" fill="white"/>
</g>
</svg>
