<svg width="49" height="57" viewBox="0 0 49 57" fill="none" xmlns="http://www.w3.org/2000/svg">
<path d="M3.22011 31.247C4.72097 31.247 5.93766 30.0303 5.93766 28.5294C5.93766 27.0286 4.72097 25.8119 3.22011 25.8119C1.71925 25.8119 0.502563 27.0286 0.502563 28.5294C0.502563 30.0303 1.71925 31.247 3.22011 31.247Z" stroke="#212529" stroke-miterlimit="10"/>
<path d="M5.93764 18.5359C7.4385 18.5359 8.65519 17.3192 8.65519 15.8184C8.65519 14.3175 7.4385 13.1008 5.93764 13.1008C4.43678 13.1008 3.22009 14.3175 3.22009 15.8184C3.22009 17.3192 4.43678 18.5359 5.93764 18.5359Z" stroke="#212529" stroke-miterlimit="10"/>
<path d="M5.93764 43.5197C7.4385 43.5197 8.65519 42.303 8.65519 40.8021C8.65519 39.3013 7.4385 38.0846 5.93764 38.0846C4.43678 38.0846 3.22009 39.3013 3.22009 40.8021C3.22009 42.303 4.43678 43.5197 5.93764 43.5197Z" stroke="#212529" stroke-miterlimit="10"/>
<path d="M11.8109 55.6172C13.3118 55.6172 14.5285 54.4005 14.5285 52.8997C14.5285 51.3988 13.3118 50.1821 11.8109 50.1821C10.3101 50.1821 9.09338 51.3988 9.09338 52.8997C9.09338 54.4005 10.3101 55.6172 11.8109 55.6172Z" stroke="#212529" stroke-miterlimit="10"/>
<path d="M11.8109 6.87675C13.3118 6.87675 14.5285 5.66006 14.5285 4.1592C14.5285 2.65834 13.3118 1.44165 11.8109 1.44165C10.3101 1.44165 9.09338 2.65834 9.09338 4.1592C9.09338 5.66006 10.3101 6.87675 11.8109 6.87675Z" stroke="#212529" stroke-miterlimit="10"/>
<path d="M16.3695 3.72083H14.5286V4.59745H16.3695C19.613 4.59745 22.2429 7.22734 22.2429 10.4709V15.38H8.65517V16.2566H22.2429V28.0034H5.93762V28.8801H22.2429V40.2763H8.65517V41.1529H22.2429V46.588C22.2429 49.8315 19.613 52.4614 16.3695 52.4614H14.5286V53.338H16.3695C20.139 53.338 23.1196 50.2698 23.1196 46.588V10.4709C23.1196 6.78903 20.0514 3.72083 16.3695 3.72083Z" fill="#212529" stroke="#212529" stroke-width="0.2"/>
<path d="M45.386 31.247C46.8869 31.247 48.1036 30.0303 48.1036 28.5294C48.1036 27.0286 46.8869 25.8119 45.386 25.8119C43.8851 25.8119 42.6685 27.0286 42.6685 28.5294C42.6685 30.0303 43.8851 31.247 45.386 31.247Z" stroke="#93CB40" stroke-miterlimit="10"/>
<path d="M42.7561 18.5359C44.257 18.5359 45.4737 17.3192 45.4737 15.8184C45.4737 14.3175 44.257 13.1008 42.7561 13.1008C41.2553 13.1008 40.0386 14.3175 40.0386 15.8184C40.0386 17.3192 41.2553 18.5359 42.7561 18.5359Z" stroke="#93CB40" stroke-miterlimit="10"/>
<path d="M42.7561 43.5197C44.257 43.5197 45.4737 42.303 45.4737 40.8021C45.4737 39.3013 44.257 38.0846 42.7561 38.0846C41.2553 38.0846 40.0386 39.3013 40.0386 40.8021C40.0386 42.303 41.2553 43.5197 42.7561 43.5197Z" stroke="#93CB40" stroke-miterlimit="10"/>
<path d="M36.7949 55.6172C38.2958 55.6172 39.5125 54.4005 39.5125 52.8997C39.5125 51.3988 38.2958 50.1821 36.7949 50.1821C35.2941 50.1821 34.0774 51.3988 34.0774 52.8997C34.0774 54.4005 35.2941 55.6172 36.7949 55.6172Z" stroke="#93CB40" stroke-miterlimit="10"/>
<path d="M36.7949 6.87675C38.2958 6.87675 39.5125 5.66006 39.5125 4.1592C39.5125 2.65834 38.2958 1.44165 36.7949 1.44165C35.2941 1.44165 34.0774 2.65834 34.0774 4.1592C34.0774 5.66006 35.2941 6.87675 36.7949 6.87675Z" stroke="#93CB40" stroke-miterlimit="10"/>
<path d="M32.2366 3.72083H34.0775V4.59745H32.2366C28.9931 4.59745 26.3632 7.22734 26.3632 10.4709V15.38H39.951V16.2566H26.3632V28.0034H42.6685V28.8801H26.3632V40.2763H39.951V41.1529H26.3632V46.588C26.3632 49.8315 28.9931 52.4614 32.2366 52.4614H34.0775V53.338H32.2366C28.4671 53.338 25.4866 50.2698 25.4866 46.588V10.4709C25.4866 6.78903 28.5548 3.72083 32.2366 3.72083Z" fill="#93CB40" stroke="#93CB40" stroke-width="0.2"/>
</svg>
