<svg width="123" height="81" viewBox="0 0 123 81" fill="none" xmlns="http://www.w3.org/2000/svg">
<g clip-path="url(#clip0)">
<path d="M114.189 76.102H8.28662V13.6134C8.28662 10.5385 10.7883 8.03683 13.8632 8.03683H108.56C111.635 8.03683 114.137 10.5385 114.137 13.6134V76.102H114.189Z" fill="#3E4251"/>
<path d="M110.906 73.6003H11.5701V13.874C11.5701 12.7274 12.5082 11.8414 13.6026 11.8414H108.873C110.02 11.8414 110.906 12.7795 110.906 13.874V73.6003Z" fill="#2C3544"/>
<path d="M119.088 80.0107H3.38762C1.5114 80.0107 0 78.4993 0 76.6231V76.0498H122.476V76.6231C122.476 78.4993 120.964 80.0107 119.088 80.0107Z" fill="#4A4F5D"/>
<path d="M105.433 0.0107727H18.5538C17.1987 0.0107727 16.1042 1.10524 16.1042 2.46028V3.86745H107.883V2.46028C107.883 1.10524 106.788 0.0107727 105.433 0.0107727Z" fill="#383D4C"/>
<path d="M16.1042 3.86745V63.8023C16.1042 65.1574 17.1987 66.2518 18.5538 66.2518H105.433C106.788 66.2518 107.883 65.1574 107.883 63.8023V3.86745H16.1042Z" fill="#4E5562"/>
<path d="M19.4397 2.61664C19.8139 2.61664 20.1173 2.3133 20.1173 1.93911C20.1173 1.56493 19.8139 1.26159 19.4397 1.26159C19.0655 1.26159 18.7622 1.56493 18.7622 1.93911C18.7622 2.3133 19.0655 2.61664 19.4397 2.61664Z" fill="#2C3544"/>
<path d="M22.0456 2.61664C22.4198 2.61664 22.7231 2.3133 22.7231 1.93911C22.7231 1.56493 22.4198 1.26159 22.0456 1.26159C21.6714 1.26159 21.368 1.56493 21.368 1.93911C21.368 2.3133 21.6714 2.61664 22.0456 2.61664Z" fill="#2C3544"/>
<path d="M24.7037 2.61664C25.0778 2.61664 25.3812 2.3133 25.3812 1.93911C25.3812 1.56493 25.0778 1.26159 24.7037 1.26159C24.3295 1.26159 24.0261 1.56493 24.0261 1.93911C24.0261 2.3133 24.3295 2.61664 24.7037 2.61664Z" fill="#2C3544"/>
<path d="M45.6027 8.29742H26.632C26.215 8.29742 25.9023 8.61013 25.9023 9.02707C25.9023 9.444 26.215 9.75671 26.632 9.75671H45.6027C46.0196 9.75671 46.3323 9.444 46.3323 9.02707C46.2802 8.61013 45.9675 8.29742 45.6027 8.29742Z" fill="#2C3544"/>
<path d="M53.5766 13.5092H26.632C26.215 13.5092 25.9023 13.8219 25.9023 14.2388C25.9023 14.6557 26.215 14.9684 26.632 14.9684H53.5766C53.9936 14.9684 54.3063 14.6557 54.3063 14.2388C54.3063 13.8219 53.9936 13.5092 53.5766 13.5092Z" fill="#2C3544"/>
<path d="M53.5766 23.8805H26.632C26.215 23.8805 25.9023 24.1932 25.9023 24.6101C25.9023 25.0271 26.215 25.3398 26.632 25.3398H53.5766C53.9936 25.3398 54.3063 25.0271 54.3063 24.6101C54.3063 24.1932 53.9936 23.8805 53.5766 23.8805Z" fill="#2C3544"/>
<path d="M84.7949 23.8805H57.8502C57.4333 23.8805 57.1206 24.1932 57.1206 24.6101C57.1206 25.0271 57.4333 25.3398 57.8502 25.3398H84.7949C85.2118 25.3398 85.5245 25.0271 85.5245 24.6101C85.5245 24.1932 85.2118 23.8805 84.7949 23.8805Z" fill="#2C3544"/>
<path d="M100.951 23.8805H89.0684C88.6514 23.8805 88.3387 24.1932 88.3387 24.6101C88.3387 25.0271 88.6514 25.3398 89.0684 25.3398H100.951C101.368 25.3398 101.681 25.0271 101.681 24.6101C101.681 24.1932 101.368 23.8805 100.951 23.8805Z" fill="#2C3544"/>
<path d="M74.5799 29.0922H62.6972C62.2802 29.0922 61.9675 29.4049 61.9675 29.8219C61.9675 30.2388 62.2802 30.5515 62.6972 30.5515H74.5799C74.9968 30.5515 75.3095 30.2388 75.3095 29.8219C75.2574 29.4049 74.9447 29.0922 74.5799 29.0922Z" fill="#2C3544"/>
<path d="M68.9511 13.5092H57.0684C56.6514 13.5092 56.3387 13.8219 56.3387 14.2388C56.3387 14.6557 56.6514 14.9684 57.0684 14.9684H68.9511C69.3681 14.9684 69.6808 14.6557 69.6808 14.2388C69.6287 13.8219 69.316 13.5092 68.9511 13.5092Z" fill="#2C3544"/>
<path d="M76.0912 8.29742H48.7818C48.3648 8.29742 48.0521 8.61013 48.0521 9.02707C48.0521 9.444 48.3648 9.75671 48.7818 9.75671H76.0912C76.5082 9.75671 76.8209 9.444 76.8209 9.02707C76.8209 8.61013 76.5082 8.29742 76.0912 8.29742Z" fill="#2C3544"/>
<path d="M59.1532 29.0922H26.632C26.215 29.0922 25.9023 29.4049 25.9023 29.8219C25.9023 30.2388 26.215 30.5515 26.632 30.5515H59.1532C59.5701 30.5515 59.8828 30.2388 59.8828 29.8219C59.8828 29.4049 59.5701 29.0922 59.1532 29.0922Z" fill="#2C3544"/>
<path d="M35.8567 34.304H26.632C26.215 34.304 25.9023 34.6167 25.9023 35.0336C25.9023 35.4505 26.215 35.7632 26.632 35.7632H35.8567C36.2737 35.7632 36.5864 35.4505 36.5864 35.0336C36.5864 34.6167 36.2737 34.304 35.8567 34.304Z" fill="#2C3544"/>
<path d="M43.8828 44.6753H26.6841C26.2672 44.6753 25.9545 44.988 25.9545 45.4049C25.9545 45.8218 26.2672 46.1345 26.6841 46.1345H43.8828C44.2997 46.1345 44.6124 45.8218 44.6124 45.4049C44.5603 44.988 44.2476 44.6753 43.8828 44.6753Z" fill="#2C3544"/>
<path d="M78.9057 44.6753H47.0099C46.593 44.6753 46.2803 44.988 46.2803 45.4049C46.2803 45.8218 46.593 46.1345 47.0099 46.1345H78.9057C79.3226 46.1345 79.6353 45.8218 79.6353 45.4049C79.5832 44.988 79.2705 44.6753 78.9057 44.6753Z" fill="#2C3544"/>
<path d="M53.5766 49.887H26.632C26.215 49.887 25.9023 50.1997 25.9023 50.6166C25.9023 51.0336 26.215 51.3463 26.632 51.3463H53.5766C53.9936 51.3463 54.3063 51.0336 54.3063 50.6166C54.3063 50.1997 53.9936 49.887 53.5766 49.887Z" fill="#2C3544"/>
<path d="M73.3291 49.887H56.1825C55.7656 49.887 55.4529 50.1997 55.4529 50.6166C55.4529 51.0336 55.7656 51.3463 56.1825 51.3463H73.3291C73.746 51.3463 74.0587 51.0336 74.0587 50.6166C74.0587 50.1997 73.746 49.887 73.3291 49.887Z" fill="#2C3544"/>
<path d="M98.606 44.6753H81.4594C81.0424 44.6753 80.7297 44.988 80.7297 45.4049C80.7297 45.8218 81.0424 46.1345 81.4594 46.1345H98.606C99.0229 46.1345 99.3356 45.8218 99.3356 45.4049C99.3356 44.988 99.0229 44.6753 98.606 44.6753Z" fill="#2C3544"/>
<path d="M53.5766 60.2584H26.632C26.215 60.2584 25.9023 60.5711 25.9023 60.988C25.9023 61.4049 26.215 61.7176 26.632 61.7176H53.5766C53.9936 61.7176 54.3063 61.4049 54.3063 60.988C54.3063 60.5711 53.9936 60.2584 53.5766 60.2584Z" fill="#2C3544"/>
<path d="M30.228 80.0107H19.9609C18.8665 80.0107 17.9805 79.1247 17.9805 78.0303C17.9805 76.9358 18.8665 76.0498 19.9609 76.0498H30.228C31.3225 76.0498 32.2085 76.9358 32.2085 78.0303C32.2085 79.1247 31.3225 80.0107 30.228 80.0107Z" fill="#505663"/>
<path d="M40.2867 80.0107H37.2639C36.1694 80.0107 35.2834 79.1247 35.2834 78.0303C35.2834 76.9358 36.1694 76.0498 37.2639 76.0498H40.2867C41.3812 76.0498 42.2672 76.9358 42.2672 78.0303C42.2672 79.1247 41.3812 80.0107 40.2867 80.0107Z" fill="#505663"/>
<path d="M105.485 3.29415H100.534C99.7524 3.29415 99.1791 2.66874 99.1791 1.9391C99.1791 1.15734 99.8045 0.584053 100.534 0.584053H105.485C106.267 0.584053 106.84 1.20946 106.84 1.9391C106.892 2.66874 106.267 3.29415 105.485 3.29415Z" fill="#414756"/>
<path d="M96.4691 3.29415H93.8632C93.0815 3.29415 92.5082 2.66874 92.5082 1.9391C92.5082 1.15734 93.1336 0.584053 93.8632 0.584053H96.4691C97.2508 0.584053 97.8241 1.20946 97.8241 1.9391C97.8763 2.66874 97.2508 3.29415 96.4691 3.29415Z" fill="#414756"/>
<path d="M21.7328 8.29742H18.4495V9.70459H21.7328V8.29742Z" fill="#565D69"/>
<path d="M21.7328 13.5092H18.4495V14.9163H21.7328V13.5092Z" fill="#565D69"/>
<path d="M21.7328 18.7209H18.4495V20.128H21.7328V18.7209Z" fill="#565D69"/>
<path d="M21.7328 23.8805H18.4495V25.2877H21.7328V23.8805Z" fill="#565D69"/>
<path d="M21.7328 29.0922H18.4495V30.4994H21.7328V29.0922Z" fill="#565D69"/>
<path d="M21.7328 34.304H18.4495V35.7111H21.7328V34.304Z" fill="#565D69"/>
<path d="M21.7328 39.4635H18.4495V40.8707H21.7328V39.4635Z" fill="#565D69"/>
<path d="M21.7328 44.6753H18.4495V46.0824H21.7328V44.6753Z" fill="#565D69"/>
<path d="M21.7328 49.887H18.4495V51.2941H21.7328V49.887Z" fill="#565D69"/>
<path d="M21.7328 55.0466H18.4495V56.4538H21.7328V55.0466Z" fill="#565D69"/>
<path d="M21.7328 60.2584H18.4495V61.6655H21.7328V60.2584Z" fill="#565D69"/>
</g>
<defs>
<clipPath id="clip0">
<rect width="122.476" height="80" fill="white" transform="translate(0 0.0107727)"/>
</clipPath>
</defs>
</svg>
