<svg width="53" height="57" viewBox="0 0 53 57" fill="none" xmlns="http://www.w3.org/2000/svg">
<path d="M26.3579 44.2889V43.4111C26.6212 43.4111 26.9724 43.4111 27.2357 43.4111L27.3235 44.2889C26.8846 44.2889 26.6212 44.2889 26.3579 44.2889ZM24.5144 44.2012C24.251 44.2012 23.8999 44.1134 23.6365 44.1134L23.8121 43.2355C24.0754 43.3233 24.3388 43.3233 24.6899 43.3233L24.5144 44.2012ZM28.9914 44.1134L28.8159 43.2355C29.0792 43.1477 29.3426 43.1477 29.6937 43.0599L29.8693 43.9378C29.6059 43.9378 29.3426 44.0256 28.9914 44.1134ZM21.8808 43.6744C21.6175 43.5867 21.2663 43.4989 21.003 43.4111L21.2663 42.621C21.5297 42.7088 21.793 42.7966 22.0564 42.8844L21.8808 43.6744ZM31.625 43.4111L31.3616 42.621C31.625 42.5332 31.8883 42.4454 32.1517 42.3577L32.5028 43.1477C32.2395 43.2355 31.8883 43.3233 31.625 43.4111ZM19.335 42.7088C19.0717 42.621 18.8083 42.4454 18.545 42.2699L18.9839 41.4798C19.2473 41.6554 19.5106 41.7432 19.774 41.8309L19.335 42.7088ZM34.083 42.3577L33.6441 41.5676C33.9074 41.392 34.1708 41.3042 34.3463 41.1287L34.7853 41.8309C34.6097 42.0065 34.3463 42.1821 34.083 42.3577ZM16.9648 41.392C16.7015 41.2165 16.4381 41.0409 16.2625 40.8653L16.7893 40.163C17.0526 40.3386 17.2282 40.5142 17.4915 40.6897L16.9648 41.392ZM36.3654 40.8653L35.8387 40.163C36.102 39.9875 36.2776 39.8119 36.4532 39.6363L37.0677 40.3386C36.8043 40.4264 36.6288 40.6897 36.3654 40.8653ZM14.9458 39.6363C14.7702 39.4607 14.5068 39.1974 14.3313 39.0218L14.9458 38.4073C15.1213 38.5829 15.2969 38.8462 15.5603 39.0218L14.9458 39.6363ZM38.2967 39.0218L37.6822 38.4073C37.8578 38.2318 38.0333 37.9684 38.2089 37.7928L38.9112 38.3195C38.7356 38.5829 38.56 38.7585 38.2967 39.0218ZM13.1901 37.6173C13.0145 37.3539 12.8389 37.0905 12.6633 36.915L13.3656 36.476C13.5412 36.7394 13.7168 36.915 13.8046 37.1783L13.1901 37.6173ZM39.9646 36.8272L39.2623 36.3883C39.4379 36.1249 39.5257 35.9493 39.7012 35.686L40.4913 36.1249C40.3157 36.3883 40.1402 36.5638 39.9646 36.8272ZM11.7855 35.3348C11.6099 35.0715 11.5221 34.8081 11.4344 34.5448L12.2244 34.1936C12.3122 34.457 12.4878 34.7203 12.5756 34.9837L11.7855 35.3348ZM41.2814 34.457L40.4913 34.1058C40.5791 33.8425 40.6669 33.5791 40.8425 33.3158L41.6325 33.5791C41.4569 33.9303 41.3692 34.1936 41.2814 34.457ZM10.7321 32.7891C10.6443 32.5257 10.5565 32.1746 10.4687 31.9112L11.3466 31.7356C11.4344 31.999 11.5221 32.2623 11.6099 32.5257L10.7321 32.7891ZM42.1592 31.9112L41.2814 31.7356C41.3692 31.4723 41.3692 31.2089 41.457 30.8578L42.3348 31.0333C42.247 31.2967 42.1592 31.6478 42.1592 31.9112ZM10.2054 30.1555C10.2054 29.8921 10.1176 29.541 10.1176 29.2776L10.9954 29.1899C10.9954 29.4532 11.0832 29.7166 11.0832 30.0677L10.2054 30.1555ZM42.5104 29.2776L41.6325 29.1899C41.6325 28.9265 41.6325 28.6631 41.6325 28.312H42.5104C42.5982 28.6631 42.5982 28.9265 42.5104 29.2776ZM10.9076 28.0486H10.0298C10.0298 27.7853 10.0298 27.4341 10.0298 27.1708L10.9076 27.2586C10.9076 27.4341 10.9076 27.7853 10.9076 28.0486ZM41.6325 26.6441C41.6325 26.3807 41.5447 26.1174 41.5447 25.7662L42.4226 25.6784C42.5104 25.9418 42.5104 26.2929 42.5104 26.5563L41.6325 26.6441ZM11.171 25.5029L10.2931 25.3273C10.3809 25.0639 10.3809 24.7128 10.4687 24.4494L11.3466 24.625C11.2588 24.9762 11.171 25.2395 11.171 25.5029ZM41.1936 24.0983C41.1058 23.8349 41.018 23.5716 40.9302 23.3082L41.8081 23.0449C41.8959 23.3082 41.9837 23.6594 42.0714 23.9227L41.1936 24.0983ZM11.7855 23.0449L10.9954 22.7815C11.0832 22.5182 11.171 22.2548 11.3466 21.9037L12.1366 22.2548C11.9611 22.5182 11.8733 22.7815 11.7855 23.0449ZM40.3157 21.7281C40.228 21.4647 40.0524 21.2014 39.9646 20.938L40.7547 20.4991C40.9302 20.7625 41.018 21.0258 41.1058 21.2892L40.3157 21.7281ZM12.8389 20.6747L12.0488 20.2357C12.2244 19.9724 12.3122 19.709 12.4878 19.4457L13.1901 19.8846C13.1023 20.148 12.9267 20.4113 12.8389 20.6747ZM39.0867 19.4457C38.9112 19.1823 38.7356 19.0068 38.56 18.7434L39.2623 18.2167C39.4379 18.48 39.6135 18.7434 39.789 18.919L39.0867 19.4457ZM14.2435 18.5678L13.5412 18.0411C13.7168 17.7778 13.8923 17.6022 14.1557 17.3388L14.858 17.9533C14.5946 18.1289 14.4191 18.3045 14.2435 18.5678ZM37.5066 17.4266C37.331 17.251 37.0677 16.9877 36.8921 16.8121L37.5066 16.1976C37.6822 16.3732 37.9455 16.6365 38.1211 16.8121L37.5066 17.4266ZM15.9114 16.6365L15.3847 16.022C15.648 15.8465 15.8236 15.5831 16.087 15.4076L16.6137 16.1098C16.3503 16.2854 16.1748 16.461 15.9114 16.6365ZM35.5753 15.7587C35.312 15.5831 35.1364 15.4076 34.873 15.232L35.3998 14.5297C35.6631 14.7053 35.9265 14.8808 36.102 15.0564L35.5753 15.7587ZM17.9305 15.1442L17.4915 14.4419C17.7549 14.2663 18.0183 14.0908 18.2816 14.003L18.7205 14.7931C18.4572 14.7931 18.1938 14.9686 17.9305 15.1442ZM33.4685 14.3541C33.2051 14.2663 32.9418 14.0908 32.6784 14.003L33.0296 13.2129C33.2929 13.3007 33.5563 13.4763 33.8196 13.5641L33.4685 14.3541ZM20.2129 13.9152L19.8617 13.1251C20.1251 13.0373 20.3885 12.8618 20.7396 12.774L21.003 13.5641C20.7396 13.6518 20.4762 13.8274 20.2129 13.9152ZM31.0983 13.3885C30.8349 13.3007 30.5716 13.2129 30.3082 13.1251L30.5716 12.2473C30.8349 12.3351 31.1861 12.4228 31.4494 12.5106L31.0983 13.3885ZM22.6709 13.1251L22.4953 12.2473C22.7587 12.1595 23.1098 12.0717 23.3732 12.0717L23.5487 12.9496C23.1976 12.9496 22.9342 13.0373 22.6709 13.1251ZM28.5525 12.774C28.2891 12.774 28.0258 12.6862 27.6746 12.6862L27.7624 11.8083C28.0258 11.8083 28.3769 11.8961 28.6403 11.8961L28.5525 12.774ZM25.2167 12.6862L25.1289 11.8083C25.3922 11.8083 25.7434 11.8083 26.0067 11.8083V12.6862C25.7434 12.6862 25.48 12.6862 25.2167 12.6862Z" fill="black" fill-opacity="0.7"/>
<path d="M29.029 55.7883C28.7681 55.8582 28.5072 55.9281 28.2228 55.9105L23.8306 55.8679C22.235 55.8265 20.9901 54.6592 20.7654 53.1248L20.2319 49.0466C20.1078 48.2356 19.6359 47.5178 18.9099 47.2433C16.8188 46.3966 14.8313 45.2407 13.1448 43.8165C12.5458 43.3204 11.6694 43.18 10.9101 43.4773L7.11398 44.9635C5.68249 45.5346 4.0331 44.9448 3.19961 43.5734L1.05385 39.7397C0.307334 38.345 0.691352 36.6475 1.91863 35.662L5.17247 33.1955C5.79784 32.7465 6.13202 31.9066 6.00793 31.0956C5.81348 30.0221 5.79297 28.9019 5.77245 27.7818C5.75193 26.6616 5.9288 25.5824 6.08221 24.4157C6.24246 23.6223 5.92099 22.7704 5.23505 22.2976L2.01933 19.6885C0.821377 18.6963 0.462778 17.0101 1.31191 15.657L3.55834 11.8657C4.43092 10.6001 6.14676 10.0465 7.53525 10.7063L11.3226 12.318C12.072 12.68 12.8782 12.5578 13.4801 12.0213C15.2458 10.6102 17.1922 9.52579 19.3194 8.7682C20.0786 8.47097 20.5701 7.87026 20.7069 6.98937L21.2874 2.89413C21.5209 1.3307 22.8987 0.21111 24.3839 0.188354L28.7761 0.230909C30.3717 0.272371 31.6166 1.43966 31.8413 2.97409L32.4217 7.22731C32.5458 8.03829 33.0178 8.75606 33.7438 9.03054C35.8348 9.87729 37.7353 11.0565 39.5088 12.4574C40.1078 12.9535 40.9843 13.0938 41.7435 12.7966L45.5397 11.3104C46.9712 10.7392 48.6205 11.3291 49.454 12.7004L51.5998 16.5342C52.3463 17.9288 51.9623 19.6264 50.735 20.6119L47.4812 23.0784C46.8558 23.5273 46.5216 24.3673 46.6457 25.1783C46.8402 26.2518 46.8841 27.4595 46.8812 28.4921C46.8783 29.5247 46.7248 30.6915 46.548 31.7707C46.3877 32.564 46.7092 33.4159 47.3951 33.8888L50.6109 36.4978C51.8088 37.4901 52.1674 39.1762 51.3183 40.5294L48.9614 44.2564C48.1993 45.5863 46.4834 46.1398 45.008 45.5033L41.331 43.9559C40.5816 43.5939 39.6885 43.7394 39.1735 44.2526C37.4079 45.6637 35.4614 46.7481 33.3342 47.5057C32.575 47.8029 32.0835 48.4036 31.9467 49.2845L31.3428 53.2922C31.1024 54.4823 30.1595 55.4854 29.029 55.7883ZM11.0235 42.5089C11.9801 42.2526 13.0539 42.4338 13.7868 43.0817C15.4733 44.5058 17.2634 45.6208 19.331 46.3801C20.3648 46.7597 21.1045 47.7809 21.212 48.8778L21.7455 52.9559C21.8529 54.0528 22.8301 54.9166 23.944 54.8995L28.3362 54.9421C29.4501 54.925 30.353 54.1203 30.5298 53.0411L31.1337 49.0333C31.2871 47.8666 32.0561 46.9101 33.0763 46.543C35.1165 45.8087 36.976 44.7476 38.6547 43.3598C39.494 42.6659 40.7585 42.5147 41.8157 42.9818L45.603 44.5935C46.6603 45.0606 47.8543 44.6469 48.339 43.6728L50.5854 39.8815C51.1571 38.8841 50.9392 37.7231 50.0959 37.011L46.6427 34.5594C45.7125 33.8706 45.2972 32.6686 45.4741 31.5894C45.651 30.5102 45.7409 29.4543 45.7438 28.4216C45.7467 27.389 45.6393 26.2922 45.5318 25.1954C45.3139 24.0343 45.8621 22.9494 46.7014 22.2555L49.9553 19.789C50.7946 19.095 51.122 17.8817 50.5797 16.9014L48.4339 13.0676C47.8916 12.0873 46.6604 11.6667 45.6637 12.1214L41.8676 13.6076C40.784 14.0855 39.5997 13.8401 38.7564 13.128C37.0699 11.7038 35.2798 10.5888 33.2992 9.80629C32.2654 9.42667 31.5257 8.40543 31.4182 7.3086L30.8847 3.23041C30.7772 2.13358 29.8001 1.26976 28.6862 1.28683L24.294 1.24428C23.1801 1.26134 22.2772 2.06608 22.1003 3.14531L21.5199 7.24055C21.3665 8.4073 20.5975 9.36377 19.5774 9.73092C17.5371 10.4652 15.6777 11.5263 13.9755 12.8266C13.1361 13.5205 11.8717 13.6717 10.8145 13.2046L7.02714 11.5929C5.96989 11.1258 4.77584 11.5395 4.29118 12.5136L2.19523 16.1707C1.6236 17.1681 1.86495 18.4167 2.70821 19.1287L5.92393 21.7378C6.85415 22.4266 7.26942 23.6286 7.09256 24.7078C6.9157 25.787 6.8258 26.8429 6.82286 27.8755C6.81993 28.9082 6.90395 29.9175 7.01143 31.0143C7.22933 32.1754 6.68116 33.2603 5.8418 33.9542L2.58796 36.4207C1.7486 37.1146 1.42126 38.328 1.96356 39.3083L4.10932 43.1421C4.65162 44.1224 5.8828 44.5429 6.87947 44.0883L10.6756 42.6021C10.7626 42.5788 10.8495 42.5555 11.0235 42.5089Z" fill="#212529" stroke="#212529" stroke-width="0.2"/>
<path d="M30.1136 20.1251C28.7001 20.1251 27.3634 20.6231 26.303 21.5359C25.2426 20.6231 23.9059 20.1251 22.4924 20.1251C19.2678 20.1251 16.6437 22.7492 16.6437 25.9738C16.6437 27.5365 17.2522 29.0047 18.3566 30.1096L26.303 38.056L34.2494 30.1096C35.3538 29.0052 35.9623 27.5365 35.9623 25.9738C35.9623 22.7492 33.3382 20.1251 30.1136 20.1251ZM33.4906 29.3508L26.303 36.5384L19.1154 29.3508C18.2139 28.4488 17.7169 27.2494 17.7169 25.9738C17.7169 23.3406 19.8592 21.1984 22.4924 21.1984C23.768 21.1984 24.9673 21.6953 25.8694 22.5968L26.303 23.0304L26.7366 22.5968C27.6381 21.6953 28.838 21.1984 30.1136 21.1984C32.7468 21.1984 34.889 23.3406 34.889 25.9738C34.889 27.2494 34.3921 28.4488 33.4906 29.3508Z" fill="#93CB40" stroke="#93CB40" stroke-width="0.2"/>
</svg>
