<svg width="69" height="66" viewBox="0 0 69 66" fill="none" xmlns="http://www.w3.org/2000/svg">
<path d="M30.3732 59.4219C22.0096 59.4219 14.4163 55.9136 9.13397 50.3223C12.9856 42.4286 21.0191 37.0565 30.3732 37.0565C32.9043 37.0565 35.3254 37.495 37.6364 38.2625L38.0765 37.2757C36.866 36.8372 35.6555 36.5083 34.445 36.3987C38.8469 34.7542 41.9282 30.588 41.9282 25.6545C41.9282 19.2957 36.756 14.1429 30.3732 14.1429C23.9904 14.1429 18.8182 19.2957 18.8182 25.6545C18.8182 30.588 21.8995 34.7542 26.3014 36.3987C18.488 37.7143 11.7751 42.7575 8.36364 49.5548C3.85167 44.2924 1.10048 37.6047 1.10048 30.2591C1.10048 14.1429 14.1962 1.09635 30.3732 1.09635C46.5502 1.09635 59.6459 14.1429 59.6459 30.2591C59.6459 30.4784 59.6459 30.6977 59.6459 30.9169L60.7464 31.4651C60.7464 31.0266 60.7464 30.6977 60.7464 30.2591C60.7464 13.5947 47.1005 0 30.3732 0C13.6459 0 0 13.5947 0 30.2591C0 38.0432 2.97129 45.0598 7.8134 50.4319C8.03349 50.7608 8.36364 50.9801 8.58373 51.309C14.0861 57.01 21.7895 60.5183 30.3732 60.5183C32.9043 60.5183 35.4354 60.1894 37.7464 59.5316C37.6364 59.2027 37.4163 58.8738 37.3062 58.5449C35.1053 59.093 32.7943 59.4219 30.3732 59.4219ZM19.9187 25.4352C19.9187 19.7342 24.6507 15.0199 30.3732 15.0199C36.0957 15.0199 40.8277 19.7342 40.8277 25.4352C40.8277 31.1362 36.0957 35.8505 30.3732 35.8505C24.6507 35.8505 19.9187 31.2458 19.9187 25.4352ZM68.7799 48.0199C68.6699 46.9236 67.8995 46.1561 66.799 46.0465L64.378 45.8272C64.0478 45.8272 63.7177 45.608 63.4976 45.2791C62.9474 44.0731 62.177 42.8671 61.2966 41.8804C61.0765 41.6611 60.9665 41.2226 61.0765 40.8937L61.8469 38.5914C62.177 37.6047 61.7368 36.5083 60.7464 35.9601L60.0861 35.6312L59.0957 35.0831L58.4354 34.7542C57.445 34.3156 56.3445 34.6445 55.6842 35.5216L54.3636 37.495C54.1435 37.8239 53.8134 37.9336 53.4832 37.9336C52.1627 37.8239 50.7321 37.9336 49.4115 38.1528C49.0813 38.2625 48.6411 38.1528 48.421 37.8239L46.9904 36.1794C46.3301 35.412 45.1196 35.1927 44.2392 35.8505L42.0383 37.2757C41.5981 37.495 41.378 37.9336 41.2679 38.3721C41.2679 38.3721 41.0478 39.0299 41.1579 39.5781C41.1579 39.6877 41.2679 39.7973 41.2679 40.0166L42.3684 42.2093C42.5885 42.5382 42.4785 42.9767 42.2584 43.196C41.8182 43.7442 41.488 44.2924 41.1579 44.9502C40.8277 45.4983 40.6077 46.1562 40.3876 46.814C40.2775 47.1429 39.9474 47.4718 39.6172 47.4718L37.1962 47.9103C36.2057 48.1296 35.4354 49.1163 35.4354 50.103L35.5455 52.6246C35.6555 53.7209 36.4258 54.4884 37.5263 54.598L39.9474 54.8173C40.2775 54.8173 40.6076 55.0365 40.8277 55.3655C41.0478 55.9136 41.378 56.4618 41.7081 56.9003C41.9282 57.2292 42.1483 57.5581 42.3684 57.887C42.5885 58.2159 42.8086 58.4352 43.0287 58.7641C43.2488 58.9834 43.3588 59.4219 43.2488 59.7508L42.4785 62.0532C42.1483 63.0399 42.5885 64.1362 43.5789 64.6844L45.8899 65.7807C46.2201 65.8904 46.5502 66 46.8804 66C47.5407 66 48.201 65.6711 48.6411 65.0133L49.9617 63.0399C50.1818 62.711 50.512 62.6013 50.8421 62.6013C51.8325 62.711 52.7129 62.711 53.7033 62.6013C54.0335 62.6013 54.4737 62.4917 54.8038 62.3821C55.134 62.2724 55.5742 62.3821 55.7943 62.711L57.3349 64.4651C57.9952 65.2326 59.2057 65.4518 60.0861 64.794L62.2871 63.3688C63.1675 62.8206 63.4976 61.6146 63.0574 60.6279L61.9569 58.4352C61.7368 58.1063 61.8469 57.6678 62.067 57.4485C62.5072 56.9003 62.8373 56.3522 63.0574 55.804C63.3876 55.2558 63.6076 54.598 63.8277 53.9402C63.9378 53.6113 64.2679 53.2824 64.5981 53.2824L67.0191 52.8439C68.0096 52.6246 68.7799 51.6379 68.7799 50.6512V48.0199ZM67.1292 51.7475L64.7081 52.186C63.9378 52.2957 63.2775 52.8439 63.0574 53.6113C62.8373 54.1595 62.6172 54.8173 62.3971 55.2558C62.177 55.804 61.8469 56.3522 61.4067 56.7907C60.9665 57.4485 60.8565 58.2159 61.1866 58.9834L62.2871 61.1761C62.5072 61.6146 62.3971 62.1628 61.9569 62.4917L59.756 63.9169C59.3158 64.2458 58.7655 64.1362 58.4354 63.6977L56.8947 61.9435C56.4545 61.3954 55.7943 61.1761 55.134 61.2857C55.0239 61.2857 54.9139 61.2857 54.9139 61.2857C54.5837 61.3954 54.3636 61.3953 54.0335 61.505C53.0431 61.6146 52.1627 61.7243 51.1722 61.6146C50.4019 61.505 49.6316 61.9435 49.1914 62.4917L47.8708 64.4651C47.5407 64.9037 46.9904 65.0133 46.5502 64.794L44.2392 63.6977C43.799 63.4784 43.5789 62.9302 43.689 62.4917L44.4593 60.1894C44.6794 59.4219 44.5694 58.6545 44.0191 58.1063C43.799 57.887 43.689 57.7774 43.5789 57.5581C43.3588 57.2292 43.1388 57.01 42.9187 56.6811C42.5885 56.1329 42.2584 55.5847 42.0383 55.0365C41.7081 54.3787 41.0478 53.8306 40.2775 53.8306L37.8565 53.6113C37.3062 53.6113 36.9761 53.1728 36.866 52.6246L36.756 50.103C36.756 49.5548 37.0861 49.1163 37.6364 49.0066L40.0574 48.5681C40.8277 48.4585 41.488 47.9103 41.7081 47.1429C41.9282 46.5947 42.1483 46.0465 42.3684 45.4983C42.5885 44.9502 42.9187 44.402 43.3588 43.9635C43.799 43.3056 43.9091 42.5382 43.5789 41.7708L43.0287 40.5648L42.2584 39.4684C42.1483 39.2492 42.1483 39.0299 42.1483 38.8106C42.1483 38.5914 42.3684 38.2625 42.5885 38.1528L44.7895 36.7276C45.0096 36.6179 45.1196 36.5083 45.3397 36.5083C45.6699 36.5083 45.8899 36.6179 46.11 36.8372L47.7608 38.701C48.311 39.2492 49.0813 39.5781 49.8517 39.3588C51.0622 39.0299 52.2727 39.0299 53.4832 39.1395C54.2536 39.2492 55.0239 38.8106 55.4641 38.2625L56.7847 36.289C57.1148 35.8505 57.6651 35.7409 58.1053 35.9601L59.0957 36.3987L60.0861 36.9468L60.4163 37.1661C60.8565 37.3854 61.0765 37.9336 60.9665 38.3721L60.0861 40.5648C59.866 41.3322 59.9761 42.0997 60.5263 42.6478C61.4067 43.5249 62.067 44.6213 62.6172 45.7176C62.9474 46.3754 63.6076 46.9236 64.378 46.9236L66.799 47.1429C67.3493 47.1429 67.6794 47.5814 67.7895 48.1296L68.0096 50.6512C67.8995 51.1993 67.5694 51.6379 67.1292 51.7475Z" fill="#212529"/>
<path d="M61.6796 49.0124C61.7368 49.3492 61.7756 49.6923 61.795 50.0405L61.2957 50.0682C61.3047 50.2303 61.3093 50.3935 61.3093 50.5579C61.3093 50.7222 61.3047 50.8855 61.2957 51.0475L61.795 51.0752C61.7756 51.4234 61.7368 51.7665 61.6796 52.1033L61.1867 52.0197C61.1317 52.3438 61.0587 52.6618 60.9688 52.9726L61.4491 53.1115C61.3527 53.4448 61.2379 53.7704 61.1059 54.087L60.6444 53.8946C60.5184 54.1967 60.3757 54.4903 60.2176 54.7743L60.6544 55.0176C60.4861 55.3197 60.3013 55.6114 60.1011 55.8914L59.6943 55.6007C59.5044 55.8664 59.2998 56.1211 59.0817 56.3635L59.4535 56.6979C59.2229 56.9544 58.978 57.1979 58.7201 57.4272L58.3878 57.0535C58.1443 57.2702 57.8884 57.4734 57.6215 57.662L57.9101 58.0703C57.6291 58.2689 57.3365 58.4523 57.0334 58.6192L56.7922 58.1812C56.5075 58.338 56.2132 58.4794 55.9103 58.6043L56.1009 59.0665C55.7838 59.1973 55.4579 59.3109 55.1242 59.4064L54.9867 58.9256C54.6755 59.0147 54.3572 59.0869 54.0327 59.1413L54.1154 59.6345C53.7785 59.691 53.4354 59.7293 53.0872 59.7485L53.0597 59.2492C52.8976 59.2582 52.7342 59.2627 52.5698 59.2627C52.4053 59.2627 52.242 59.2582 52.0799 59.2492L52.0524 59.7485C51.7042 59.7293 51.3611 59.691 51.0242 59.6345L51.1069 59.1413C50.7824 59.0869 50.464 59.0147 50.1528 58.9256L50.0154 59.4064C49.6817 59.3109 49.3557 59.1973 49.0387 59.0665L49.2293 58.6043C48.9264 58.4794 48.632 58.338 48.3474 58.1812L48.1061 58.6192C47.8031 58.4523 47.5105 58.2689 47.2295 58.0703L47.518 57.662C47.2511 57.4734 46.9953 57.2702 46.7517 57.0535L46.4195 57.4272C46.1616 57.1979 45.9167 56.9544 45.6861 56.6979L46.0578 56.3635C45.8398 56.1211 45.6352 55.8664 45.4453 55.6007L45.0385 55.8914C44.8383 55.6114 44.6535 55.3197 44.4852 55.0176L44.922 54.7743C44.7639 54.4903 44.6212 54.1967 44.4952 53.8946L44.0337 54.087C43.9017 53.7704 43.7869 53.4448 43.6905 53.1115L44.1708 52.9726C44.0809 52.6618 44.0079 52.3438 43.9529 52.0197L43.4599 52.1033C43.4028 51.7665 43.364 51.4234 43.3446 51.0752L43.8438 51.0475C43.8348 50.8855 43.8303 50.7222 43.8303 50.5579C43.8303 50.3935 43.8348 50.2303 43.8438 50.0682L43.3446 50.0405C43.364 49.6923 43.4028 49.3492 43.4599 49.0124L43.9529 49.096C44.0079 48.7719 44.0809 48.4539 44.1708 48.1431L43.6905 48.0042C43.7869 47.6709 43.9017 47.3453 44.0337 47.0287L44.4952 47.2212C44.6212 46.919 44.7639 46.6254 44.922 46.3414L44.4852 46.0981C44.6535 45.796 44.8383 45.5043 45.0385 45.2243L45.4453 45.515C45.6352 45.2493 45.8398 44.9946 46.0578 44.7522L45.6861 44.4178C45.9167 44.1613 46.1616 43.9178 46.4195 43.6885L46.7517 44.0622C46.9953 43.8456 47.2511 43.6423 47.518 43.4537L47.2295 43.0454C47.5105 42.8468 47.8031 42.6634 48.1061 42.4965L48.3474 42.9345C48.632 42.7777 48.9264 42.6363 49.2293 42.5114L49.0387 42.0492C49.3557 41.9184 49.6817 41.8048 50.0154 41.7093L50.1528 42.1901C50.464 42.1011 50.7824 42.0288 51.1069 41.9744L51.0242 41.4812C51.3611 41.4247 51.7042 41.3864 52.0524 41.3672L52.0799 41.8665C52.242 41.8575 52.4053 41.853 52.5698 41.853C52.7342 41.853 52.8976 41.8575 53.0597 41.8665L53.0872 41.3672C53.4354 41.3864 53.7785 41.4247 54.1154 41.4813L54.0327 41.9744C54.3572 42.0288 54.6755 42.1011 54.9867 42.1901L55.1242 41.7093C55.4579 41.8048 55.7838 41.9184 56.1009 42.0492L55.9103 42.5114C56.2132 42.6363 56.5076 42.7777 56.7922 42.9345L57.0334 42.4965C57.3365 42.6634 57.6291 42.8468 57.9101 43.0454L57.6215 43.4537C57.8884 43.6423 58.1443 43.8456 58.3878 44.0622L58.7201 43.6885C58.978 43.9178 59.2229 44.1613 59.4535 44.4178L59.0817 44.7522C59.2998 44.9946 59.5044 45.2493 59.6943 45.515L60.1011 45.2243C60.3013 45.5043 60.4861 45.796 60.6544 46.0981L60.2176 46.3414C60.3757 46.6254 60.5184 46.919 60.6444 47.2212L61.1059 47.0287C61.2379 47.3453 61.3527 47.6709 61.4491 48.0042L60.9688 48.1431C61.0587 48.4539 61.1317 48.7719 61.1867 49.096L61.6796 49.0124Z" stroke="#93CB40" stroke-dasharray="1 1"/>
<path d="M61.6796 49.0124C61.7367 49.3492 61.7755 49.6923 61.7949 50.0405L61.2957 50.0682C61.3047 50.2303 61.3092 50.3935 61.3092 50.5579C61.3092 50.7222 61.3047 50.8855 61.2957 51.0475L61.7949 51.0752C61.7755 51.4234 61.7367 51.7665 61.6796 52.1033L61.1866 52.0197C61.1316 52.3438 61.0586 52.6618 60.9687 52.9726L61.449 53.1115C61.3526 53.4448 61.2378 53.7704 61.1058 54.087L60.6443 53.8946C60.5183 54.1967 60.3757 54.4903 60.2175 54.7743L60.6543 55.0176C60.486 55.3197 60.3012 55.6114 60.101 55.8914L59.6942 55.6007C59.5043 55.8664 59.2997 56.1211 59.0817 56.3635L59.4534 56.6979C59.2228 56.9544 58.9779 57.1979 58.72 57.4272L58.3878 57.0535C58.1442 57.2702 57.8884 57.4734 57.6215 57.662L57.9101 58.0703C57.629 58.2689 57.3364 58.4523 57.0334 58.6192L56.7922 58.1812C56.5075 58.338 56.2131 58.4794 55.9102 58.6043L56.1008 59.0665C55.7838 59.1973 55.4578 59.3109 55.1242 59.4064L54.9867 58.9256C54.6755 59.0147 54.3571 59.0869 54.0326 59.1413L54.1153 59.6345C53.7784 59.691 53.4353 59.7293 53.0871 59.7485L53.0596 59.2492C52.8975 59.2582 52.7342 59.2627 52.5697 59.2627C52.4053 59.2627 52.2419 59.2582 52.0798 59.2492L52.0523 59.7485C51.7041 59.7293 51.361 59.691 51.0241 59.6345L51.1068 59.1413C50.7824 59.0869 50.464 59.0147 50.1528 58.9256L50.0153 59.4064C49.6816 59.3109 49.3557 59.1973 49.0386 59.0665L49.2292 58.6043C48.9263 58.4794 48.632 58.338 48.3473 58.1812L48.1061 58.6192C47.803 58.4523 47.5104 58.2689 47.2294 58.0703L47.518 57.662C47.2511 57.4734 46.9953 57.2702 46.7517 57.0535L46.4194 57.4272C46.1615 57.1979 45.9167 56.9544 45.686 56.6979L46.0578 56.3635C45.8397 56.1211 45.6351 55.8664 45.4452 55.6007L45.0384 55.8914C44.8382 55.6114 44.6534 55.3197 44.4851 55.0176L44.9219 54.7743C44.7638 54.4903 44.6212 54.1967 44.4951 53.8946L44.0337 54.087C43.9016 53.7704 43.7868 53.4448 43.6904 53.1115L44.1707 52.9726C44.0808 52.6618 44.0078 52.3438 43.9528 52.0197L43.4599 52.1033C43.4027 51.7665 43.3639 51.4234 43.3445 51.0752L43.8438 51.0475C43.8348 50.8855 43.8302 50.7222 43.8302 50.5579C43.8302 50.3935 43.8348 50.2303 43.8438 50.0682L43.3445 50.0405C43.3639 49.6923 43.4027 49.3492 43.4599 49.0124L43.9528 49.096C44.0078 48.7719 44.0808 48.4539 44.1707 48.1431L43.6904 48.0042C43.7868 47.6709 43.9016 47.3453 44.0337 47.0287L44.4951 47.2212C44.6212 46.919 44.7638 46.6254 44.9219 46.3414L44.4851 46.0981C44.6534 45.796 44.8382 45.5043 45.0384 45.2243L45.4452 45.515C45.6351 45.2493 45.8397 44.9946 46.0578 44.7522L45.686 44.4178C45.9167 44.1613 46.1615 43.9178 46.4194 43.6885L46.7517 44.0622C46.9953 43.8456 47.2511 43.6423 47.518 43.4537L47.2294 43.0454C47.5104 42.8468 47.803 42.6634 48.1061 42.4965L48.3473 42.9345C48.632 42.7777 48.9263 42.6363 49.2292 42.5114L49.0386 42.0492C49.3557 41.9184 49.6816 41.8048 50.0153 41.7093L50.1528 42.1901C50.464 42.1011 50.7824 42.0288 51.1068 41.9744L51.0241 41.4812C51.361 41.4247 51.7041 41.3864 52.0523 41.3672L52.0798 41.8665C52.2419 41.8575 52.4053 41.853 52.5697 41.853C52.7342 41.853 52.8975 41.8575 53.0596 41.8665L53.0871 41.3672C53.4353 41.3864 53.7784 41.4247 54.1153 41.4813L54.0326 41.9744C54.3571 42.0288 54.6755 42.1011 54.9867 42.1901L55.1242 41.7093C55.4578 41.8048 55.7838 41.9184 56.1008 42.0492L55.9102 42.5114C56.2131 42.6363 56.5075 42.7777 56.7922 42.9345L57.0334 42.4965C57.3364 42.6634 57.629 42.8468 57.9101 43.0454L57.6215 43.4537C57.8884 43.6423 58.1442 43.8456 58.3878 44.0622L58.72 43.6885C58.9779 43.9178 59.2228 44.1613 59.4534 44.4178L59.0817 44.7522C59.2997 44.9946 59.5043 45.2493 59.6942 45.515L60.101 45.2243C60.3012 45.5043 60.486 45.796 60.6543 46.0981L60.2175 46.3414C60.3757 46.6254 60.5183 46.919 60.6443 47.2212L61.1058 47.0287C61.2378 47.3453 61.3526 47.6709 61.449 48.0042L60.9687 48.1431C61.0586 48.4539 61.1316 48.7719 61.1866 49.096L61.6796 49.0124Z" stroke="#93CB40" stroke-dasharray="1 1"/>
</svg>
