<svg width="65" height="65" viewBox="0 0 65 65" fill="none" xmlns="http://www.w3.org/2000/svg">
<path d="M39.3125 20.6221L25.9296 27.1076" stroke="#93CB40" stroke-miterlimit="10" stroke-dasharray="1 1"/>
<path d="M38.6294 45.6249L25.7196 39.3179" stroke="#93CB40" stroke-miterlimit="10" stroke-dasharray="1 1"/>
<path fill-rule="evenodd" clip-rule="evenodd" d="M36.7891 13.8914C36.7891 6.34945 42.9417 0.196777 50.4837 0.196777C58.0257 0.196777 64.0791 6.34945 64.1784 13.8914C64.1784 17.8609 62.3921 21.5327 59.6135 24.0136C59.4646 24.1128 59.3158 24.2369 59.1669 24.3609C59.0181 24.4849 58.8692 24.609 58.7204 24.7082C56.4379 26.4945 53.5601 27.4869 50.4837 27.4869C47.4074 27.4869 44.5295 26.3953 42.2471 24.7082C41.9494 24.5098 41.6517 24.3113 41.3539 24.0136C38.5753 21.5327 36.7891 17.9601 36.7891 13.8914ZM42.8429 22.7544C44.0793 19.7248 47.0321 17.5632 50.4837 17.5632C53.8979 17.5632 56.824 19.6782 58.0837 22.6562C58.3368 22.4355 58.5803 22.2041 58.8135 21.9627C57.6784 19.6265 55.6029 17.7674 53.0639 17.067C54.9494 16.1739 56.2394 14.1891 56.2394 11.9067C56.2394 8.73113 53.6593 6.15098 50.4837 6.15098C47.3081 6.15098 44.728 8.73113 44.728 11.9067C44.728 14.0899 46.0181 16.0746 47.8043 16.9678C45.1812 17.6673 43.0974 19.5224 41.9601 21.9222C42.2398 22.2145 42.5345 22.4923 42.8429 22.7544ZM56.9481 2.97064C55.0357 1.80608 52.7911 1.1238 50.3845 1.08991C43.3387 1.08991 37.6822 6.84563 37.6822 13.7922C37.6822 17.0445 38.9159 20.0502 40.934 22.2849C43.2577 24.8905 46.6404 26.5312 50.4062 26.5312C57.4134 26.5312 63.0938 20.8509 63.0938 13.8438C63.0938 9.22984 60.6309 5.19116 56.9481 2.97064ZM50.583 7.14334C47.9036 7.14334 45.8196 9.32655 45.8196 11.9067C45.8196 14.5861 48.0028 16.6701 50.583 16.6701C53.2623 16.6701 55.3463 14.4869 55.3463 11.9067C55.3463 9.22731 53.1631 7.14334 50.583 7.14334Z" fill="#212529"/>
<path fill-rule="evenodd" clip-rule="evenodd" d="M0.601562 32.8914C0.601562 25.3494 6.75423 19.1968 14.2962 19.1968C21.8382 19.1968 27.8916 25.3494 27.9909 32.8914C27.9909 36.8609 26.2046 40.5327 23.426 43.0136C23.2771 43.1128 23.1283 43.2369 22.9794 43.3609C22.8306 43.4849 22.6817 43.609 22.5329 43.7082C20.2504 45.4945 17.3726 46.4869 14.2962 46.4869C11.2199 46.4869 8.34202 45.3953 6.05958 43.7082C5.76187 43.5098 5.46416 43.3113 5.16645 43.0136C2.38782 40.5327 0.601562 36.9601 0.601562 32.8914ZM6.65544 41.7544C7.89182 38.7248 10.8446 36.5632 14.2962 36.5632C17.7104 36.5632 20.6365 38.6782 21.8962 41.6562C22.1493 41.4355 22.3928 41.2041 22.626 40.9627C21.4909 38.6265 19.4154 36.7674 16.8764 36.067C18.7619 35.1739 20.0519 33.1891 20.0519 30.9067C20.0519 27.7311 17.4718 25.151 14.2962 25.151C11.1206 25.151 8.54049 27.7311 8.54049 30.9067C8.54049 33.0899 9.83057 35.0746 11.6168 35.9678C8.99371 36.6673 6.90988 38.5224 5.77262 40.9222C6.05228 41.2145 6.34697 41.4923 6.65544 41.7544ZM20.7606 21.9706C18.8482 20.8061 16.6036 20.1238 14.197 20.0899C7.15118 20.0899 1.49469 25.8456 1.49469 32.7922C1.49469 36.0445 2.72839 39.0502 4.74653 41.2849C7.07017 43.8905 10.4529 45.5312 14.2188 45.5312C21.2259 45.5312 26.9062 39.8509 26.9062 32.8438C26.9062 28.2298 24.4434 24.1912 20.7606 21.9706ZM14.3955 26.1433C11.7161 26.1433 9.6321 28.3265 9.6321 30.9067C9.6321 33.5861 11.8153 35.6701 14.3955 35.6701C17.0748 35.6701 19.1588 33.4869 19.1588 30.9067C19.1588 28.2273 16.9756 26.1433 14.3955 26.1433Z" fill="#212529"/>
<path fill-rule="evenodd" clip-rule="evenodd" d="M36.7266 51.3914C36.7266 43.8494 42.8792 37.6968 50.4212 37.6968C57.9632 37.6968 64.0166 43.8494 64.1159 51.3914C64.1159 55.3609 62.3296 59.0327 59.551 61.5136C59.4021 61.6128 59.2533 61.7369 59.1044 61.8609C58.9556 61.9849 58.8067 62.109 58.6579 62.2082C56.3754 63.9945 53.4976 64.9869 50.4212 64.9869C47.3449 64.9869 44.467 63.8953 42.1846 62.2082C41.8869 62.0098 41.5892 61.8113 41.2914 61.5136C38.5128 59.0327 36.7266 55.4601 36.7266 51.3914ZM42.7804 60.2544C44.0168 57.2248 46.9696 55.0632 50.4212 55.0632C53.8354 55.0632 56.7615 57.1782 58.0212 60.1562C58.2743 59.9355 58.5178 59.7041 58.751 59.4627C57.6159 57.1265 55.5404 55.2674 53.0014 54.567C54.8869 53.6739 56.1769 51.6891 56.1769 49.4067C56.1769 46.2311 53.5968 43.651 50.4212 43.651C47.2456 43.651 44.6655 46.2311 44.6655 49.4067C44.6655 51.5899 45.9556 53.5746 47.7418 54.4678C45.1187 55.1673 43.0349 57.0224 41.8976 59.4222C42.1773 59.7145 42.472 59.9923 42.7804 60.2544ZM56.8856 40.4706C54.9732 39.3061 52.7286 38.6238 50.322 38.5899C43.2762 38.5899 37.6197 44.3456 37.6197 51.2922C37.6197 54.5445 38.8534 57.5502 40.8715 59.7849C43.1952 62.3905 46.5779 64.0312 50.3438 64.0312C57.3509 64.0312 63.0312 58.3509 63.0312 51.3438C63.0312 46.7298 60.5684 42.6912 56.8856 40.4706ZM50.5205 44.6433C47.8411 44.6433 45.7571 46.8265 45.7571 49.4067C45.7571 52.0861 47.9403 54.1701 50.5205 54.1701C53.1998 54.1701 55.2838 51.9869 55.2838 49.4067C55.2838 46.7273 53.1006 44.6433 50.5205 44.6433Z" fill="#212529"/>
</svg>
