<svg width="68" height="67" viewBox="0 0 68 67" fill="none" xmlns="http://www.w3.org/2000/svg">
<path d="M60.4215 65.6694H7.44961C3.89023 65.6694 0.958984 62.1767 0.958984 57.9356V14.1526V8.28991C0.958984 4.04882 3.89023 0.556152 7.44961 0.556152H60.4215C63.9809 0.556152 66.9121 4.04882 66.9121 8.28991V57.9356C66.9121 62.1767 63.9809 65.6694 60.4215 65.6694Z" stroke="#212529" stroke-miterlimit="10"/>
<path d="M66.9121 14.4194H0.958984" stroke="#212529" stroke-miterlimit="10"/>
<path d="M8.18237 10.1008C9.62781 10.1008 10.7996 8.92261 10.7996 7.46923C10.7996 6.01584 9.62781 4.83765 8.18237 4.83765C6.73694 4.83765 5.56519 6.01584 5.56519 7.46923C5.56519 8.92261 6.73694 10.1008 8.18237 10.1008Z" fill="#93CB40"/>
<path d="M17.0808 10.1008C18.5262 10.1008 19.698 8.92261 19.698 7.46923C19.698 6.01584 18.5262 4.83765 17.0808 4.83765C15.6354 4.83765 14.4636 6.01584 14.4636 7.46923C14.4636 8.92261 15.6354 10.1008 17.0808 10.1008Z" fill="#93CB40"/>
<path d="M25.9792 10.1008C27.4247 10.1008 28.5964 8.92261 28.5964 7.46923C28.5964 6.01584 27.4247 4.83765 25.9792 4.83765C24.5338 4.83765 23.3621 6.01584 23.3621 7.46923C23.3621 8.92261 24.5338 10.1008 25.9792 10.1008Z" fill="#93CB40"/>
<path d="M16.1887 38.4617L15.8499 38.0941L15.4616 38.452L15.8401 38.8201L16.1887 38.4617ZM24.6609 29.9729L15.8499 38.0941L16.5276 38.8294L25.3386 30.7082L24.6609 29.9729ZM15.8401 38.8201L24.6511 47.3907L25.3484 46.6739L16.5373 38.1033L15.8401 38.8201Z" fill="#7ACC00"/>
<path d="M52.0709 38.4617L52.4098 38.0941L52.7981 38.452L52.4196 38.8201L52.0709 38.4617ZM43.5987 29.9729L52.4098 38.0941L51.7321 38.8294L42.921 30.7082L43.5987 29.9729ZM52.4196 38.8201L43.6085 47.3907L42.9113 46.6739L51.7223 38.1033L52.4196 38.8201Z" fill="#7ACC00"/>
<path d="M38.1775 30.0151L30.6938 47.3901" stroke="#7ACC00"/>
</svg>
