<svg width="68" height="57" viewBox="0 0 68 57" fill="none" xmlns="http://www.w3.org/2000/svg">
<path d="M60.4215 55.5562H7.44961C3.89023 55.5562 0.958984 52.606 0.958984 49.0236V12.0408V7.08872C0.958984 3.50634 3.89023 0.556152 7.44961 0.556152H60.4215C63.9809 0.556152 66.9121 3.50634 66.9121 7.08872V49.0236C66.9121 52.606 63.9809 55.5562 60.4215 55.5562Z" stroke="#212529" stroke-miterlimit="10"/>
<path d="M66.9121 14.4194H0.958984" stroke="#212529" stroke-miterlimit="10"/>
<path d="M8.18237 10.1008C9.62781 10.1008 10.7996 8.92261 10.7996 7.46923C10.7996 6.01584 9.62781 4.83765 8.18237 4.83765C6.73694 4.83765 5.56519 6.01584 5.56519 7.46923C5.56519 8.92261 6.73694 10.1008 8.18237 10.1008Z" fill="#93CB40"/>
<path d="M17.0808 10.1008C18.5262 10.1008 19.698 8.92261 19.698 7.46923C19.698 6.01584 18.5262 4.83765 17.0808 4.83765C15.6354 4.83765 14.4636 6.01584 14.4636 7.46923C14.4636 8.92261 15.6354 10.1008 17.0808 10.1008Z" fill="#93CB40"/>
<path d="M25.9792 10.1008C27.4247 10.1008 28.5964 8.92261 28.5964 7.46923C28.5964 6.01584 27.4247 4.83765 25.9792 4.83765C24.5338 4.83765 23.3621 6.01584 23.3621 7.46923C23.3621 8.92261 24.5338 10.1008 25.9792 10.1008Z" fill="#93CB40"/>
<path d="M16.1887 34.4617L15.8499 34.0941L15.4616 34.452L15.8401 34.8201L16.1887 34.4617ZM24.6609 25.9729L15.8499 34.0941L16.5276 34.8294L25.3386 26.7082L24.6609 25.9729ZM15.8401 34.8201L24.6511 43.3907L25.3484 42.6739L16.5373 34.1033L15.8401 34.8201Z" fill="#93CB40"/>
<path d="M52.0709 34.4617L52.4098 34.0941L52.7981 34.452L52.4196 34.8201L52.0709 34.4617ZM43.5987 25.9729L52.4098 34.0941L51.7321 34.8294L42.921 26.7082L43.5987 25.9729ZM52.4196 34.8201L43.6085 43.3907L42.9113 42.6739L51.7223 34.1033L52.4196 34.8201Z" fill="#93CB40"/>
<path d="M38.1775 26.0151L30.6938 43.3901" stroke="#93CB40"/>
</svg>
