<svg width="67" height="67" viewBox="0 0 67 67" fill="none" xmlns="http://www.w3.org/2000/svg">
<path d="M63.2253 29.7543C61.6526 17.515 52.8451 7.70236 41.3114 4.53701H54.313C54.5227 5.48661 55.3615 6.11969 56.3052 6.11969C57.4585 6.11969 58.4022 5.17008 58.4022 4.00945C58.4022 2.84882 57.4585 1.89921 56.3052 1.89921C55.3615 1.89921 54.5227 2.53228 54.313 3.48189H37.4319C37.1174 1.47717 35.4397 0 33.4476 0C31.4554 0 29.7778 1.47717 29.5681 3.48189H12.5822C12.3725 2.53228 11.5336 1.89921 10.59 1.89921C9.43662 1.89921 8.49296 2.84882 8.49296 4.00945C8.49296 5.17008 9.43662 6.11969 10.59 6.11969C11.5336 6.11969 12.3725 5.48661 12.5822 4.53701H25.5837C14.0501 7.70236 5.24257 17.6205 3.6698 29.7543H0V37.6677H3.6698C5.45227 51.1732 16.0423 61.8299 29.4632 63.6236V66.8945H37.3271V63.6236C50.748 61.8299 61.338 51.1732 63.1205 37.6677H66.7903V29.7543H63.2253ZM56.41 2.95433C57.0391 2.95433 57.4585 3.37638 57.4585 4.00945C57.4585 4.64252 57.0391 5.06457 56.41 5.06457C55.7809 5.06457 55.3615 4.64252 55.3615 4.00945C55.3615 3.37638 55.7809 2.95433 56.41 2.95433ZM10.59 5.06457C9.96088 5.06457 9.54147 4.64252 9.54147 4.00945C9.54147 3.37638 9.96088 2.95433 10.59 2.95433C11.2191 2.95433 11.6385 3.37638 11.6385 4.00945C11.6385 4.64252 11.1142 5.06457 10.59 5.06457ZM30.6166 3.5874V3.48189C30.8263 2.11024 32.0845 1.05512 33.4476 1.05512C34.9155 1.05512 36.0689 2.11024 36.2786 3.48189V3.5874C36.2786 3.69291 36.2786 3.79843 36.2786 4.00945C36.2786 4.22047 36.2786 4.32598 36.1737 4.53701V4.64252C35.8591 5.90866 34.7058 6.85827 33.3427 6.85827C31.9797 6.85827 30.8263 5.90866 30.5117 4.64252V4.53701C30.5117 4.32598 30.4069 4.22047 30.4069 4.00945C30.6166 3.79843 30.6166 3.69291 30.6166 3.5874ZM1.04851 36.6126V30.8095H6.81534V36.6126H1.04851ZM36.3834 65.9449H30.6166V60.1417H36.3834V65.9449ZM37.4319 62.5685V58.9811H29.5681V62.5685C16.6714 60.7748 6.50078 50.5402 4.71831 37.6677H7.86385V29.7543H4.71831C6.50078 16.7764 16.7762 6.54173 29.5681 4.74803C29.9875 6.54173 31.5602 7.91339 33.4476 7.91339C35.3349 7.91339 36.9077 6.54173 37.3271 4.74803C50.2238 6.43622 60.3944 16.7764 62.1768 29.6488H59.0313V37.5622H62.1768C60.3944 50.5402 50.2238 60.7748 37.4319 62.5685ZM65.9515 36.6126H60.1847V30.8095H65.9515V36.6126Z" fill="#212529"/>
<path d="M36.5931 13.5055C36.4883 13.2945 36.3834 13.189 36.1737 13.189H30.8263C30.6166 13.189 30.5117 13.2945 30.4069 13.5055L20.2363 37.4567C20.1314 37.5622 20.2363 37.7732 20.2363 37.8787L25.1643 47.9024C24.2206 49.8016 22.7527 52.7559 22.6479 53.0724C22.543 53.1779 22.543 53.389 22.6479 53.4945C22.7527 53.7055 22.8576 53.811 23.0673 53.811H44.0375C44.2473 53.811 44.457 53.7055 44.457 53.6C44.5618 53.389 44.5618 53.2835 44.3521 53.0724C44.2472 52.8614 42.7793 49.9071 41.8357 47.9024L46.7637 37.8787C46.8685 37.7732 46.8685 37.5622 46.7637 37.4567L36.5931 13.5055ZM33.9718 35.2409C35.23 35.452 36.0688 36.5071 36.0688 37.7732C36.0688 39.0394 35.1252 40.0945 33.9718 40.3055C33.867 40.3055 33.6573 40.3055 33.5524 40.3055C33.3427 40.3055 33.2379 40.3055 33.133 40.3055C31.8748 40.0945 31.036 39.0394 31.036 37.7732C31.036 36.5071 31.9796 35.452 33.133 35.2409C33.2379 35.2409 33.4476 35.2409 33.5524 35.2409C33.6573 35.2409 33.7621 35.2409 33.9718 35.2409ZM43.1987 52.8614H23.6964C24.0109 52.1228 24.7449 50.8567 25.8983 48.3244H40.892C42.2551 50.8567 42.8842 52.1228 43.1987 52.8614ZM40.9969 47.3748H26.0031L21.18 37.5622L31.1408 14.1386H33.0282V34.3968C31.2457 34.6079 29.9875 36.085 29.9875 37.8787C29.9875 39.6724 31.3505 41.1496 33.0282 41.3606C33.133 41.3606 33.3427 41.3606 33.4476 41.3606C33.6573 41.3606 33.7621 41.3606 33.867 41.3606C35.6494 41.1496 36.9077 39.6724 36.9077 37.8787C36.9077 36.085 35.5446 34.6079 33.867 34.3968V14.1386H35.7543L45.7152 37.5622L40.9969 47.3748Z" fill="#93CB40"/>
</svg>
