<svg width="68" height="68" viewBox="0 0 68 68" fill="none" xmlns="http://www.w3.org/2000/svg">
<g clip-path="url(#clip0)">
<path d="M63.7261 31.4507C62.1533 19.375 53.3458 9.69361 41.8122 6.57058H54.8137C55.0234 7.50749 55.8622 8.13209 56.8059 8.13209C57.9593 8.13209 58.9029 7.19518 58.9029 6.05007C58.9029 4.90496 57.9593 3.96806 56.8059 3.96806C55.8622 3.96806 55.0234 4.59266 54.8137 5.52957H37.9327C37.6181 3.55165 35.9405 2.09424 33.9483 2.09424C31.9561 2.09424 30.2785 3.55165 30.0688 5.52957H13.0829C12.8732 4.59266 12.0344 3.96806 11.0907 3.96806C9.93735 3.96806 8.99369 4.90496 8.99369 6.05007C8.99369 7.19518 9.93735 8.13209 11.0907 8.13209C12.0344 8.13209 12.8732 7.50749 13.0829 6.57058H26.0845C14.5508 9.69361 5.7433 19.4791 4.17053 31.4507H0.500732V39.2583H4.17053C5.953 52.5832 16.543 63.0974 29.964 64.8671V68.0942H37.8278V64.8671C51.2488 63.0974 61.8388 52.5832 63.6212 39.2583H67.291V31.4507H63.7261ZM56.9107 5.00906C57.5398 5.00906 57.9593 5.42547 57.9593 6.05007C57.9593 6.67468 57.5398 7.09108 56.9107 7.09108C56.2816 7.09108 55.8622 6.67468 55.8622 6.05007C55.8622 5.42547 56.2816 5.00906 56.9107 5.00906ZM11.0907 7.09108C10.4616 7.09108 10.0422 6.67468 10.0422 6.05007C10.0422 5.42547 10.4616 5.00906 11.0907 5.00906C11.7198 5.00906 12.1392 5.42547 12.1392 6.05007C12.1392 6.67468 11.615 7.09108 11.0907 7.09108ZM31.1173 5.63367V5.52957C31.327 4.17626 32.5852 3.13525 33.9483 3.13525C35.4162 3.13525 36.5696 4.17626 36.7793 5.52957V5.63367C36.7793 5.73777 36.7793 5.84187 36.7793 6.05007C36.7793 6.25828 36.7793 6.36238 36.6744 6.57058V6.67468C36.3599 7.92389 35.2065 8.8608 33.8435 8.8608C32.4804 8.8608 31.327 7.92389 31.0125 6.67468V6.57058C31.0125 6.36238 30.9076 6.25828 30.9076 6.05007C31.1173 5.84187 31.1173 5.73777 31.1173 5.63367ZM1.54925 38.2173V32.4917H7.31607V38.2173H1.54925ZM36.8841 67.1573H31.1173V61.4318H36.8841V67.1573ZM37.9327 63.8261V60.2867H30.0688V63.8261C17.1721 62.0564 7.00151 51.9586 5.21904 39.2583H8.36458V31.4507H5.21904C7.00151 18.6463 17.2769 8.5485 30.0688 6.77878C30.4882 8.5485 32.061 9.90181 33.9483 9.90181C35.8356 9.90181 37.4084 8.5485 37.8278 6.77878C50.7245 8.4444 60.8951 18.6463 62.6776 31.3466H59.532V39.1542H62.6776C60.8951 51.9586 50.7245 62.0564 37.9327 63.8261ZM66.4522 38.2173H60.6854V32.4917H66.4522V38.2173Z" fill="#212529"/>
<path d="M37.0938 14.6298C36.989 14.4187 36.8841 14.3132 36.6744 14.3132H31.327C31.1173 14.3132 31.0125 14.4187 30.9076 14.6298L20.737 38.5809C20.6322 38.6865 20.737 38.8975 20.737 39.003L25.665 49.0266C24.7214 50.9258 23.2535 53.8802 23.1486 54.1967C23.0438 54.3022 23.0438 54.5132 23.1486 54.6187C23.2535 54.8298 23.3583 54.9353 23.568 54.9353H44.5383C44.748 54.9353 44.9577 54.8298 44.9577 54.7243C45.0625 54.5132 45.0625 54.4077 44.8528 54.1967C44.748 53.9857 43.2801 51.0313 42.3364 49.0266L47.2644 39.003C47.3693 38.8975 47.3693 38.6865 47.2644 38.5809L37.0938 14.6298ZM34.4726 36.3652C35.7308 36.5762 36.5696 37.6313 36.5696 38.8975C36.5696 40.1636 35.6259 41.2187 34.4726 41.4298C34.3677 41.4298 34.158 41.4298 34.0531 41.4298C33.8434 41.4298 33.7386 41.4298 33.6337 41.4298C32.3755 41.2187 31.5367 40.1636 31.5367 38.8975C31.5367 37.6313 32.4804 36.5762 33.6337 36.3652C33.7386 36.3652 33.9483 36.3652 34.0531 36.3652C34.158 36.3652 34.2629 36.3652 34.4726 36.3652ZM43.6995 53.9857H24.1971C24.5117 53.2471 25.2456 51.9809 26.399 49.4487H41.3927C42.7558 51.9809 43.3849 53.2471 43.6995 53.9857ZM41.4976 48.4991H26.5039L21.6807 38.6865L31.6416 15.2628H33.5289V35.5211C31.7464 35.7321 30.4882 37.2093 30.4882 39.003C30.4882 40.7967 31.8513 42.2739 33.5289 42.4849C33.6337 42.4849 33.8434 42.4849 33.9483 42.4849C34.158 42.4849 34.2628 42.4849 34.3677 42.4849C36.1502 42.2739 37.4084 40.7967 37.4084 39.003C37.4084 37.2093 36.0453 35.7321 34.3677 35.5211V15.2628H36.255L46.2159 38.6865L41.4976 48.4991Z" fill="#93CB40"/>
</g>
<defs>
<clipPath id="clip0">
<rect width="67" height="67" fill="white" transform="translate(0.500732 0.890137)"/>
</clipPath>
</defs>
</svg>
