<svg width="103" height="81" viewBox="0 0 103 81" fill="none" xmlns="http://www.w3.org/2000/svg">
<g clip-path="url(#clip0)">
<g opacity="0.35">
<path opacity="0.35" d="M99.9999 13.4836H14.601C13.2382 13.4836 12.2 14.5866 12.2 15.8843V17.2468H102.531V15.8843C102.466 14.5866 101.363 13.4836 99.9999 13.4836Z" fill="#383D4C"/>
<path opacity="0.35" d="M12.135 17.2468V78.3012C12.135 79.6637 13.2382 80.8316 14.536 80.8316H99.9999C101.363 80.8316 102.401 79.7286 102.401 78.3012V17.2468H12.135Z" fill="#4E5562"/>
<path opacity="0.35" d="M15.4446 16.0141C15.803 16.0141 16.0935 15.7236 16.0935 15.3652C16.0935 15.0069 15.803 14.7164 15.4446 14.7164C15.0862 14.7164 14.7957 15.0069 14.7957 15.3652C14.7957 15.7236 15.0862 16.0141 15.4446 16.0141Z" fill="#2C3544"/>
<path opacity="0.35" d="M18.0403 16.0141C18.3987 16.0141 18.6892 15.7236 18.6892 15.3652C18.6892 15.0069 18.3987 14.7164 18.0403 14.7164C17.6819 14.7164 17.3914 15.0069 17.3914 15.3652C17.3914 15.7236 17.6819 16.0141 18.0403 16.0141Z" fill="#2C3544"/>
<path opacity="0.35" d="M20.636 16.0141C20.9944 16.0141 21.2849 15.7236 21.2849 15.3652C21.2849 15.0069 20.9944 14.7164 20.636 14.7164C20.2776 14.7164 19.9871 15.0069 19.9871 15.3652C19.9871 15.7236 20.2776 16.0141 20.636 16.0141Z" fill="#2C3544"/>
<path opacity="0.35" d="M100.13 16.7278H95.2627C94.4839 16.7278 93.8999 16.1438 93.8999 15.3652C93.8999 14.5866 94.4839 14.0027 95.2627 14.0027H100.13C100.908 14.0027 101.492 14.5866 101.492 15.3652C101.492 16.1438 100.843 16.7278 100.13 16.7278Z" fill="#414756"/>
<path opacity="0.35" d="M91.2394 16.7278H88.7086C87.9299 16.7278 87.3458 16.1438 87.3458 15.3652C87.3458 14.5866 87.9299 14.0027 88.7086 14.0027H91.2394C92.0181 14.0027 92.6021 14.5866 92.6021 15.3652C92.6021 16.1438 91.9532 16.7278 91.2394 16.7278Z" fill="#414756"/>
<path opacity="0.35" d="M92.9266 46.6385H20.3764C18.7541 46.6385 17.3914 45.276 17.3914 43.654V25.3571C17.3914 23.7351 18.7541 22.3725 20.3764 22.3725H92.9266C94.5489 22.3725 95.9117 23.7351 95.9117 25.3571V43.654C95.9117 45.3409 94.5489 46.6385 92.9266 46.6385Z" fill="#565D69"/>
<path opacity="0.35" d="M93.1862 75.5112H74.9513C73.7833 75.5112 72.8748 74.6029 72.8748 73.435V53.3214C72.8748 52.1535 73.7833 51.2452 74.9513 51.2452H93.1862C94.3543 51.2452 95.2628 52.1535 95.2628 53.3214V73.4999C95.2628 74.6029 94.3543 75.5112 93.1862 75.5112Z" fill="#565D69"/>
<path opacity="0.35" d="M65.4121 75.5112H47.2421C46.074 75.5112 45.1655 74.6029 45.1655 73.435V53.3214C45.1655 52.1535 46.074 51.2452 47.2421 51.2452H65.477C66.645 51.2452 67.5535 52.1535 67.5535 53.3214V73.4999C67.4886 74.6029 66.5802 75.5112 65.4121 75.5112Z" fill="#565D69"/>
<path opacity="0.35" d="M37.7028 75.5112H19.4679C18.2999 75.5112 17.3914 74.6029 17.3914 73.435V53.3214C17.3914 52.1535 18.2999 51.2452 19.4679 51.2452H37.7028C38.8709 51.2452 39.7794 52.1535 39.7794 53.3214V73.4999C39.7794 74.6029 38.806 75.5112 37.7028 75.5112Z" fill="#565D69"/>
</g>
<path d="M87.8649 0.831573H2.40103C1.10318 0.831573 0 1.93457 0 3.23222V4.59475H90.3308V3.23222C90.3308 1.93457 89.2276 0.831573 87.8649 0.831573Z" fill="#383D4C"/>
<path d="M0 4.59476V65.6491C0 67.0116 1.10318 68.1795 2.40103 68.1795H87.8649C89.2276 68.1795 90.2659 67.0765 90.2659 65.6491V4.59476H0Z" fill="#4E5562"/>
<path d="M3.30957 3.36199C3.66797 3.36199 3.9585 3.07151 3.9585 2.71317C3.9585 2.35483 3.66797 2.06435 3.30957 2.06435C2.95118 2.06435 2.66064 2.35483 2.66064 2.71317C2.66064 3.07151 2.95118 3.36199 3.30957 3.36199Z" fill="#2C3544"/>
<path d="M5.90528 3.36199C6.26367 3.36199 6.5542 3.07151 6.5542 2.71317C6.5542 2.35483 6.26367 2.06435 5.90528 2.06435C5.54688 2.06435 5.25635 2.35483 5.25635 2.71317C5.25635 3.07151 5.54688 3.36199 5.90528 3.36199Z" fill="#2C3544"/>
<path d="M8.43604 3.36199C8.79443 3.36199 9.08497 3.07151 9.08497 2.71317C9.08497 2.35483 8.79443 2.06435 8.43604 2.06435C8.07764 2.06435 7.78711 2.35483 7.78711 2.71317C7.78711 3.07151 8.07764 3.36199 8.43604 3.36199Z" fill="#2C3544"/>
<path d="M87.9298 4.07568H83.0628C82.2841 4.07568 81.7001 3.49174 81.7001 2.71315C81.7001 1.93457 82.2841 1.35062 83.0628 1.35062H87.9298C88.7085 1.35062 89.2925 1.93457 89.2925 2.71315C89.2925 3.49174 88.7085 4.07568 87.9298 4.07568Z" fill="#414756"/>
<path d="M79.1044 4.07568H76.5736C75.7948 4.07568 75.2108 3.49174 75.2108 2.71315C75.2108 1.93457 75.7948 1.35062 76.5736 1.35062H79.1044C79.8831 1.35062 80.4671 1.93457 80.4671 2.71315C80.4022 3.49174 79.8182 4.07568 79.1044 4.07568Z" fill="#414756"/>
<path d="M81.9596 33.9865H7.00841C6.03501 33.9865 5.19141 33.2079 5.19141 32.1698V11.4074C5.19141 10.4342 5.97012 9.5907 7.00841 9.5907H81.9596C82.933 9.5907 83.7766 10.3693 83.7766 11.4074V32.1698C83.7117 33.2079 82.933 33.9865 81.9596 33.9865Z" fill="#565D69"/>
<path d="M81.0512 53.4512H62.8163C61.6482 53.4512 60.7397 52.5428 60.7397 51.375V40.6694C60.7397 39.5015 61.6482 38.5931 62.8163 38.5931H81.0512C82.2193 38.5931 83.1278 39.5015 83.1278 40.6694V51.375C83.1278 52.478 82.1544 53.4512 81.0512 53.4512Z" fill="#565D69"/>
<path d="M53.2771 53.4512H35.1071C33.939 53.4512 33.0305 52.5428 33.0305 51.375V40.6694C33.0305 39.5015 33.939 38.5931 35.1071 38.5931H53.342C54.51 38.5931 55.4185 39.5015 55.4185 40.6694V51.375C55.3536 52.478 54.4451 53.4512 53.2771 53.4512Z" fill="#565D69"/>
<path d="M25.5029 53.4512H7.33292C6.16485 53.4512 5.25635 52.5428 5.25635 51.375V40.6694C5.25635 39.5015 6.16485 38.5931 7.33292 38.5931H25.5678C26.7359 38.5931 27.6444 39.5015 27.6444 40.6694V51.375C27.5795 52.478 26.671 53.4512 25.5029 53.4512Z" fill="#565D69"/>
<path d="M21.4795 56.0465H5.25635V58.1227H21.4795V56.0465Z" fill="#383D4C"/>
<path d="M27.6444 59.2906H5.25635V60.1341H27.6444V59.2906Z" fill="#565D69"/>
<path d="M27.6444 61.0424H5.25635V61.8859H27.6444V61.0424Z" fill="#565D69"/>
<path d="M44.1271 56.0465H33.29V58.1227H44.1271V56.0465Z" fill="#383D4C"/>
<path d="M55.6781 59.2906H33.29V60.1341H55.6781V59.2906Z" fill="#565D69"/>
<path d="M55.6781 61.0424H33.29V61.8859H55.6781V61.0424Z" fill="#565D69"/>
<path d="M78.2608 56.0465H60.7397V58.1227H78.2608V56.0465Z" fill="#383D4C"/>
<path d="M83.1278 59.2906H60.7397V60.1341H83.1278V59.2906Z" fill="#565D69"/>
<path d="M83.1278 61.0424H60.7397V61.8859H83.1278V61.0424Z" fill="#565D69"/>
<path d="M19.4029 43.07H11.486C10.902 43.07 10.3828 43.5242 10.3828 44.173V49.2338C10.3828 49.8178 10.8371 50.3368 11.486 50.3368H19.4029C19.9869 50.3368 20.5061 49.8827 20.5061 49.2338V44.173C20.5061 43.5242 19.9869 43.07 19.4029 43.07ZM19.7923 47.2225L17.521 44.9516C17.3912 44.8218 17.1317 44.8218 17.0019 44.9516L14.0168 47.9362L12.8487 46.7683C12.719 46.6385 12.4594 46.6385 12.3296 46.7683L11.1615 47.9362V44.1081C11.1615 43.9135 11.2913 43.7188 11.5509 43.7188H19.4678C19.6625 43.7188 19.8572 43.8486 19.8572 44.1081L19.7923 47.2225Z" fill="#2C3544"/>
<path d="M47.6962 43.07H39.8441C39.2601 43.07 38.741 43.5242 38.741 44.173V49.2338C38.741 49.8178 39.1952 50.3368 39.8441 50.3368H47.7611C48.3451 50.3368 48.8643 49.8827 48.8643 49.2338V44.173C48.7994 43.5242 48.3451 43.07 47.6962 43.07ZM48.0855 47.2225L45.8143 44.9516C45.6845 44.8218 45.4249 44.8218 45.2951 44.9516L42.3101 47.9362L41.142 46.7683C41.0122 46.6385 40.7526 46.6385 40.6229 46.7683L39.4548 47.9362V44.1081C39.4548 43.9135 39.5846 43.7188 39.8441 43.7188H47.7611C47.9557 43.7188 48.1504 43.8486 48.1504 44.1081L48.0855 47.2225Z" fill="#2C3544"/>
<path d="M75.8597 43.07H67.9428C67.3587 43.07 66.8396 43.5242 66.8396 44.173V49.2338C66.8396 49.8178 67.2938 50.3368 67.9428 50.3368H75.8597C76.4437 50.3368 76.9629 49.8827 76.9629 49.2338V44.173C76.9629 43.5242 76.5086 43.07 75.8597 43.07ZM76.249 47.2225L73.9778 44.9516C73.848 44.8218 73.5884 44.8218 73.4587 44.9516L70.4736 47.9362L69.3055 46.7683C69.1757 46.6385 68.9162 46.6385 68.7864 46.7683L67.6183 47.9362V44.1081C67.6183 43.9135 67.7481 43.7188 68.0077 43.7188H75.9246C76.1193 43.7188 76.3139 43.8486 76.3139 44.1081L76.249 47.2225Z" fill="#2C3544"/>
<path d="M41.5962 36.1276C41.9188 36.1276 42.1803 35.8662 42.1803 35.5437C42.1803 35.2212 41.9188 34.9597 41.5962 34.9597C41.2737 34.9597 41.0122 35.2212 41.0122 35.5437C41.0122 35.8662 41.2737 36.1276 41.5962 36.1276Z" fill="#2C3544"/>
<path d="M43.608 36.1276C43.9305 36.1276 44.192 35.8662 44.192 35.5437C44.192 35.2212 43.9305 34.9597 43.608 34.9597C43.2854 34.9597 43.0239 35.2212 43.0239 35.5437C43.0239 35.8662 43.2854 36.1276 43.608 36.1276Z" fill="#2C3544"/>
<path d="M45.5547 36.1276C45.8773 36.1276 46.1388 35.8662 46.1388 35.5437C46.1388 35.2212 45.8773 34.9597 45.5547 34.9597C45.2322 34.9597 44.9707 35.2212 44.9707 35.5437C44.9707 35.8662 45.2322 36.1276 45.5547 36.1276Z" fill="#2C3544"/>
</g>
<defs>
<clipPath id="clip0">
<rect width="102.466" height="80" fill="white" transform="translate(0 0.831573)"/>
</clipPath>
</defs>
</svg>
