<svg width="56" height="56" viewBox="0 0 56 56" fill="none" xmlns="http://www.w3.org/2000/svg">
<path d="M28.2123 9.93176C18.3941 9.93176 10.485 17.9318 10.485 27.659C10.485 34.0227 13.9395 39.659 19.0304 42.7499V48.9318C19.0304 50.659 20.2123 52.0227 21.8486 52.3863V53.0227C21.8486 54.2954 22.8486 55.2954 24.1213 55.2954H32.3032C33.5759 55.2954 34.5759 54.2954 34.5759 53.0227V52.4772C36.2123 52.2045 37.3941 50.7499 37.3941 49.0227V42.8408C42.485 39.7499 45.9395 34.1136 45.9395 27.7499C46.0304 17.9318 38.0304 9.93176 28.2123 9.93176ZM33.7577 53.0227C33.7577 53.7499 33.1213 54.3863 32.3941 54.3863H24.2123C23.485 54.3863 22.8486 53.7499 22.8486 53.0227V52.4772H33.7577V53.0227ZM37.3941 41.7499C37.1213 41.9318 36.8486 42.1136 36.485 42.2954V43.2954V48.9318C36.485 50.1136 35.6668 51.2045 34.485 51.4772C34.3032 51.5681 34.1213 51.5681 33.8486 51.5681H33.6668H22.8486H22.5759C22.3941 51.5681 22.1213 51.5681 21.9395 51.4772C20.8486 51.2045 19.9395 50.2045 19.9395 48.9318V43.2954V42.2954C19.6668 42.1136 19.3032 41.9318 19.0304 41.7499C14.3941 38.7499 11.3941 33.5681 11.3941 27.659C11.3941 18.3863 18.9395 10.8409 28.2123 10.8409C37.485 10.8409 45.0304 18.3863 45.0304 27.659C45.1213 33.5681 42.0304 38.7499 37.3941 41.7499Z" fill="#212529" stroke="#212529" stroke-width="0.2"/>
<path d="M28.2122 51.5683V32.0228" stroke="#231F20" stroke-width="1.1" stroke-miterlimit="10"/>
<path d="M28.3031 6.20462C28.0303 6.20462 27.8485 6.02281 27.8485 5.75008V0.750078C27.8485 0.47735 28.0303 0.295532 28.3031 0.295532C28.5758 0.295532 28.7576 0.47735 28.7576 0.750078V5.75008C28.7576 5.9319 28.5758 6.20462 28.3031 6.20462Z" fill="#93CB40"/>
<path d="M17.3032 9.11375C17.1213 9.11375 17.0304 9.02284 16.9395 8.84102L14.485 4.5683C14.3032 4.38648 14.3941 4.11375 14.5759 3.93193C14.7577 3.84103 15.0304 3.84102 15.2122 4.11375L17.6668 8.38648C17.7577 8.5683 17.7577 8.84103 17.485 9.02284C17.485 9.11375 17.3941 9.11375 17.3032 9.11375Z" fill="#93CB40"/>
<path d="M9.30311 17.1137C9.2122 17.1137 9.12129 17.1137 9.12129 17.0227L4.84857 14.5682C4.57584 14.4773 4.48493 14.2046 4.57584 13.9318C4.66675 13.75 4.93948 13.6591 5.2122 13.75L9.48493 16.2046C9.66675 16.2955 9.75766 16.5682 9.66675 16.8409C9.57584 17.0227 9.48493 17.1137 9.30311 17.1137Z" fill="#93CB40"/>
<path d="M6.394 28.1137H1.394C1.12127 28.1137 0.939453 27.9319 0.939453 27.6591C0.939453 27.3864 1.12127 27.2046 1.394 27.2046H6.394C6.66673 27.2046 6.84854 27.3864 6.84854 27.6591C6.84854 27.9319 6.57582 28.1137 6.394 28.1137Z" fill="#93CB40"/>
<path d="M55.2121 28.1137H50.2121C49.9394 28.1137 49.7576 27.9319 49.7576 27.6591C49.7576 27.3864 49.9394 27.2046 50.2121 27.2046H55.2121C55.4848 27.2046 55.6667 27.3864 55.6667 27.6591C55.6667 27.9319 55.4848 28.1137 55.2121 28.1137Z" fill="#93CB40"/>
<path d="M47.303 17.1138C47.1212 17.1138 47.0303 17.0229 46.9394 16.8411C46.8485 16.6593 46.8485 16.3865 47.1212 16.2047L51.3939 13.7502C51.5757 13.6593 51.8485 13.6593 52.0303 13.932C52.1212 14.1138 52.1212 14.3865 51.8485 14.5684L47.5757 17.0229C47.4848 17.1138 47.3939 17.1138 47.303 17.1138Z" fill="#93CB40"/>
<path d="M39.3031 9.11384C39.2122 9.11384 39.1213 9.11384 39.0303 9.02294C38.8485 8.93203 38.7576 8.6593 38.8485 8.38657L41.3031 4.11384C41.4849 3.93203 41.7576 3.84112 41.9394 3.93203C42.1213 4.02294 42.2122 4.29566 42.1213 4.56839L39.6667 8.84112C39.5758 9.02294 39.394 9.11384 39.3031 9.11384Z" fill="#93CB40"/>
<path d="M32.5758 27.6591C32.3031 29.8409 30.4849 31.5681 28.2122 31.5681C25.9395 31.5681 24.1213 29.8409 23.8485 27.6591H22.9395C23.2122 30.3863 25.394 32.4772 28.2122 32.4772C31.0304 32.4772 33.2122 30.3863 33.4849 27.6591H32.5758V27.6591Z" fill="#212529"/>
</svg>
