<svg width="67" height="56" viewBox="0 0 67 56" fill="none" xmlns="http://www.w3.org/2000/svg">
<path d="M59.9859 55.4737H7.01406C3.45469 55.4737 0.523438 52.5264 0.523438 48.9474V12.0001V7.05268C0.523438 3.47374 3.45469 0.526367 7.01406 0.526367H59.9859C63.5453 0.526367 66.4766 3.47374 66.4766 7.05268V48.9474C66.4766 52.5264 63.5453 55.4737 59.9859 55.4737Z" stroke="#212529" stroke-miterlimit="10"/>
<path d="M66.4766 13.6843H0.523438" stroke="#212529" stroke-miterlimit="10"/>
<path d="M7.74683 10.2104C9.19226 10.2104 10.364 9.03223 10.364 7.57884C10.364 6.12546 9.19226 4.94727 7.74683 4.94727C6.30139 4.94727 5.12964 6.12546 5.12964 7.57884C5.12964 9.03223 6.30139 10.2104 7.74683 10.2104Z" fill="#93CB40"/>
<path d="M16.6453 10.2104C18.0907 10.2104 19.2625 9.03223 19.2625 7.57884C19.2625 6.12546 18.0907 4.94727 16.6453 4.94727C15.1998 4.94727 14.0281 6.12546 14.0281 7.57884C14.0281 9.03223 15.1998 10.2104 16.6453 10.2104Z" fill="#93CB40"/>
<path d="M25.5437 10.2104C26.9891 10.2104 28.1609 9.03223 28.1609 7.57884C28.1609 6.12546 26.9891 4.94727 25.5437 4.94727C24.0983 4.94727 22.9265 6.12546 22.9265 7.57884C22.9265 9.03223 24.0983 10.2104 25.5437 10.2104Z" fill="#93CB40"/>
<path d="M15.7532 33.5716L15.4143 33.2039L15.026 33.5618L15.4045 33.93L15.7532 33.5716ZM24.2253 25.0828L15.4143 33.2039L16.092 33.9392L24.9031 25.8181L24.2253 25.0828ZM15.4045 33.93L24.2156 42.5006L24.9128 41.7837L16.1018 33.2132L15.4045 33.93Z" fill="#7ACC00"/>
<path d="M51.6354 33.5716L51.9742 33.2039L52.3625 33.5618L51.984 33.93L51.6354 33.5716ZM43.1632 25.0828L51.9742 33.2039L51.2965 33.9392L42.4855 25.8181L43.1632 25.0828ZM51.984 33.93L43.173 42.5006L42.4757 41.7837L51.2867 33.2132L51.984 33.93Z" fill="#7ACC00"/>
<path d="M37.7419 25.125L30.2583 42.5" stroke="#7ACC00"/>
</svg>
