<svg width="64" height="66" viewBox="0 0 64 66" fill="none" xmlns="http://www.w3.org/2000/svg">
<path d="M38.8132 20.5122L25.4303 26.9978" stroke="#93CB40" stroke-miterlimit="10" stroke-dasharray="1 1"/>
<path d="M38.1301 45.5151L25.2203 39.208" stroke="#93CB40" stroke-miterlimit="10" stroke-dasharray="1 1"/>
<path fill-rule="evenodd" clip-rule="evenodd" d="M36.2898 13.7816C36.2898 6.23959 42.4425 0.0869141 49.9845 0.0869141C57.5264 0.0869141 63.5799 6.23959 63.6791 13.7816C63.6791 17.751 61.8928 21.4228 59.1142 23.9037C58.9654 24.0029 58.8165 24.127 58.6677 24.251C58.5188 24.3751 58.3699 24.4991 58.2211 24.5984C55.9387 26.3846 53.0608 27.377 49.9845 27.377C46.9081 27.377 44.0303 26.2854 41.7478 24.5984C41.4501 24.3999 41.1524 24.2014 40.8547 23.9037C38.0761 21.4228 36.2898 17.8503 36.2898 13.7816ZM42.3437 22.6445C43.58 19.6149 46.5328 17.4533 49.9845 17.4533C53.3986 17.4533 56.3248 19.5683 57.5844 22.5463C57.8375 22.3256 58.081 22.0942 58.3142 21.8528C57.1791 19.5166 55.1036 17.6576 52.5646 16.9571C54.4501 16.064 55.7402 14.0793 55.7402 11.7968C55.7402 8.62127 53.16 6.04111 49.9845 6.04111C46.8089 6.04111 44.2287 8.62127 44.2287 11.7968C44.2287 13.98 45.5188 15.9648 47.3051 16.8579C44.6819 17.5574 42.5981 19.4125 41.4609 21.8123C41.7405 22.1046 42.0352 22.3824 42.3437 22.6445ZM56.4489 2.86077C54.5364 1.69622 52.2919 1.01394 49.8852 0.980044C42.8394 0.980044 37.1829 6.73577 37.1829 13.6823C37.1829 16.9347 38.4166 19.9403 40.4348 22.175C42.7584 24.7807 46.1411 26.4214 49.907 26.4214C56.9141 26.4214 62.5945 20.741 62.5945 13.7339C62.5945 9.11998 60.1316 5.0813 56.4489 2.86077ZM50.0837 7.03348C47.4043 7.03348 45.3203 9.21669 45.3203 11.7968C45.3203 14.4762 47.5035 16.5602 50.0837 16.5602C52.7631 16.5602 54.847 14.377 54.847 11.7968C54.847 9.11745 52.6638 7.03348 50.0837 7.03348Z" fill="#212529"/>
<path fill-rule="evenodd" clip-rule="evenodd" d="M0.102295 32.7816C0.102295 25.2396 6.25497 19.0869 13.797 19.0869C21.3389 19.0869 27.3924 25.2396 27.4916 32.7816C27.4916 36.751 25.7053 40.4228 22.9267 42.9037C22.7779 43.0029 22.629 43.127 22.4802 43.251C22.3313 43.3751 22.1824 43.4991 22.0336 43.5984C19.7512 45.3846 16.8733 46.377 13.797 46.377C10.7206 46.377 7.84275 45.2854 5.56031 43.5984C5.2626 43.3999 4.96489 43.2014 4.66718 42.9037C1.88855 40.4228 0.102295 36.8503 0.102295 32.7816ZM6.15617 41.6445C7.39255 38.6149 10.3453 36.4533 13.797 36.4533C17.2111 36.4533 20.1373 38.5683 21.3969 41.5463C21.65 41.3256 21.8935 41.0942 22.1267 40.8528C20.9916 38.5166 18.9161 36.6576 16.3771 35.9571C18.2626 35.064 19.5527 33.0793 19.5527 30.7968C19.5527 27.6213 16.9725 25.0411 13.797 25.0411C10.6214 25.0411 8.04123 27.6213 8.04123 30.7968C8.04123 32.98 9.3313 34.9648 11.1176 35.8579C8.49444 36.5574 6.41061 38.4125 5.27335 40.8123C5.55301 41.1046 5.8477 41.3824 6.15617 41.6445ZM20.2614 21.8608C18.3489 20.6962 16.1044 20.0139 13.6977 19.98C6.65191 19.98 0.995426 25.7358 0.995426 32.6823C0.995426 35.9347 2.22912 38.9403 4.24727 41.175C6.5709 43.7807 9.95358 45.4214 13.7195 45.4214C20.7266 45.4214 26.407 39.741 26.407 32.7339C26.407 28.12 23.9441 24.0813 20.2614 21.8608ZM13.8962 26.0335C11.2168 26.0335 9.13283 28.2167 9.13283 30.7968C9.13283 33.4762 11.316 35.5602 13.8962 35.5602C16.5756 35.5602 18.6595 33.377 18.6595 30.7968C18.6595 28.1174 16.4763 26.0335 13.8962 26.0335Z" fill="#212529"/>
<path fill-rule="evenodd" clip-rule="evenodd" d="M36.2273 52.2816C36.2273 44.7396 42.38 38.5869 49.922 38.5869C57.4639 38.5869 63.5174 44.7396 63.6166 52.2816C63.6166 56.251 61.8303 59.9228 59.0517 62.4037C58.9029 62.5029 58.754 62.627 58.6052 62.751C58.4563 62.8751 58.3074 62.9991 58.1586 63.0984C55.8762 64.8846 52.9983 65.877 49.922 65.877C46.8456 65.877 43.9678 64.7854 41.6853 63.0984C41.3876 62.8999 41.0899 62.7014 40.7922 62.4037C38.0136 59.9228 36.2273 56.3503 36.2273 52.2816ZM42.2812 61.1445C43.5175 58.1149 46.4703 55.9533 49.922 55.9533C53.3361 55.9533 56.2623 58.0683 57.5219 61.0463C57.775 60.8256 58.0185 60.5942 58.2517 60.3528C57.1166 58.0166 55.0411 56.1576 52.5021 55.4571C54.3876 54.564 55.6777 52.5793 55.6777 50.2968C55.6777 47.1213 53.0975 44.5411 49.922 44.5411C46.7464 44.5411 44.1662 47.1213 44.1662 50.2968C44.1662 52.48 45.4563 54.4648 47.2426 55.3579C44.6194 56.0574 42.5356 57.9125 41.3984 60.3123C41.678 60.6046 41.9727 60.8824 42.2812 61.1445ZM56.3864 41.3608C54.4739 40.1962 52.2294 39.5139 49.8227 39.48C42.7769 39.48 37.1204 45.2358 37.1204 52.1823C37.1204 55.4347 38.3541 58.4403 40.3723 60.675C42.6959 63.2807 46.0786 64.9214 49.8445 64.9214C56.8516 64.9214 62.532 59.241 62.532 52.2339C62.532 47.62 60.0691 43.5813 56.3864 41.3608ZM50.0212 45.5335C47.3418 45.5335 45.2578 47.7167 45.2578 50.2968C45.2578 52.9762 47.441 55.0602 50.0212 55.0602C52.7006 55.0602 54.7845 52.877 54.7845 50.2968C54.7845 47.6174 52.6013 45.5335 50.0212 45.5335Z" fill="#212529"/>
</svg>
