<svg width="24" height="25" viewBox="0 0 24 25" fill="none" xmlns="http://www.w3.org/2000/svg">
<path d="M5.37201 24.6089H0.39634V8.58567H5.37201V24.6089ZM2.8815 6.39996C1.29078 6.39996 0 5.0821 0 3.49103C0 1.89996 1.29078 0.608887 2.8815 0.608887C4.47222 0.608887 5.763 1.89996 5.763 3.49103C5.763 5.0821 4.47222 6.39996 2.8815 6.39996ZM23.9946 24.6089H19.0297V16.8089C19.0297 14.95 18.9922 12.566 16.4428 12.566C13.8558 12.566 13.4595 14.5857 13.4595 16.675V24.6089H8.48918V8.58567H13.2613V10.7714H13.331C13.9951 9.51246 15.6179 8.18389 18.0388 8.18389C23.0734 8.18389 24 11.5 24 15.8071V24.6089H23.9946Z" fill="white"/>
</svg>
