<svg width="24" height="25" viewBox="0 0 24 25" fill="none" xmlns="http://www.w3.org/2000/svg">
<path d="M11.9973 6.45559C15.4026 6.45559 18.1492 9.20288 18.1492 12.6089C18.1492 16.0149 15.4026 18.7622 11.9973 18.7622C8.59208 18.7622 5.8454 16.0149 5.8454 12.6089C5.8454 9.20288 8.59208 6.45559 11.9973 6.45559ZM11.9973 16.6093C14.1979 16.6093 15.9969 14.8153 15.9969 12.6089C15.9969 10.4025 14.2032 8.60844 11.9973 8.60844C9.79141 8.60844 7.99777 10.4025 7.99777 12.6089C7.99777 14.8153 9.79676 16.6093 11.9973 16.6093ZM4.15884 6.20389C4.15884 7.00184 4.80134 7.63912 5.59375 7.63912C6.39152 7.63912 7.02867 6.99648 7.02867 6.20389C7.02867 5.4113 6.38617 4.76865 5.59375 4.76865C4.80134 4.76865 4.15884 5.4113 4.15884 6.20389ZM0.0843258 7.66054C0.175346 5.73797 0.614388 4.03497 2.02253 2.63187C3.42532 1.22877 5.12794 0.78963 7.05008 0.693234C9.03112 0.580771 14.9689 0.580771 16.9499 0.693234C18.8667 0.784275 20.5693 1.22341 21.9775 2.62651C23.3856 4.02962 23.8193 5.73262 23.9157 7.65519C24.0281 9.63667 24.0281 15.5757 23.9157 17.5572C23.8247 19.4798 23.3856 21.1828 21.9775 22.5859C20.5693 23.989 18.8721 24.4281 16.9499 24.5245C14.9689 24.637 9.03112 24.637 7.05008 24.5245C5.12794 24.4335 3.42532 23.9944 2.02253 22.5859C0.619741 21.1828 0.1807 19.4798 0.0843258 17.5572C-0.0281105 15.5757 -0.0281105 9.64202 0.0843258 7.66054ZM2.64361 19.6833C3.06124 20.733 3.86971 21.5416 4.92448 21.9647C6.50396 22.5913 10.2519 22.4467 11.9973 22.4467C13.7428 22.4467 17.496 22.5859 19.0702 21.9647C20.1196 21.547 20.9281 20.7383 21.351 19.6833C21.9775 18.1035 21.8329 14.3547 21.8329 12.6089C21.8329 10.863 21.9721 7.10894 21.351 5.53447C20.9334 4.48482 20.1249 3.67616 19.0702 3.25309C17.4907 2.62651 13.7428 2.77111 11.9973 2.77111C10.2519 2.77111 6.4986 2.63187 4.92448 3.25309C3.87507 3.67081 3.06659 4.47947 2.64361 5.53447C2.01718 7.1143 2.16174 10.863 2.16174 12.6089C2.16174 14.3547 2.01718 18.1088 2.64361 19.6833Z" fill="white"/>
</svg>
