<?xml version="1.0" encoding="utf-8"?>
<!-- Generator: Adobe Illustrator 23.0.1, SVG Export Plug-In . SVG Version: 6.00 Build 0)  -->
<svg version="1.1" id="Layer_1" xmlns="http://www.w3.org/2000/svg" xmlns:xlink="http://www.w3.org/1999/xlink" x="0px" y="0px"
	 viewBox="0 0 44 44" style="enable-background:new 0 0 44 44;" xml:space="preserve">
<style type="text/css">
	.st0{fill-rule:evenodd;clip-rule:evenodd;fill:#93CB40;}
	.st1{fill:none;stroke:#93CB40;stroke-width:0.25;}
	.st2{fill-rule:evenodd;clip-rule:evenodd;fill:#FFFFFF;}
	.st3{fill:none;stroke:#FFFFFF;stroke-width:0.25;}
</style>
<g>
	<g>
		<path class="st0" d="M25.5,22.3v7.8c0,4.3-2.9,7.9-6.7,9.1c0.1-0.5,0.2-0.9,0.2-1.5c0-3.3-2.6-5.9-5.9-5.9s-5.9,2.6-5.9,5.9
			c0,0.4,0.1,0.9,0.1,1.3c-3.4-1.2-5.9-4.4-6.2-8.1v-6c0-0.9,0.7-1.6,1.6-1.6s1.6,0.7,1.6,1.6v6.1H5v-6.1c0-1.3-1-2.3-2.3-2.3
			s-2.3,1-2.3,2.3v6.1h0c0.3,4.2,3.2,7.7,7.2,8.9c0.9,2.2,3,3.7,5.5,3.7c2.5,0,4.6-1.5,5.5-3.6c4.4-1.1,7.7-5.1,7.7-9.9v-7.8H25.5z
			 M13,42.9c-2.9,0-5.2-2.3-5.2-5.2s2.3-5.2,5.2-5.2c2.9,0,5.2,2.3,5.2,5.2S15.9,42.9,13,42.9z"/>
	</g>
	<g>
		<path class="st1" d="M25.5,22.3v7.8c0,4.3-2.9,7.9-6.7,9.1c0.1-0.5,0.2-0.9,0.2-1.5c0-3.3-2.6-5.9-5.9-5.9s-5.9,2.6-5.9,5.9
			c0,0.4,0.1,0.9,0.1,1.3c-3.4-1.2-5.9-4.4-6.2-8.1v-6c0-0.9,0.7-1.6,1.6-1.6s1.6,0.7,1.6,1.6v6.1H5v-6.1c0-1.3-1-2.3-2.3-2.3
			s-2.3,1-2.3,2.3v6.1h0c0.3,4.2,3.2,7.7,7.2,8.9c0.9,2.2,3,3.7,5.5,3.7c2.5,0,4.6-1.5,5.5-3.6c4.4-1.1,7.7-5.1,7.7-9.9v-7.8H25.5z
			 M13,42.9c-2.9,0-5.2-2.3-5.2-5.2s2.3-5.2,5.2-5.2c2.9,0,5.2,2.3,5.2,5.2S15.9,42.9,13,42.9z"/>
	</g>
</g>
<g>
	<g>
		<path class="st2" d="M43.7,13.2c-0.3-4.2-3.2-7.7-7.2-8.9c-0.9-2.2-3-3.7-5.5-3.7c-2.5,0-4.6,1.5-5.5,3.6
			c-4.4,1.1-7.7,5.1-7.7,9.9v7.8h0.7v-7.8c0-4.3,2.9-7.9,6.7-9.1c-0.1,0.5-0.2,0.9-0.2,1.5c0,3.3,2.6,5.9,5.9,5.9S37,9.7,37,6.4
			c0-0.4-0.1-0.9-0.1-1.3c3.4,1.2,5.9,4.4,6.2,8.1v6c0,0.9-0.7,1.6-1.6,1.6s-1.6-0.7-1.6-1.6v-6.1h-0.7v6.1c0,1.3,1,2.3,2.3,2.3
			s2.3-1,2.3-2.3L43.7,13.2L43.7,13.2z M31.1,11.6c-2.9,0-5.2-2.3-5.2-5.2c0-2.9,2.3-5.2,5.2-5.2c2.9,0,5.2,2.3,5.2,5.2
			C36.2,9.3,33.9,11.6,31.1,11.6z"/>
	</g>
	<g>
		<path class="st3" d="M43.7,13.2c-0.3-4.2-3.2-7.7-7.2-8.9c-0.9-2.2-3-3.7-5.5-3.7c-2.5,0-4.6,1.5-5.5,3.6
			c-4.4,1.1-7.7,5.1-7.7,9.9v7.8h0.7v-7.8c0-4.3,2.9-7.9,6.7-9.1c-0.1,0.5-0.2,0.9-0.2,1.5c0,3.3,2.6,5.9,5.9,5.9S37,9.7,37,6.4
			c0-0.4-0.1-0.9-0.1-1.3c3.4,1.2,5.9,4.4,6.2,8.1v6c0,0.9-0.7,1.6-1.6,1.6s-1.6-0.7-1.6-1.6v-6.1h-0.7v6.1c0,1.3,1,2.3,2.3,2.3
			s2.3-1,2.3-2.3L43.7,13.2L43.7,13.2z M31.1,11.6c-2.9,0-5.2-2.3-5.2-5.2c0-2.9,2.3-5.2,5.2-5.2c2.9,0,5.2,2.3,5.2,5.2
			C36.2,9.3,33.9,11.6,31.1,11.6z"/>
	</g>
</g>
</svg>
