<?xml version="1.0" encoding="utf-8"?>
<!-- Generator: Adobe Illustrator 23.0.1, SVG Export Plug-In . SVG Version: 6.00 Build 0)  -->
<svg version="1.1" id="Layer_1" xmlns="http://www.w3.org/2000/svg" xmlns:xlink="http://www.w3.org/1999/xlink" x="0px" y="0px"
	 viewBox="0 0 65 65" style="enable-background:new 0 0 65 65;" xml:space="preserve">
<style type="text/css">
	.st0{fill:none;stroke:#93CB40;stroke-miterlimit:10;}
	.st1{fill:none;stroke:#FFFFFF;stroke-miterlimit:10;}
	.st2{fill:#FFFFFF;}
</style>
<path class="st0" d="M29.9,13.2c-0.1-0.4-0.5-0.7-1-0.9l-6.3-0.5L20,5.9c-0.2-0.4-0.6-0.7-1.1-0.7s-0.9,0.3-1.1,0.7l-2.6,5.9
	l-6.3,0.5c-0.4,0-0.9,0.3-1,0.9c-0.1,0.4,0,1,0.3,1.3l4.7,4.2l-1.4,6.2c-0.1,0.4,0.1,1,0.4,1.2c0.2,0.1,0.4,0.2,0.6,0.2
	s0.4-0.1,0.6-0.2l5.4-3.3l5.4,3.3c0.4,0.2,0.9,0.2,1.3-0.1c0.4-0.3,0.5-0.7,0.4-1.2l-1.3-6.1l4.8-4.2C29.9,14.1,30,13.7,29.9,13.2z"
	/>
<path class="st1" d="M57.9,34.8v-0.3c0-1.3-1.1-2.5-2.5-2.5H8c-1.3,0-2.5,1.2-2.5,2.5v0.3c0,1.3,1.2,2.5,2.5,2.5h47.3
	C56.7,37.3,57.9,36.2,57.9,34.8z"/>
<path class="st1" d="M48.5,57.9h2.7c1.2,0,2.1-0.9,2.1-2.1V43.1c0-1.2-0.9-2.1-2.1-2.1h-2.7c-1.2,0-2.1,0.9-2.1,2.1v12.7
	C46.4,57,47.3,57.9,48.5,57.9z"/>
<path class="st1" d="M46.4,43.1c0,0-2,0.1-2.1,0c-0.1-0.3-1.8-5-2.1-5.6c-0.1-0.1-4.5,0-5.7,0c-0.3,0-0.3,0.5-0.3,0.8
	c0,1.5,0.1,6,0,6.2c-0.3,0.3-6.2-6.9-6.2-6.9s-6.2-0.1-6.1,0c0.3,0.5,5.9,11,5.6,11.2C29.1,49,17.7,37.6,17.7,37.6l-5.5,0
	c0,0-1.4,1.4,0,2.8c3.8,3.8,14.2,15.7,15.7,15.7c3.8,0,13.7,0,17.1,0c1,0,1.4-0.8,1.4-1.3C46.4,51.9,46.4,43.1,46.4,43.1z"/>
<path class="st1" d="M36.2,44.5l-6.8,4.4"/>
<rect x="36" y="10.5" class="st2" width="1" height="1"/>
<rect x="39" y="10.5" class="st2" width="1" height="1"/>
<rect x="42" y="10.5" class="st2" width="1" height="1"/>
<rect x="45" y="10.5" class="st2" width="1" height="1"/>
<rect x="48.1" y="10.5" class="st2" width="1" height="1"/>
<rect x="36" y="16.4" class="st2" width="1" height="1"/>
<rect x="39" y="16.4" class="st2" width="1" height="1"/>
<rect x="42" y="16.4" class="st2" width="1" height="1"/>
<rect x="45" y="16.4" class="st2" width="1" height="1"/>
<rect x="48.1" y="16.4" class="st2" width="1" height="1"/>
<rect x="51.1" y="16.4" class="st2" width="1" height="1"/>
<rect x="54.1" y="16.4" class="st2" width="1" height="1"/>
<rect x="57.1" y="16.4" class="st2" width="1" height="1"/>
<rect x="36" y="22.4" class="st2" width="1" height="1"/>
<rect x="39" y="22.4" class="st2" width="1" height="1"/>
<rect x="42" y="22.4" class="st2" width="1" height="1"/>
<rect x="45" y="22.4" class="st2" width="1" height="1"/>
<rect x="48.1" y="22.4" class="st2" width="1" height="1"/>
</svg>
