<svg width="61" height="62" viewBox="0 0 61 62" fill="none" xmlns="http://www.w3.org/2000/svg">
<path fill-rule="evenodd" clip-rule="evenodd" d="M7.50152 49.3625H6.44092V48.3625H7.50152V49.3625ZM11.0015 49.3625H9.94092V48.3625H11.0015V49.3625ZM14.5015 49.3625H13.4409V48.3625H14.5015V49.3625ZM18.0015 49.3625H16.9409V48.3625H18.0015V49.3625ZM21.5015 49.3625H20.4409V48.3625H21.5015V49.3625ZM25.0015 49.3625H23.9409V48.3625H25.0015V49.3625Z" fill="white"/>
<path fill-rule="evenodd" clip-rule="evenodd" d="M7.50152 53.3625H6.44092V52.3625H7.50152V53.3625ZM11.0015 53.3625H9.94092V52.3625H11.0015V53.3625ZM14.5015 53.3625H13.4409V52.3625H14.5015V53.3625ZM18.0015 53.3625H16.9409V52.3625H18.0015V53.3625ZM21.5015 53.3625H20.4409V52.3625H21.5015V53.3625ZM25.0015 53.3625H23.9409V52.3625H25.0015V53.3625Z" fill="white"/>
<path d="M30.9976 2.48916C30.9996 2.06326 31.4991 1.83468 31.8227 2.11159L46.767 14.9003C47.1198 15.2022 46.9063 15.7802 46.4419 15.7802H31.4382C31.1612 15.7802 30.937 15.5549 30.9383 15.2779L30.9976 2.48916Z" stroke="white"/>
<circle cx="47.25" cy="38" r="12.5" stroke="#7ACC00"/>
<path fill-rule="evenodd" clip-rule="evenodd" d="M3.9668 1.49414H31.4971V2.49414H3.9668C2.86223 2.49414 1.9668 3.38957 1.9668 4.49414V58.0689C1.9668 59.1735 2.86223 60.0689 3.9668 60.0689H44.4435C45.5481 60.0689 46.4435 59.1735 46.4435 58.0689V53.229C46.7106 53.243 46.9795 53.25 47.25 53.25C47.3146 53.25 47.3791 53.2496 47.4435 53.2488V58.0689C47.4435 59.7258 46.1004 61.0689 44.4435 61.0689H3.9668C2.30995 61.0689 0.966797 59.7258 0.966797 58.0689V4.49414C0.966797 2.83729 2.30994 1.49414 3.9668 1.49414ZM47.4435 22.7512V15.2788H46.4435V22.771C46.7106 22.757 46.9795 22.75 47.25 22.75C47.3146 22.75 47.3791 22.7504 47.4435 22.7512Z" fill="white"/>
<path d="M46.9375 25.7812L46.9375 38.875" stroke="#7ACC00"/>
<path d="M59.5547 38.375L46.4609 38.375" stroke="#7ACC00"/>
<path d="M58.0251 44.9922L46.6856 38.4453" stroke="#7ACC00"/>
<path d="M6 15.5625H25" stroke="white" stroke-opacity="0.7"/>
<path d="M6 25.625H25" stroke="white" stroke-opacity="0.7"/>
<path d="M6 29.5625H25" stroke="white" stroke-opacity="0.7"/>
<path d="M6 33.5H25" stroke="white" stroke-opacity="0.7"/>
<path d="M6 37.4375H21.0625" stroke="white" stroke-opacity="0.7"/>
<path d="M6 19.625H21.125" stroke="white" stroke-opacity="0.7"/>
</svg>
