<?xml version="1.0" encoding="utf-8"?>
<!-- Generator: Adobe Illustrator 23.0.1, SVG Export Plug-In . SVG Version: 6.00 Build 0)  -->
<svg version="1.1" id="Layer_1" xmlns="http://www.w3.org/2000/svg" xmlns:xlink="http://www.w3.org/1999/xlink" x="0px" y="0px"
	 viewBox="0 0 142 129" style="enable-background:new 0 0 142 129;" xml:space="preserve">
<style type="text/css">
	.st0{fill-rule:evenodd;clip-rule:evenodd;fill:#212529;}
	.st1{fill:#212529;}
	.st2{fill:#FFFFFF;stroke:#7ACC00;stroke-width:2;}
	.st3{fill:#FFFFFF;stroke:#000000;stroke-width:2;}
	.st4{fill:#FFFFFF;stroke:#93CB40;stroke-width:2;}
	.st5{fill:#FFFFFF;}
</style>
<path class="st0" d="M63.1,115.9H2.5h-2v0.5c0,0.5,0,1,0.1,1.5c0.8,5.9,5.8,10.5,11.9,10.5H130c6.1,0,11.1-4.6,11.9-10.5
	c0.1-0.5,0.1-1,0.1-1.5v-0.5h-2H82.2v1.8c0,0.2-0.1,0.4-0.2,0.5c-0.3,0.7-1,1.2-1.9,1.2h-15c-0.9,0-1.7-0.6-1.9-1.5l0,0
	c0-0.1,0-0.2,0-0.3L63.1,115.9L63.1,115.9z M139.9,117.9H84.2c-0.2,2-1.9,3.6-4,3.6H65.1c-2.1,0-3.8-1.6-4-3.6H2.6
	c0.7,4.8,4.9,8.5,9.9,8.5H130C135,126.4,139.1,122.7,139.9,117.9z"/>
<path class="st0" d="M33,32.8H11.7c-3.3,0-6,2.7-6,6v72.3v1h1h16.8v-2H7.7V38.8c0-2.2,1.8-4,4-4H33V32.8z M113,34.8h17.8
	c2.2,0,4,1.8,4,4v71.3h-12.5v2h13.5h1v-1V38.8c0-3.3-2.7-6-6-6H113V34.8z M54.1,110.1h37.1v2H54.1V110.1z"/>
<path class="st1" d="M71.3,89.9c-1.3,0-2.5-0.3-3.6-1L41.6,72.5c-1.7-1.1-2.7-2.8-2.7-4.7c0-1.9,1.1-3.7,2.8-4.7l26.1-15.7
	c2.1-1.3,4.8-1.3,6.9,0l26.1,15.7c1.7,1,2.8,2.8,2.8,4.7s-1,3.7-2.7,4.7L74.8,88.9C73.8,89.5,72.5,89.9,71.3,89.9z M71.3,48.5
	c-0.9,0-1.7,0.2-2.4,0.7L42.7,64.8c-1.2,0.7-1.8,1.8-1.8,3s0.6,2.3,1.8,3l26.1,16.3c1.5,0.9,3.5,0.9,5,0l26.1-16.3
	c1.1-0.7,1.8-1.8,1.8-3s-0.7-2.3-1.8-3L73.7,49.1C73,48.7,72.1,48.5,71.3,48.5z"/>
<path class="st2" d="M42.1,54.8c-3-1.9-3-5.9,0.1-7.7l26.1-15.7c1.8-1.1,4.1-1.1,5.9,0l26.1,15.7c3.1,1.8,3.1,5.8,0.1,7.7L74.3,71.1
	c-1.8,1.1-4.3,1.1-6.1,0L42.1,54.8z"/>
<path class="st3" d="M42.1,37.9c-3-1.9-3-5.9,0.1-7.7l26.1-15.7c1.8-1.1,4.1-1.1,5.9,0l26.1,15.7c3.1,1.8,3.1,5.8,0.1,7.7L74.3,54.3
	c-1.8,1.1-4.3,1.1-6.1,0L42.1,37.9z"/>
<path class="st4" d="M42.1,54.8c-3-1.9-3-5.9,0.1-7.7l26.1-15.7c1.8-1.1,4.1-1.1,5.9,0l26.1,15.7c3.1,1.8,3.1,5.8,0.1,7.7L74.3,71.1
	c-1.8,1.1-4.3,1.1-6.1,0L42.1,54.8z"/>
<path class="st5" d="M42.1,37.9c-3-1.9-3-5.9,0.1-7.7l26.1-15.7c1.8-1.1,4.1-1.1,5.9,0l26.1,15.7c3.1,1.8,3.1,5.8,0.1,7.7L74.3,54.3
	c-1.8,1.1-4.3,1.1-6.1,0L42.1,37.9z"/>
<path class="st1" d="M71.3,56.1c-1.3,0-2.5-0.3-3.6-1L41.6,38.8c-1.7-1.1-2.7-2.8-2.7-4.7s1.1-3.7,2.8-4.7l26.1-15.7
	c2.1-1.3,4.8-1.3,6.9,0l26.1,15.7c1.7,1,2.8,2.8,2.8,4.7s-1,3.7-2.7,4.7L74.8,55.1C73.8,55.8,72.5,56.1,71.3,56.1z M42.7,37.1
	l26.1,16.3c1.5,0.9,3.5,0.9,5,0l26.1-16.3c1.1-0.7,1.8-1.8,1.8-3s-0.7-2.3-1.8-3L73.7,15.4c-1.5-0.9-3.4-0.9-4.9,0L42.7,31.1
	c-1.2,0.7-1.8,1.8-1.8,3C40.9,35.3,41.5,36.4,42.7,37.1L42.7,37.1z"/>
<path class="st0" d="M19.8,42.5c0.2,0,0.3,0,0.5,0h0.6v-1.2h-0.6c-0.2,0-0.4,0-0.6,0L19.8,42.5z M23.9,42.5h1.2v-1.2h-1.2V42.5z
	 M28.2,42.5h1.2v-1.2h-1.2V42.5z M32.4,42.5h1.2v-1.2h-1.2V42.5z M113.1,42.5h1.2v-1.2h-1.2V42.5z M117.4,42.5h1.2v-1.2h-1.2V42.5z
	 M121.6,42.5h0.6c0.2,0,0.3,0,0.5,0l0.1-1.2c-0.2,0-0.4,0-0.6,0h-0.6V42.5z M16.8,44.1c0.2-0.3,0.4-0.5,0.7-0.7l-0.7-0.9
	c-0.3,0.3-0.6,0.6-0.9,0.9L16.8,44.1z M125,43.4c0.3,0.2,0.5,0.4,0.7,0.7l0.9-0.7c-0.3-0.3-0.6-0.6-0.9-0.9L125,43.4z M15.9,46.9
	c0-0.2,0-0.3,0-0.5l-1.2-0.1c0,0.2,0,0.4,0,0.6v0.6h1.2V46.9z M126.6,46.4c0,0.2,0,0.3,0,0.5v0.6h1.2v-0.6c0-0.2,0-0.4,0-0.6
	L126.6,46.4z M126.6,50.6v1.2h1.2v-1.2H126.6z M15.9,51.8v-1.2h-1.2v1.2H15.9z M126.6,54.9v1.2h1.2v-1.2H126.6z M15.9,56.1v-1.2
	h-1.2v1.2H15.9z M126.6,59.2v1.2h1.2v-1.2H126.6z M15.9,60.4v-1.2h-1.2v1.2H15.9z M15.9,64.7v-1.2h-1.2v1.2H15.9z M126.6,63.5v1.2
	h1.2v-1.2C127.8,63.5,126.6,63.5,126.6,63.5z M15.9,69.1v-1.2h-1.2v1.2H15.9z M126.6,67.8V69h1.2v-1.2H126.6z M15.9,73.4v-1.2h-1.2
	v1.2H15.9z M126.6,72.1v1.2h1.2v-1.2H126.6z M15.9,77.7v-1.2h-1.2v1.2H15.9z M126.6,76.5v1.2h1.2v-1.2H126.6z M15.9,82v-1.2h-1.2V82
	H15.9z M126.6,80.8V82h1.2v-1.2H126.6z M15.9,86.3v-1.2h-1.2v1.2H15.9z M126.6,85.1v1.2h1.2v-1.2H126.6z M15.9,90.7v-1.2h-1.2v1.2
	H15.9z M126.6,89.4v1.2h1.2v-1.2H126.6z M126.6,93.7V95h1.2v-1.2h-1.2V93.7z M15.9,95v-1.2h-1.2V95H15.9z M126.6,98.1v1.2h1.2v-1.2
	H126.6z M15.9,99.3v-1.2h-1.2v1.2H15.9z M126.6,102.4v0.6l0,0v0.6h0.6h0.6V103v-0.6H126.6z M15.9,103v-0.6h-1.2v0.6v0.6h0.6h0.6
	L15.9,103L15.9,103z M20,102.4h-1.2v1.2H20V102.4z M24.2,102.4H23v1.2h1.2V102.4z M28.3,102.4h-1.2v1.2h1.2V102.4z M32.5,102.4h-1.2
	v1.2h1.2V102.4z M36.6,102.4h-1.2v1.2h1.2V102.4z M40.7,102.4h-1.2v1.2h1.2V102.4z M44.9,102.4h-1.2v1.2h1.2V102.4z M49,102.4h-1.2
	v1.2H49V102.4z M53.2,102.4H52v1.2h1.2V102.4z M57.3,102.4h-1.2v1.2h1.2V102.4z M61.5,102.4h-1.2v1.2h1.2V102.4z M65.6,102.4h-1.2
	v1.2h1.2V102.4z M69.8,102.4h-1.2v1.2h1.2V102.4z M73.9,102.4h-1.2v1.2h1.2V102.4z M78.1,102.4h-1.2v1.2h1.2V102.4z M82.2,102.4H81
	v1.2h1.2V102.4z M86.4,102.4h-1.2v1.2h1.2V102.4z M90.5,102.4h-1.2v1.2h1.2V102.4z M94.6,102.4h-1.2v1.2h1.2V102.4z M98.8,102.4
	h-1.2v1.2h1.2V102.4z M102.9,102.4h-1.2v1.2h1.2V102.4z M107.1,102.4h-1.2v1.2h1.2V102.4z M111.2,102.4H110v1.2h1.2V102.4z
	 M115.4,102.4h-1.2v1.2h1.2V102.4z M119.5,102.4h-1.2v1.2h1.2V102.4z M123.7,102.4h-1.2v1.2h1.2V102.4z"/>
</svg>
