<?xml version="1.0" encoding="utf-8"?>
<!-- Generator: Adobe Illustrator 23.0.1, SVG Export Plug-In . SVG Version: 6.00 Build 0)  -->
<svg version="1.1" id="Layer_1" xmlns="http://www.w3.org/2000/svg" xmlns:xlink="http://www.w3.org/1999/xlink" x="0px" y="0px"
	 viewBox="0 0 110 115" style="enable-background:new 0 0 110 115;" xml:space="preserve">
<style type="text/css">
	.st0{fill:#212529;}
	.st1{fill:#93CB40;}
</style>
<path class="st0" d="M71.4,10.8l0.2-0.7c-0.5-0.2-0.9-0.3-1.4-0.4L70,10.3L69.8,11c0.4,0.1,0.9,0.3,1.3,0.4L71.4,10.8z M76.2,12.7
	l0.3-0.7c-0.4-0.2-0.9-0.4-1.3-0.6l-0.3,0.7l-0.3,0.7c0.4,0.2,0.9,0.4,1.3,0.6L76.2,12.7z M85.2,18.1l0.4-0.6
	c-0.4-0.3-0.8-0.6-1.2-0.9L84,17.2l-0.4,0.6c0.4,0.3,0.8,0.5,1.1,0.8L85.2,18.1z M89.2,21.4l0.5-0.6c-0.4-0.3-0.7-0.7-1.1-1
	l-0.5,0.6L87.7,21c0.4,0.3,0.7,0.6,1,0.9L89.2,21.4z M80.9,15.2l0.4-0.6c-0.4-0.2-0.8-0.5-1.3-0.7l-0.4,0.7l-0.4,0.7
	c0.4,0.2,0.8,0.5,1.2,0.7L80.9,15.2z M30,15.8c0.4-0.2,0.8-0.5,1.2-0.7l-0.4-0.7l-0.4-0.7c-0.4,0.2-0.8,0.5-1.3,0.7l0.4,0.6L30,15.8
	z M66.4,9.2l0.1-0.6h-0.1c0,0.1,0,0.3,0,0.4C66.4,9,66.4,9.1,66.4,9.2z M25.7,18.7c0.4-0.3,0.8-0.6,1.1-0.8l-0.4-0.6L26,16.6
	c-0.4,0.3-0.8,0.6-1.2,0.9l0.4,0.6L25.7,18.7z M34.6,13.4c0.4-0.2,0.9-0.4,1.3-0.6l-0.3-0.7l-0.3-0.7c-0.4,0.2-0.9,0.4-1.3,0.6
	l0.3,0.7L34.6,13.4z M39.3,11.5c0.4-0.2,0.9-0.3,1.3-0.4l-0.2-0.7l-0.2-0.7c-0.5,0.1-0.9,0.3-1.4,0.4l0.2,0.7L39.3,11.5z
	 M103.8,43.1C103.7,43.1,103.7,43.1,103.8,43.1L103.8,43.1L103.8,43.1z M21.8,22c0.3-0.3,0.7-0.6,1-0.9l-0.5-0.6l-0.5-0.6
	c-0.4,0.3-0.7,0.6-1.1,1l0.5,0.5L21.8,22z M104.3,48.4l0.7-0.1c-0.1-0.5-0.2-0.9-0.3-1.4L104,47l-0.7,0.2c0.1,0.5,0.2,0.9,0.3,1.4
	L104.3,48.4z M104.2,52.3c0.1,0.5,0.1,0.9,0.1,1.4l0.7-0.1l0.7-0.1c0-0.5-0.1-1-0.1-1.4l-0.7,0.1L104.2,52.3z M104.5,57.4
	c0,0.2,0,0.5,0,0.7s0,0.5,0,0.7h0.8h0.8c0-0.2,0-0.5,0-0.7s0-0.5,0-0.7h-0.8H104.5z M56.6,47.3h-2v10.1h2V47.3z M104.3,62.6
	c0,0.5-0.1,0.9-0.1,1.4l0.7,0.1l0.7,0.1c0.1-0.5,0.1-1,0.1-1.4l-0.7-0.1L104.3,62.6z M51.1,50.7l-0.2-1.9c-3.3,1.7-5.6,5.2-5.6,9.2
	c0,5.7,4.6,10.3,10.3,10.3S65.9,63.7,65.9,58c0-4-2.3-7.5-5.7-9.2L60,50.7c2.5,1.5,4.2,4.2,4.2,7.4c0,4.7-3.8,8.5-8.5,8.5
	s-8.5-3.8-8.5-8.5C46.9,54.9,48.6,52.2,51.1,50.7z M62.6,29.1l-0.3,2c6.9,1.8,12.7,6.2,16.4,12l-6.8,4.2c-2.5-3.8-6.2-6.8-10.6-8.2
	l-0.3,2c7,2.4,12,9,12,16.7c0,1.5-0.2,3-0.5,4.3l1.9,0.8c0.4-1.6,0.7-3.3,0.7-5.1c0-3.2-0.8-6.2-2.1-8.9l6.8-4.2
	c2.1,3.9,3.3,8.3,3.3,13c0,2.8-0.4,5.6-1.2,8.2l1.9,0.8C84.5,64,85,61,85,57.9c0-5.1-1.3-9.9-3.5-14.1l11.5-7l-1-1.7l-11.6,7.1
	C76.4,35.8,70.1,31,62.6,29.1z M104.8,69.4c0.1-0.5,0.2-0.9,0.3-1.4l-0.7-0.1l-0.7-0.1c-0.1,0.5-0.2,0.9-0.3,1.4l0.7,0.2H104.8z
	 M92.5,23.6l-0.2,0.1C92.4,23.7,92.5,23.7,92.5,23.6L92.5,23.6z M103.7,73.3c0-0.1,0-0.1,0-0.2l-0.7-0.2c0.1,0.1,0.2,0.1,0.3,0.2
	C103.5,73.1,103.6,73.2,103.7,73.3z M88.7,94.3c-0.3,0.3-0.7,0.6-1,0.9l0.5,0.6l0.5,0.6c0.4-0.3,0.7-0.6,1.1-1l-0.5-0.6L88.7,94.3z
	 M74.4,77.9c-4.8,4.6-11.3,7.5-18.4,7.7v-8c4.6-0.2,8.7-1.9,12-4.6l-1.6-1.3c-3,2.5-6.9,3.9-11.1,3.9c-4.3,0-8.3-1.6-11.4-4.1
	l-1.6,1.2c3.2,2.8,7.3,4.6,11.8,4.8v8c-7.1-0.3-13.5-3.3-18.2-7.9l-1.6,1.2c5.1,5.1,12.1,8.4,19.8,8.7v14h2v-14
	c7.8-0.2,14.8-3.4,20-8.5L74.4,77.9z M66.4,107.4c0,0.1,0,0.1,0,0.2h0.1l-0.1-0.6C66.4,107.1,66.4,107.3,66.4,107.4z M39.1,105.5
	l-0.2,0.7c0.5,0.2,0.9,0.3,1.4,0.4l0.2-0.7l0.2-0.7c-0.4-0.1-0.9-0.3-1.3-0.4L39.1,105.5z M34.2,103.5l-0.3,0.7
	c0.4,0.2,0.9,0.4,1.3,0.6l0.3-0.7l0.3-0.7c-0.4-0.2-0.9-0.4-1.3-0.6L34.2,103.5z M29.6,101.1l-0.4,0.6c0.4,0.2,0.8,0.5,1.3,0.7
	l0.4-0.7l0.4-0.7c-0.4-0.2-0.8-0.5-1.2-0.7L29.6,101.1z M71.1,104.8c-0.4,0.2-0.9,0.3-1.3,0.4l0.2,0.7l0.2,0.7
	c0.5-0.1,0.9-0.3,1.4-0.4l-0.2-0.7L71.1,104.8z M25.3,98.2l-0.4,0.6c0.4,0.3,0.8,0.6,1.2,0.9l0.4-0.6l0.4-0.6
	c-0.4-0.3-0.8-0.5-1.1-0.8L25.3,98.2z M84.8,97.6c-0.4,0.3-0.8,0.6-1.1,0.8l0.4,0.6l0.4,0.6c0.4-0.3,0.8-0.6,1.2-0.9l-0.4-0.6
	L84.8,97.6z M106.1,81c-0.6-2.2-2-4.1-4-5.2s-4.3-1.5-6.5-0.9c-1.9,0.5-3.6,1.7-4.7,3.2L70.5,66.6l-1,1.7l20.3,11.5
	c-1.6,3.9-0.2,8.6,3.6,10.8c1.3,0.8,2.8,1.2,4.3,1.2c0.7,0,1.5-0.1,2.2-0.3c2.2-0.6,4.1-2,5.2-4S106.7,83.2,106.1,81z M103.5,86.5
	c-0.9,1.5-2.3,2.6-4,3.1s-3.5,0.2-5-0.7c-3.2-1.8-4.2-5.9-2.4-9c0.9-1.5,2.3-2.6,4-3.1c0.6-0.2,1.1-0.2,1.7-0.2
	c1.1,0,2.3,0.3,3.3,0.9c1.5,0.9,2.6,2.3,3.1,4C104.6,83.2,104.3,85,103.5,86.5z M80.5,100.4c-0.4,0.2-0.8,0.5-1.2,0.7l0.4,0.7
	l0.4,0.7c0.4-0.2,0.8-0.5,1.3-0.7l-0.4-0.6L80.5,100.4z M75.9,102.8c-0.4,0.2-0.9,0.4-1.3,0.6l0.3,0.7l0.3,0.7
	c0.4-0.2,0.9-0.4,1.3-0.6l-0.3-0.7L75.9,102.8z M6.9,48.6c0.1-0.5,0.2-0.9,0.3-1.4L6.5,47l-0.7-0.2c-0.1,0.5-0.2,0.9-0.3,1.4
	l0.7,0.1L6.9,48.6z M6.9,73.1L6.9,73.1L6.9,73.1L6.9,73.1C6.8,73.1,6.8,73.1,6.9,73.1z M6.2,62.6l-0.7,0.1l-0.7,0.1
	c0,0.5,0.1,1,0.1,1.4l0.7-0.1L6.3,64C6.3,63.5,6.2,63,6.2,62.6z M6.9,67.7l-0.7,0.1L5.4,68c0.1,0.5,0.2,0.9,0.3,1.4l0.7-0.2L7.1,69
	C7.1,68.6,7,68.1,6.9,67.7z M21.2,94.8l-0.5,0.6c0.4,0.3,0.7,0.7,1.1,1l0.5-0.6l0.5-0.6c-0.4-0.3-0.7-0.6-1-0.9L21.2,94.8z
	 M25.6,57.9c0,3,0.4,5.9,1.3,8.6l1.9-0.8c-0.7-2.5-1.1-5.1-1.1-7.8c0-4.7,1.2-9.2,3.3-13.1l6.8,4.1c-1.4,2.7-2.2,5.7-2.2,9
	c0,1.6,0.2,3.2,0.6,4.7l1.9-0.8c-0.3-1.3-0.4-2.6-0.4-4c0-7.9,5.1-14.5,12.2-16.8l-0.3-2c-4.5,1.4-8.3,4.3-10.8,8.2L32,43.1
	c3.7-5.9,9.6-10.3,16.6-12l-0.3-2c-7.6,1.8-14,6.6-18,13L18.5,35l-1,1.7l11.7,7.1C26.9,48,25.6,52.8,25.6,57.9z M18.5,24.1L18,23.6
	l-0.1,0.1c0.1,0,0.1,0.1,0.2,0.1C18.3,23.9,18.4,24,18.5,24.1z M6.2,53.7c0-0.5,0.1-0.9,0.1-1.4l-0.7-0.1l-0.7-0.1
	c-0.1,0.5-0.1,1-0.1,1.4l0.7,0.1L6.2,53.7z M18,92.6L18,92.6L18,92.6L18,92.6z M40.8,68l-1-1.7c-0.1,0.1-9,5.5-21,12.4
	c-2.6-3.3-7.3-4.2-11-2.1C3.7,79,2.3,84.2,4.7,88.3c1.1,2,3,3.4,5.2,4c0.7,0.2,1.5,0.3,2.2,0.3c1.5,0,3-0.4,4.3-1.2
	c3.9-2.3,5.4-7.1,3.5-11.1C31.8,73.4,40.7,68,40.8,68z M15.4,89.7c-1.5,0.9-3.3,1.1-5,0.7c-1.7-0.5-3.1-1.5-4-3.1
	c-1.8-3.2-0.7-7.2,2.4-9c3.2-1.8,7.2-0.7,9,2.4C19.6,83.8,18.5,87.9,15.4,89.7z M5.2,58.8h0.7c0-0.2,0-0.5,0-0.7s0-0.5,0-0.7H5.2
	H4.5c0,0.2,0,0.5,0,0.7s0,0.5,0,0.7H5.2z M46.6,10.1c0,0.2,0,0.4,0.1,0.5c0,0.1,0.1,0.2,0.1,0.4c0,0.1,0.1,0.3,0.1,0.4
	c0,0.1,0.1,0.3,0.1,0.4c0,0.1,0.1,0.2,0.1,0.4c0.1,0.1,0.1,0.3,0.2,0.4c0,0.1,0.1,0.2,0.1,0.3c0.1,0.1,0.2,0.3,0.3,0.4
	c0.1,0.1,0.1,0.2,0.2,0.3c0.1,0.2,0.2,0.3,0.3,0.4c0,0.1,0.1,0.1,0.1,0.2c0.1,0.2,0.3,0.3,0.4,0.5l0.1,0.1c0.1,0.2,0.3,0.3,0.5,0.4
	l0.1,0.1c0.2,0.1,0.3,0.3,0.5,0.4c0,0,0.1,0,0.1,0.1c0.2,0.1,0.4,0.3,0.6,0.4c0,0,0,0,0.1,0c0.2,0.1,0.4,0.2,0.7,0.4l0,0
	c0.2,0.1,0.5,0.2,0.7,0.3l0,0c0.3,0.1,0.5,0.2,0.8,0.2l0,0c0.5,0.1,1.1,0.2,1.6,0.3v23h2v-23c0.2,0,0.5-0.1,0.7-0.2c0,0,0,0,0.1,0
	c0.2-0.1,0.4-0.1,0.7-0.2c0,0,0,0,0.1,0c0.2-0.1,0.4-0.2,0.6-0.3c0,0,0,0,0.1,0c0.2-0.1,0.4-0.2,0.6-0.3l0,0
	c0.8-0.5,1.6-1.1,2.2-1.8l0.1-0.1c0.1-0.1,0.2-0.3,0.3-0.4c0.1-0.1,0.1-0.2,0.2-0.2c0.1-0.1,0.2-0.2,0.2-0.4
	c0.1-0.1,0.1-0.2,0.2-0.3c0.1-0.1,0.1-0.2,0.2-0.4c0.1-0.1,0.1-0.2,0.2-0.4c0.1-0.1,0.1-0.2,0.2-0.4c0.1-0.1,0.1-0.3,0.1-0.4
	c0-0.1,0.1-0.2,0.1-0.3c0-0.2,0.1-0.3,0.1-0.5c0-0.1,0.1-0.2,0.1-0.3c0-0.2,0.1-0.4,0.1-0.5s0-0.2,0-0.3c0-0.3,0-0.6,0-0.8
	c0-4.7-3.9-8.6-8.6-8.6S46.5,4.2,46.5,9c0,0.3,0,0.6,0,0.9C46.6,9.9,46.6,10,46.6,10.1z M55.1,2.4c3.6,0,6.6,3,6.6,6.6
	s-3,6.6-6.6,6.6s-6.6-3-6.6-6.6C48.5,5.3,51.5,2.4,55.1,2.4z"/>
<circle class="st1" cx="55.2" cy="107.5" r="6.7"/>
<path class="st1" d="M16.7,27.1c3.2,1.8,4.3,5.9,2.4,9.1c-1.8,3.2-5.9,4.3-9.1,2.4c-3.2-1.8-4.3-5.9-2.4-9.1S13.5,25.3,16.7,27.1z"
	/>
<circle class="st1" cx="97.5" cy="33.4" r="6.7"/>
</svg>
