<?xml version="1.0" encoding="utf-8"?>
<!-- Generator: Adobe Illustrator 23.0.1, SVG Export Plug-In . SVG Version: 6.00 Build 0)  -->
<svg version="1.1" id="Layer_1" xmlns="http://www.w3.org/2000/svg" xmlns:xlink="http://www.w3.org/1999/xlink" x="0px" y="0px"
	 viewBox="0 0 119 116" style="enable-background:new 0 0 119 116;" xml:space="preserve">
<style type="text/css">
	.st0{fill:#212529;}
	.st1{fill-rule:evenodd;clip-rule:evenodd;fill:#212529;}
	.st2{fill:#93CB40;}
	.st3{fill:#FFFFFF;}
	.st4{fill:none;stroke:#93CB40;stroke-width:2;}
</style>
<g>
	<path class="st0" d="M27.1,45.1h-1.2v-1.2h1.2V45.1z M22.9,45.1h-1.2v-1.2h1.2V45.1z M18.7,45.1h-1.2v-1.2h1.2V45.1z M14.5,45.1
		h-1.2v-1.2h1.2V45.1z M10.3,45.1H9.4c-0.1,0-0.3,0-0.4,0l0.2-1.2c0.1,0,0.2,0,0.2,0h0.9C10.3,43.9,10.3,45.1,10.3,45.1z M30.3,43.9
		l-1-0.7c0.2-0.2,0.3-0.5,0.3-0.8l1.2,0.2C30.8,43,30.6,43.5,30.3,43.9z M6.5,42.6c0-0.2-0.1-0.4-0.1-0.6v-0.7h1.2V42
		c0,0.1,0,0.2,0,0.3L6.5,42.6z M30.9,39.4h-1.2v-1.2h1.2V39.4z M7.6,38.3H6.4v-1.2h1.2C7.6,37.1,7.6,38.3,7.6,38.3z M30.9,35.2h-1.2
		V34h1.2V35.2z M7.6,34.1H6.4v-1.2h1.2C7.6,32.9,7.6,34.1,7.6,34.1z M30.9,31h-1.2v-1.2h1.2V31z M7.6,29.9H6.4v-1.2h1.2
		C7.6,28.7,7.6,29.9,7.6,29.9z M30.9,26.8h-1.2v-1.2h1.2V26.8z M7.6,25.7H6.4v-1.2h1.2C7.6,24.5,7.6,25.7,7.6,25.7z M29.7,22.6
		c0-0.3-0.1-0.6-0.2-0.9l1-0.6c0.2,0.4,0.4,0.9,0.4,1.4L29.7,22.6z M7.8,21.8l-1.1-0.5c0.2-0.4,0.6-0.8,1-1.1l0.7,1
		C8.2,21.4,8,21.6,7.8,21.8z M27.4,20.9h-1.2v-1.2h1.2V20.9z M23.2,20.9H22v-1.2h1.2V20.9z M19,20.9h-1.2v-1.2H19V20.9z M14.8,20.9
		h-1.2v-1.2h1.2V20.9z M10.6,20.9H9.4v-1.2h1.2C10.6,19.7,10.6,20.9,10.6,20.9z"/>
</g>
<g>
	<path class="st0" d="M84.5,10.5H56.3L56,10.1c-0.2-0.2-4.8-5.6-6.5-8.1L51,0.9c1.4,2,5.1,6.3,6.1,7.6h27.3v2H84.5z"/>
</g>
<path class="st1" d="M34.5,6.5h-28c-3.3,0-6,2.7-6,6v91.3c0,3.3,2.7,6,6,6h28.1v-2H6.5c-2.2,0-4-1.8-4-4V12.5c0-2.2,1.8-4,4-4h28.1
	L34.5,6.5L34.5,6.5z"/>
<circle class="st0" cx="15.3" cy="27.2" r="3.4"/>
<circle class="st0" cx="15.3" cy="37.3" r="3.4"/>
<path class="st2" d="M26.5,32.3c0,1.9-1.5,3.4-3.4,3.4s-3.4-1.5-3.4-3.4c0-1.9,1.5-3.4,3.4-3.4S26.5,30.4,26.5,32.3z"/>
<path class="st2" d="M49.4,97.4h4.3c1.7,0,3,1.3,3,3v4.3c0,1.7-1.3,3-3,3h-4.3c-1.7,0-3-1.3-3-3v-4.3C46.4,98.7,47.7,97.4,49.4,97.4
	z"/>
<g>
	<path class="st0" d="M94.3,107.7H90c-1.7,0-3-1.3-3-3v-4.3c0-1.7,1.3-3,3-3h4.3c1.7,0,3,1.3,3,3v4.3
		C97.3,106.3,96,107.7,94.3,107.7z M90,98.6c-1,0-1.8,0.8-1.8,1.8v4.3c0,1,0.8,1.8,1.8,1.8h4.3c1,0,1.8-0.8,1.8-1.8v-4.3
		c0-1-0.8-1.8-1.8-1.8H90z"/>
</g>
<g>
	<path class="st0" d="M80.8,107.7h-4.3c-1.7,0-3-1.3-3-3v-4.3c0-1.7,1.3-3,3-3h4.3c1.7,0,3,1.3,3,3v4.3
		C83.8,106.3,82.4,107.7,80.8,107.7z M76.5,98.6c-1,0-1.8,0.8-1.8,1.8v4.3c0,1,0.8,1.8,1.8,1.8h4.3c1,0,1.8-0.8,1.8-1.8v-4.3
		c0-1-0.8-1.8-1.8-1.8H76.5z"/>
</g>
<g>
	<path class="st0" d="M67.2,107.7h-4.3c-1.7,0-3-1.3-3-3v-4.3c0-1.7,1.3-3,3-3h4.3c1.7,0,3,1.3,3,3v4.3
		C70.2,106.3,68.9,107.7,67.2,107.7z M62.9,98.6c-1,0-1.8,0.8-1.8,1.8v4.3c0,1,0.8,1.8,1.8,1.8h4.3c1,0,1.8-0.8,1.8-1.8v-4.3
		c0-1-0.8-1.8-1.8-1.8H62.9z"/>
</g>
<g>
	<path class="st0" d="M21.9,99.5h-3.1v-2h3.1V99.5z M17.3,99.5H6.4v-2h10.9V99.5z"/>
</g>
<path class="st3" d="M92,66.6L92,66.6L92,66.6l-6,5.6c0-1,0.1-2.4,0.1-4.3c0.1-2.9-2.3-5.4-5.2-5.3c-2.3,0-4.9,0-7,0
	c-1.6,0-2.9-1.3-2.9-3v-26c0-1.7,1.3-3,3-3h40.5c1.7,0,3,1.3,3,3v25.9c0,1.7-1.3,3-3,3H98.6c-1.2,0-2.4,0.5-3.4,1.3L92,66.6z"/>
<path class="st0" d="M85,74.5v-2.4c0-1,0.1-2.4,0.1-4.4c0-1.1-0.4-2.2-1.2-3c-0.8-0.8-1.9-1.3-3-1.3l0,0c-2.3,0-4.9,0-7,0
	c-2.2,0-3.9-1.8-3.9-4v-26c0-2.2,1.8-4,4-4h40.5c2.2,0,4,1.8,4,4v25.9c0,2.2-1.8,4-4,4H98.6c-1,0-1.9,0.4-2.7,1l-3.3,3L85,74.5z
	 M80.9,61.5c1.7,0,3.3,0.7,4.5,1.9c1.2,1.2,1.8,2.8,1.7,4.5c0,0.7-0.1,1.4-0.1,1.9l4.2-3.9l3.3-2.9c1.1-1,2.5-1.5,4-1.5h15.9
	c1.1,0,2-0.9,2-2v-26c0-1.1-0.9-2-2-2H74c-1.1,0-2,0.9-2,2v26c0,1.1,0.9,2,1.9,2C76,61.5,78.6,61.5,80.9,61.5L80.9,61.5z"/>
<path class="st4" d="M78.9,42c0,0,3,0,10.9,0 M91.3,42h18.1 M82,46.8h22.8 M106.3,46.8c7.9,0-4.9,0,3,0 M86.6,51.4h22.8"/>
<path class="st1" d="M46.6,2.9H97c2.2,0,4,1.8,4,4v18.5h2V6.9c0-3.3-2.7-6-6-6H46.6c-3.3,0-6,2.7-6,6v102.5c0,3.3,2.7,6,6,6H97
	c3.3,0,6-2.7,6-6V73h-2v36.4c0,2.2-1.8,4-4,4H46.6c-2.2,0-4-1.8-4-4V6.9C42.6,4.7,44.4,2.9,46.6,2.9z"/>
</svg>
