<?xml version="1.0" encoding="utf-8"?>
<!-- Generator: Adobe Illustrator 23.0.1, SVG Export Plug-In . SVG Version: 6.00 Build 0)  -->
<svg version="1.1" id="Layer_1" xmlns="http://www.w3.org/2000/svg" xmlns:xlink="http://www.w3.org/1999/xlink" x="0px" y="0px"
	 viewBox="0 0 130 106" style="enable-background:new 0 0 130 106;" xml:space="preserve">
<style type="text/css">
	.st0{fill:none;stroke:#93CB40;stroke-width:2;}
	.st1{fill-rule:evenodd;clip-rule:evenodd;fill:#212529;}
	.st2{fill:#212529;}
</style>
<path class="st0" d="M74.2,41.2c1.3,0.8,1.3,2.7,0,3.5L51.1,58c-1.3,0.8-3-0.2-3-1.7V29.5c0-1.5,1.7-2.5,3-1.7L74.2,41.2z"/>
<path class="st1" d="M56.5,89.1h-2.9v2h2.9V89.1z M59.9,91.1h2.9v-2h-2.9V91.1z M66.1,89.1v2H92c1,0,1.8,0.8,1.8,1.8
	S93,94.8,92,94.8H24.4c-1,0-1.8-0.8-1.8-1.8s0.8-1.8,1.8-1.8h25.9v-2H24.4c-2.1,0-3.8,1.7-3.8,3.8s1.7,3.8,3.8,3.8H92
	c2.1,0,3.8-1.7,3.8-3.8s-1.7-3.8-3.8-3.8L66.1,89.1L66.1,89.1z"/>
<g>
	<path class="st2" d="M123.7,105.4h-17.4c-3.3,0-6-2.7-6-6V50.1c0-3.3,2.7-6,6-6h17.4c3.3,0,6,2.7,6,6v49.3
		C129.7,102.7,127,105.4,123.7,105.4z M106.3,46.1c-2.2,0-4,1.8-4,4v49.3c0,2.2,1.8,4,4,4h17.4c2.2,0,4-1.8,4-4V50.1
		c0-2.2-1.8-4-4-4H106.3z"/>
</g>
<path class="st1" d="M10.7,76.8l-0.2,0.7c0.3,0.1,0.6,0.1,0.9,0.1h0.8v-0.8V76h-0.8c-0.2,0-0.4,0-0.5-0.1L10.7,76.8z M108.3,13.7
	h0.8v-0.8c0-0.3,0-0.6-0.1-0.9l-0.7,0.2l-0.7,0.2c0,0.2,0.1,0.3,0.1,0.5v0.8H108.3z M11.4,8.9h0.8v0.8v0.7h-0.8
	c-0.2,0-0.4,0-0.5,0.1l-0.2-0.7L10.5,9C10.8,9,11.1,8.9,11.4,8.9z M8.1,72.9H7.4v0.8c0,0.3,0,0.6,0.1,0.9l0.7-0.2l0.7-0.2
	c0-0.2-0.1-0.3-0.1-0.5v-0.8C8.8,72.9,8.1,72.9,8.1,72.9z M8.1,68.9H7.4v-1.5h0.7h0.8v1.5H8.1z M8.1,63.4H7.4v-1.5h0.7h0.8v1.5H8.1z
	 M8.1,57.9H7.4v-1.5h0.7h0.8v1.5H8.1z M8.1,52.3H7.4v-1.5h0.7h0.8v1.5H8.1z M8.1,46.8H7.4v-1.5h0.7h0.8v1.5H8.1z M8.1,41.3H7.4v-1.5
	h0.7h0.8v1.5H8.1z M8.1,35.8H7.4v-1.5h0.7h0.8v1.5H8.1z M8.1,30.3H7.4v-1.5h0.7h0.8v1.5H8.1z M8.1,24.7H7.4v-1.5h0.7h0.8v1.5H8.1z
	 M8.1,19.2H7.4v-1.5h0.7h0.8v1.5H8.1z M8.1,13.7H7.4v-0.8c0-0.3,0-0.6,0.1-0.9l0.7,0.2l0.7,0.2c0,0.2-0.1,0.3-0.1,0.5v0.8H8.1z
	 M16.1,9.7V8.9h1.5v0.8v0.7h-1.5V9.7z M21.6,9.7V8.9h1.5v0.8v0.7h-1.5V9.7z M27.1,9.7V8.9h1.5v0.8v0.7h-1.5V9.7z M32.7,9.7V8.9h1.5
	v0.8v0.7h-1.5V9.7z M38.2,9.7V8.9h1.5v0.8v0.7h-1.5V9.7z M43.7,9.7V8.9h1.5v0.8v0.7h-1.5V9.7z M49.2,9.7V8.9h1.5v0.8v0.7h-1.5V9.7z
	 M54.7,9.7V8.9h1.5v0.8v0.7h-1.5V9.7z M60.2,9.7V8.9h1.5v0.8v0.7h-1.5V9.7z M65.7,9.7V8.9h1.5v0.8v0.7h-1.5V9.7z M71.2,9.7V8.9h1.5
	v0.8v0.7h-1.5V9.7z M76.7,9.7V8.9h1.5v0.8v0.7h-1.5V9.7z M82.2,9.7V8.9h1.5v0.8v0.7h-1.5V9.7z M87.8,9.7V8.9h1.5v0.8v0.7h-1.5V9.7z
	 M93.3,9.7V8.9h1.5v0.8v0.7h-1.5V9.7z M98.8,9.7V8.9h1.5v0.8v0.7h-1.5V9.7z M104.3,9.7V8.9h0.8c0.3,0,0.6,0,0.9,0.1l-0.2,0.7
	l-0.2,0.7c-0.2,0-0.3-0.1-0.5-0.1h-0.8C104.3,10.3,104.3,9.7,104.3,9.7z M108.3,17.7h0.8v1.5h-0.8h-0.8v-1.5H108.3z M108.3,23.2h0.8
	v1.5h-0.8h-0.8v-1.5H108.3z M108.3,28.8h0.8v1.5h-0.8h-0.8v-1.5H108.3z M108.3,34.3h0.8v1.5h-0.8h-0.8v-1.5H108.3z M94.8,76.9v0.8
	h-1.5v-0.8v-0.8h1.5V76.9z M89.3,76.9v0.8h-1.5v-0.8v-0.8h1.5V76.9z M83.7,76.9v0.8h-1.5v-0.8v-0.8h1.5V76.9z M78.2,76.9v0.8h-1.5
	v-0.8v-0.8h1.5V76.9z M72.7,76.9v0.8h-1.5v-0.8v-0.8h1.5V76.9z M67.2,76.9v0.8h-1.5v-0.8v-0.8h1.5V76.9z M61.7,76.9v0.8h-1.5v-0.8
	v-0.8h1.5V76.9z M56.2,76.9v0.8h-1.5v-0.8v-0.8h1.5V76.9z M50.7,76.9v0.8h-1.5v-0.8v-0.8h1.5V76.9z M45.2,76.9v0.8h-1.5v-0.8v-0.8
	h1.5V76.9z M39.7,76.9v0.8h-1.5v-0.8v-0.8h1.5V76.9z M34.2,76.9v0.8h-1.5v-0.8v-0.8h1.5V76.9z M28.7,76.9v0.8h-1.5v-0.8v-0.8h1.5
	V76.9z M23.1,76.9v0.8h-1.5v-0.8v-0.8h1.5V76.9z M17.6,76.9v0.8h-1.5v-0.8v-0.8h1.5V76.9z"/>
<path class="st1" d="M6,2.9h104.4c2.2,0,4,1.8,4,4v31h2v-31c0-3.3-2.7-6-6-6H6c-3.3,0-6,2.7-6,6v72.8c0,3.3,2.7,6,6,6h90.9v-2H6
	c-2.2,0-4-1.8-4-4V6.9C2,4.7,3.8,2.9,6,2.9z"/>
<circle class="st0" cx="114.9" cy="58.8" r="5.7"/>
<circle class="st2" cx="107.7" cy="71.7" r="1.7"/>
<circle class="st2" cx="115" cy="71.7" r="1.7"/>
<circle class="st2" cx="122.4" cy="71.7" r="1.7"/>
<circle class="st2" cx="107.7" cy="79.1" r="1.7"/>
<circle class="st2" cx="115" cy="79.1" r="1.7"/>
<circle class="st2" cx="122.4" cy="79.1" r="1.7"/>
<circle class="st2" cx="107.7" cy="86.5" r="1.7"/>
<circle class="st2" cx="115" cy="86.5" r="1.7"/>
<circle class="st2" cx="122.4" cy="86.5" r="1.7"/>
<circle class="st2" cx="107.7" cy="93.8" r="1.7"/>
<circle class="st2" cx="115" cy="93.8" r="1.7"/>
<circle class="st2" cx="122.4" cy="93.8" r="1.7"/>
</svg>
