<?xml version="1.0" encoding="utf-8"?>
<!-- Generator: Adobe Illustrator 23.0.1, SVG Export Plug-In . SVG Version: 6.00 Build 0)  -->
<svg version="1.1" id="Layer_1" xmlns="http://www.w3.org/2000/svg" xmlns:xlink="http://www.w3.org/1999/xlink" x="0px" y="0px"
	 viewBox="0 0 79 115" style="enable-background:new 0 0 79 115;" xml:space="preserve">
<style type="text/css">
	.st0{fill:#93CB40;}
	.st1{fill:#FFFFFF;}
	.st2{fill:#212529;}
</style>
<g>
	<path class="st0" d="M53.3,64.7c-6.2,0-11.2-5-11.2-11.2s5-11.2,11.2-11.2s11.2,5,11.2,11.2C64.5,59.6,59.5,64.7,53.3,64.7z
		 M53.3,44.2c-5.1,0-9.2,4.1-9.2,9.2s4.1,9.2,9.2,9.2s9.2-4.1,9.2-9.2S58.3,44.2,53.3,44.2z"/>
</g>
<circle class="st1" cx="15.5" cy="43.6" r="2"/>
<path class="st0" d="M15.5,46.1c-1.4,0-2.5-1.1-2.5-2.5s1.1-2.5,2.5-2.5s2.5,1.1,2.5,2.5S16.9,46.1,15.5,46.1z M15.5,42
	c-0.8,0-1.5,0.7-1.5,1.5s0.7,1.5,1.5,1.5c0.8,0,1.5-0.7,1.5-1.5S16.4,42,15.5,42z"/>
<path class="st2" d="M9.1,29.9l-1-0.7c-0.3,0.3-0.5,0.7-0.7,1.1l1.1,0.6C8.7,30.5,8.9,30.2,9.1,29.9z M7.5,35.1c0-0.2,0-0.5,0-0.7
	l-1.2-0.1c0,0.3,0,0.5,0,0.8v0.5h1.2V35.1z M7.5,44.7H6.3v1.2h1.2V44.7z M7.5,70.7H6.3v1.2h1.2V70.7z M7.5,65.5H6.3v1.2h1.2V65.5z
	 M7.5,75.9H6.3v1.2h1.2V75.9z M7.5,60.3H6.3v1.2h1.2V60.3z M7.5,39.5H6.3v1.2h1.2V39.5z M15.5,76c1.4,0,2.5-1.1,2.5-2.5
	S16.9,71,15.5,71S13,72.1,13,73.5S14.1,76,15.5,76z M15.5,71.9c0.8,0,1.5,0.7,1.5,1.5S16.4,75,15.5,75c-0.8,0-1.5-0.7-1.5-1.5
	S14.7,71.9,15.5,71.9z M7.5,55.1H6.3v1.2h1.2V55.1z M7.5,49.9H6.3v1.2h1.2V49.9z M48.7,25.1h-1.2v1.2h1.2V25.1z M38.3,25.1H37v1.2
	h1.2L38.3,25.1L38.3,25.1z M33,25.1h-1.2v1.2H33V25.1z M37,45.7c3.6,0,6.5-2.9,6.5-6.5s-2.9-6.5-6.5-6.5s-6.5,2.9-6.5,6.5
	S33.4,45.7,37,45.7z M37,34.7c2.5,0,4.5,2,4.5,4.5s-2,4.5-4.5,4.5s-4.5-2-4.5-4.5S34.5,34.7,37,34.7z M43.5,25.1h-1.2v1.2h1.2V25.1z
	 M6.3,81.2c0,0.4,0,0.8,0.1,1.2l1.2-0.1c0-0.4-0.1-0.7-0.1-1.1H6.3z M15.5,38.6c1.4,0,2.5-1.1,2.5-2.5s-1.1-2.5-2.5-2.5
	S13,34.7,13,36.1S14.1,38.6,15.5,38.6z M15.5,34.6c0.8,0,1.5,0.7,1.5,1.5s-0.7,1.5-1.5,1.5c-0.8,0-1.5-0.7-1.5-1.5
	S14.7,34.6,15.5,34.6z M15.5,53.6c1.4,0,2.5-1.1,2.5-2.5s-1.1-2.5-2.5-2.5S13,49.6,13,51S14.1,53.6,15.5,53.6z M15.5,49.5
	c0.8,0,1.5,0.7,1.5,1.5s-0.7,1.5-1.5,1.5c-0.8,0-1.5-0.7-1.5-1.5S14.7,49.5,15.5,49.5z M15.5,61.1c1.4,0,2.5-1.1,2.5-2.5
	s-1.1-2.5-2.5-2.5s-2.5,1-2.5,2.4S14.1,61.1,15.5,61.1z M15.5,57c0.8,0,1.5,0.7,1.5,1.5S16.3,60,15.5,60c-0.8,0-1.5-0.7-1.5-1.5
	S14.7,57,15.5,57z M27.9,25.1h-1.2v1.2h1.2V25.1z M15.5,68.5c1.4,0,2.5-1.1,2.5-2.5s-1.1-2.5-2.5-2.5S13,64.6,13,66
	S14.1,68.5,15.5,68.5z M15.5,64.5c0.8,0,1.5,0.7,1.5,1.5s-0.7,1.5-1.5,1.5c-0.8,0-1.5-0.7-1.5-1.5S14.7,64.5,15.5,64.5z M17.5,25.1
	h-1.2v1.2h1.2V25.1z M68.8,45.3H70v-1.2h-1.2V45.3z M59,25.1h-1.2v1.2H59V25.1z M67.2,86.2l1,0.7c0.2-0.3,0.5-0.7,0.7-1.1l-1.1-0.6
	C67.6,85.6,67.4,85.9,67.2,86.2z M68.4,29.7c-0.2-0.4-0.5-0.7-0.8-1l-0.9,0.8c0.2,0.3,0.5,0.6,0.7,0.9L68.4,29.7z M68.8,81.2
	c0,0.2,0,0.3,0,0.5l1.2,0.1c0-0.2,0-0.4,0-0.6v-0.7h-1.2V81.2z M58.6,91.2h1.2V90h-1.2V91.2z M68.8,76.5H70v-1.2h-1.2V76.5z
	 M70,34.9c0-0.4,0-0.9-0.1-1.3l-1.2,0.2c0.1,0.4,0.1,0.7,0.1,1.1H70z M64.4,26.1c-0.4-0.2-0.8-0.3-1.2-0.5l-0.4,1.1
	c0.4,0.1,0.7,0.3,1,0.4L64.4,26.1z M63.5,89.3l0.5,1.1c0.4-0.2,0.8-0.4,1.1-0.6l-0.6-1C64.2,89,63.8,89.1,63.5,89.3z M68.8,50.5H70
	v-1.2h-1.2V50.5z M68.8,40.1H70v-1.2h-1.2V40.1z M79,49.3v-8.6c0-1.8-1.5-3.3-3.4-3.4v-3.1c0-5.3-3-10-7.4-12.4
	c-1.9-1.4-3.8-3.7-5.8-6.8c-2.2-3.4-3.8-6.8-4.4-8.1l0,0c-1.2-2.7-3.9-4.7-7.1-5.2c-3.8-0.6-8-0.9-12.7-0.9s-8.9,0.3-12.7,0.9
	c-3.2,0.5-5.9,2.4-7.1,5.2c-0.6,1.3-2.2,4.6-4.4,8.1c-1.9,2.9-3.7,5.1-5.5,6.5c-4.7,2.2-8,7.1-8,12.6v47.8c0,5.7,3.5,10.7,8.4,12.8
	c1.6,1.4,3.3,3.5,5.1,6.2c2.2,3.4,3.8,6.8,4.4,8.1c1.2,2.6,3.7,4.5,6.7,5.1l0,0l0.8,0.1l0,0c3.7,0.5,7.8,0.8,12.3,0.8
	s8.6-0.3,12.3-0.8l0,0l0.8-0.1l0,0c3-0.6,5.5-2.5,6.7-5.1c0.6-1.3,2.2-4.6,4.4-8.1c1.8-2.8,3.6-5,5.4-6.4c4.7-2.3,7.9-7.1,7.9-12.6
	v-5c0.5-0.1,1.1-0.2,1.5-0.5c0.3-0.2,0.6-0.4,0.7-0.5c0.2-0.2,0.3-0.4,0.3-0.7V63.1c0-0.2-0.1-0.5-0.3-0.7c-0.2-0.2-0.4-0.4-0.7-0.5
	c-0.5-0.3-1.1-0.4-1.5-0.5v-8.7C77.5,52.6,79,51.1,79,49.3z M75.6,38c1.5,0.1,2.6,1.3,2.6,2.6v8.6c0,1.4-1.2,2.5-2.6,2.6V38z
	 M14.6,15.4c2.2-3.5,3.9-6.9,4.4-8.2c1.1-2.5,3.6-4.3,6.5-4.7c3.7-0.6,8-0.9,12.6-0.9s8.8,0.3,12.6,0.9c2.9,0.4,5.4,2.2,6.5,4.7
	c0.6,1.3,2.2,4.7,4.4,8.2c1.4,2.2,2.8,4,4.2,5.4c-1.1-0.3-2.2-0.5-3.3-0.6l-0.6-0.7c-2.4-3-4.6-6.8-6.7-11.5l0,0
	c-0.9-1.9-2.7-3.2-4.9-3.6c-3.6-0.6-7.7-0.8-12.2-0.8s-8.6,0.3-12.2,0.8c-2.2,0.3-4,1.7-4.9,3.6c-2.1,4.7-4.3,8.5-6.7,11.5l-0.6,0.7
	c-1.1,0.1-2.2,0.2-3.2,0.5C11.9,19.3,13.3,17.6,14.6,15.4z M61.3,19.9L61.3,19.9H61c-0.2,0-0.4,0-0.6,0H15.9c-0.2,0-0.4,0-0.6,0H15
	c2.4-3.1,4.7-6.9,6.8-11.7c0.7-1.6,2.3-2.8,4.3-3.1c3.6-0.5,7.6-0.8,12.1-0.8s8.5,0.3,12.1,0.8c1.9,0.3,3.5,1.4,4.3,3.1
	C56.6,13,58.9,16.9,61.3,19.9z M61.6,100.5c-2.2,3.5-3.8,6.9-4.4,8.2c-1.1,2.5-3.6,4.3-6.5,4.7h-0.1c-3.7,0.6-7.9,0.8-12.5,0.8
	s-8.8-0.3-12.5-0.8h-0.1c-2.9-0.4-5.4-2.2-6.5-4.7c-0.6-1.3-2.2-4.7-4.4-8.2c-1.3-2-2.6-3.7-3.9-5.1c1,0.3,2.1,0.5,3.2,0.5l0.5,0.6
	c2.4,3,4.6,6.8,6.7,11.5c0.9,1.9,2.7,3.2,4.9,3.6c3.6,0.5,7.8,0.8,12.2,0.8c4.5,0,8.6-0.3,12.2-0.8c2.2-0.3,4-1.7,4.9-3.6
	c2.1-4.7,4.4-8.5,6.7-11.5l0.5-0.6c1.1-0.1,2.2-0.3,3.2-0.6C64.3,96.6,63,98.4,61.6,100.5z M15,95.9h0.3c0.2,0,0.4,0,0.6,0h44.6
	c0.2,0,0.4,0,0.7,0h0.2c-2.4,3.1-4.7,6.9-6.8,11.7c-0.7,1.6-2.3,2.8-4.3,3.1c-3.6,0.5-7.7,0.8-12.1,0.8s-8.5-0.3-12.1-0.8
	c-1.9-0.3-3.5-1.5-4.3-3.1C19.6,102.8,17.4,99,15,95.9z M73.6,81.9c0,6.6-5.4,12-12,12H14.5c-6.6,0-12-5.4-12-12V34.1
	c0-6.6,5.4-12,12-12h47.1c6.6,0,12,5.4,12,12V81.9z M76.7,62.6c0.2,0.1,0.4,0.3,0.5,0.4c0.1,0.1,0.1,0.1,0.1,0.1v12.1
	c0,0,0,0-0.1,0.1s-0.3,0.3-0.5,0.4c-0.4,0.2-0.8,0.3-1.2,0.4V62.2C75.9,62.3,76.3,62.4,76.7,62.6z M68.8,60.9H70v-1.2h-1.2V60.9z
	 M68.8,55.7H70v-1.2h-1.2V55.7z M68.8,66.1H70v-1.2h-1.2V66.1z M68.8,71.3H70v-1.2h-1.2V71.3z M18.1,81c0-1.4-1.1-2.5-2.5-2.5
	S13,79.6,13,81s1.1,2.5,2.5,2.5S18.1,82.4,18.1,81z M15.5,82.5c-0.8,0-1.5-0.7-1.5-1.5s0.7-1.5,1.5-1.5c0.8,0,1.5,0.7,1.5,1.5
	S16.4,82.5,15.5,82.5z M17,91.2h1.2V90H17V91.2z M22.6,25.1h-1.2v1.2h1.2V25.1z M22.2,91.2h1.2V90h-1.2V91.2z M11.7,90.1
	c0.4,0.2,0.8,0.4,1.2,0.5l0.4-1.1c-0.4-0.1-0.7-0.3-1-0.4L11.7,90.1z M7.7,86.4c0.2,0.4,0.5,0.7,0.7,1l0.9-0.8
	c-0.2-0.3-0.4-0.6-0.6-0.9L7.7,86.4z M12.9,26.9l-0.5-1.1c-0.4,0.2-0.8,0.3-1.1,0.6l0.6,1C12.2,27.2,12.6,27.1,12.9,26.9z
	 M27.4,91.2h1.2V90h-1.2V91.2z M30.5,58.9c-2.6,0-4.8,2.1-4.8,4.8s2.1,4.8,4.8,4.8s4.8-2.1,4.8-4.8S33.1,58.9,30.5,58.9z M30.5,66.4
	c-1.5,0-2.8-1.2-2.8-2.8s1.2-2.8,2.8-2.8c1.5,0,2.8,1.2,2.8,2.8C33.3,65.2,32,66.4,30.5,66.4z M48.2,91.2h1.2V90h-1.2V91.2z
	 M32.6,91.2h1.2V90h-1.2V91.2z M53.8,25.1h-1.2v1.2h1.2V25.1z M43.3,67.1c-4.5,0-8.2,3.7-8.2,8.2s3.7,8.2,8.2,8.2s8.2-3.7,8.2-8.2
	S47.8,67.1,43.3,67.1z M43.3,81.6c-3.4,0-6.2-2.8-6.2-6.2s2.8-6.2,6.2-6.2s6.2,2.8,6.2,6.2S46.7,81.6,43.3,81.6z M37.8,91.2H39V90
	h-1.2V91.2z M43,91.2h1.2V90H43V91.2z M53.4,91.2h1.2V90h-1.2V91.2z"/>
</svg>
