<svg width="67" height="67" viewBox="0 0 67 67" fill="none" xmlns="http://www.w3.org/2000/svg">
<path d="M44.1668 65.6842C42.3237 65.3155 40.8493 63.8411 40.4807 61.9981C40.1121 60.3393 40.5729 58.7728 41.5865 57.5748C41.863 57.2983 41.6787 56.8376 41.2179 56.8376L36.2417 56.8376C34.6751 56.8376 33.4772 55.6396 33.4772 54.073L33.4772 49.0968C33.4772 48.6361 33.0164 48.4518 32.6478 48.7282C31.542 49.7419 29.9754 50.2026 28.3167 49.834C26.4736 49.4654 24.9992 47.8988 24.6306 46.0558C23.9855 42.8305 26.3815 40.0659 29.4225 40.0659C30.7126 40.0659 31.8184 40.5267 32.7399 41.3561C33.0164 41.6325 33.4772 41.4482 33.4772 40.9874L33.4772 36.1034C33.4772 34.5368 34.6751 33.3388 36.2417 33.3388L39.7828 33.3388L40.8886 33.3388C40.8886 33.3388 42.2598 33.2127 41.3508 34.4457C40.6575 35.5549 40.3339 36.3711 40.4264 37.6652C40.4572 40.2073 42.6841 42.257 45.3565 42.257C48.1211 42.257 50.071 40.1457 50.2097 37.4809C50.2097 35.9143 49.7321 35.2464 49.3931 34.5685C48.4071 33.4432 49.4702 33.3388 49.4702 33.3388L54.2113 33.3388C55.7779 33.3388 56.9759 34.5368 56.9759 36.1034L56.9759 41.0796C56.9759 41.4482 57.4367 41.7247 57.7131 41.4482C58.8189 40.4345 60.3855 39.9738 62.1364 40.3424C63.9794 40.711 65.4539 42.2776 65.8225 44.0285C66.4675 47.2538 64.0716 50.0183 61.0306 50.0183C59.8326 50.0183 58.6346 49.5576 57.8053 48.8204C57.5288 48.5439 56.9759 48.7282 56.9759 49.189L56.9759 54.1652C56.9759 55.7318 55.7779 56.9297 54.2113 56.9297L49.2351 56.9297C48.8665 56.9297 48.5901 57.3905 48.8665 57.6669C49.6037 58.4963 50.0645 59.6943 50.0645 60.8923C50.1567 63.9333 47.2999 66.3292 44.1668 65.6842Z" stroke="white" stroke-opacity="0.7"/>
<path d="M1.14153 20.4317C1.51014 18.5886 2.98456 17.1142 4.8276 16.7456C6.48634 16.377 8.05292 16.8377 9.25089 17.8514C9.52735 18.1279 9.98811 17.9436 9.98811 17.4828L9.98811 12.5066C9.98811 10.94 11.1861 9.74205 12.7527 9.74205L17.7289 9.74205C18.1896 9.74205 18.3739 9.28129 18.0975 8.91269C17.0838 7.80686 16.623 6.24028 16.9917 4.58155C17.3603 2.73851 18.9268 1.26408 20.7699 0.895472C23.9952 0.250409 26.7598 2.64636 26.7598 5.68737C26.7598 6.9775 26.299 8.08332 25.4696 9.00484C25.1932 9.28129 25.3775 9.74205 25.8382 9.74205L30.7223 9.74205C32.2889 9.74205 33.4868 10.94 33.4868 12.5066L33.4868 16.0477L33.4868 17.1535C33.4868 17.1535 33.613 18.5247 32.38 17.6157C31.2707 16.9224 30.4582 16.6658 29.1641 16.7582C26.6219 16.789 24.6345 18.9389 24.6345 21.6113C24.6345 24.3759 26.68 26.3359 29.3448 26.4746C30.9114 26.4746 31.5367 25.956 32.2146 25.6171C33.3399 24.6311 33.4868 25.735 33.4868 25.735L33.4868 30.4762C33.4868 32.0428 32.2889 33.2408 30.7223 33.2408L25.7461 33.2408C25.3775 33.2408 25.101 33.7015 25.3775 33.978C26.3911 35.0838 26.8519 36.6504 26.4833 38.4013C26.1147 40.2443 24.5481 41.7188 22.7972 42.0874C19.5719 42.7324 16.8073 40.3365 16.8073 37.2955C16.8073 36.0975 17.2681 34.8995 18.0053 34.0702C18.2818 33.7937 18.0975 33.2408 17.6367 33.2408L12.6605 33.2408C11.0939 33.2408 9.89595 32.0428 9.89595 30.4762L9.89595 25.5C9.89595 25.1314 9.43519 24.855 9.15874 25.1314C8.32937 25.8686 7.13139 26.3294 5.93342 26.3294C2.89241 26.4215 0.496466 23.5648 1.14153 20.4317Z" stroke="white" stroke-opacity="0.7"/>
<path d="M24.7266 20.5205C25.0952 18.6775 26.5697 17.2031 28.4127 16.8345C30.0715 16.4659 31.638 16.9266 32.836 17.9403C33.1125 18.2167 33.5732 18.0324 33.5732 17.5717V12.5955C33.5732 11.0289 34.7712 9.83092 36.3378 9.83092H41.314C41.7747 9.83092 41.959 9.37016 41.6826 9.00156C40.6689 7.89573 40.2082 6.32915 40.5768 4.67042C40.9454 2.82738 42.512 1.35295 44.355 0.98434C47.5803 0.339277 50.3449 2.73523 50.3449 5.77624C50.3449 7.06636 49.8841 8.17219 49.0547 9.09371C48.7783 9.37016 48.9626 9.83092 49.4233 9.83092H54.3074C55.874 9.83092 57.072 11.0289 57.072 12.5955V17.3874V18.4932C57.072 18.4932 57.2563 20.0598 55.9661 18.4932C55.0446 17.3874 53.6623 16.6502 52.0958 16.6502C49.3312 16.6502 47.2117 18.8618 47.2117 21.5342C47.2117 24.2988 49.4233 26.4183 52.0958 26.4183C53.6623 26.4183 54.9525 25.5889 55.9661 24.5752C57.1641 23.3773 57.072 24.5752 57.072 24.5752V30.5651C57.072 32.1317 55.874 33.3297 54.3074 33.3297H49.3312C48.9626 33.3297 48.6861 33.7904 48.9626 34.0669C49.9763 35.1727 50.437 36.7393 50.0684 38.4902C49.6998 40.3332 48.1332 41.8076 46.3823 42.1762C43.157 42.8213 40.3925 40.4254 40.3925 37.3843C40.3925 36.1864 40.8532 34.9884 41.5904 34.159C41.8669 33.8826 41.6826 33.3297 41.2218 33.3297H36.2456C34.679 33.3297 33.4811 32.1317 33.4811 30.5651V25.5889C33.4811 25.2203 33.0203 24.9438 32.7439 25.2203C31.9145 25.9575 30.7165 26.4183 29.5185 26.4183C26.4775 26.5104 24.0816 23.6537 24.7266 20.5205Z" stroke="#7ACC00"/>
</svg>
