<svg width="62" height="66" viewBox="0 0 62 66" fill="none" xmlns="http://www.w3.org/2000/svg">
<path fill-rule="evenodd" clip-rule="evenodd" d="M57.2627 26.8873L56.2917 27.1262C56.2141 26.8108 56.1304 26.4978 56.0407 26.1874L57.0014 25.9098C57.0948 26.2331 57.1819 26.5589 57.2627 26.8873ZM56.254 23.7075L55.3228 24.072C55.2046 23.77 55.0805 23.4708 54.9507 23.1747L55.8666 22.7733C56.0017 23.0816 56.1309 23.393 56.254 23.7075ZM54.8364 20.6882L53.9611 21.1717C53.8043 20.8879 53.6421 20.6075 53.4745 20.3306L54.3299 19.8128C54.5044 20.1009 54.6732 20.3928 54.8364 20.6882ZM53.0359 17.8799L52.2311 18.4734C52.0387 18.2125 51.8412 17.9555 51.6388 17.7026L52.4195 17.0778C52.6302 17.3409 52.8357 17.6084 53.0359 17.8799ZM50.8853 15.3297L50.1644 16.0227C49.9398 15.7891 49.7107 15.5599 49.4771 15.3354L50.1701 14.6145C50.4132 14.8481 50.6516 15.0866 50.8853 15.3297ZM48.422 13.0802L47.7971 13.861C47.5443 13.6586 47.2873 13.4611 47.0264 13.2686L47.6199 12.4638C47.8914 12.6641 48.1589 12.8696 48.422 13.0802ZM45.687 11.1699L45.1692 12.0253C44.8923 11.8577 44.6119 11.6955 44.3281 11.5387L44.8116 10.6634C45.107 10.8265 45.3989 10.9954 45.687 11.1699ZM42.7265 9.63318L42.3251 10.5491C42.029 10.4193 41.7298 10.2952 41.4277 10.177L41.7923 9.24578C42.1068 9.3689 42.4182 9.49808 42.7265 9.63318ZM39.5899 8.49835L39.3124 9.45907C39.002 9.3694 38.689 9.2857 38.3736 9.20811L38.6125 8.23706C38.9409 8.31784 39.2667 8.40498 39.5899 8.49835ZM26.3875 8.23706L26.6264 9.20811C26.311 9.2857 25.998 9.3694 25.6876 9.45907L25.4101 8.49835C25.7333 8.40498 26.0592 8.31784 26.3875 8.23706ZM23.2077 9.24578L23.5723 10.177C23.2702 10.2952 22.9711 10.4193 22.675 10.5491L22.2735 9.63318C22.5818 9.49808 22.8932 9.36889 23.2077 9.24578ZM20.1884 10.6634L20.672 11.5387C20.3881 11.6955 20.1077 11.8577 19.8309 12.0253L19.313 11.1699C19.6011 10.9954 19.893 10.8265 20.1884 10.6634ZM17.3801 12.4638L17.9737 13.2687C17.7127 13.4611 17.4558 13.6586 17.2029 13.861L16.578 13.0802C16.8412 12.8696 17.1086 12.6641 17.3801 12.4638ZM14.8299 14.6145L15.523 15.3354C15.2894 15.5599 15.0602 15.7891 14.8356 16.0227L14.1147 15.3297C14.3484 15.0866 14.5868 14.8481 14.8299 14.6145ZM12.5805 17.0778L13.3612 17.7026C13.1588 17.9555 12.9613 18.2125 12.7689 18.4734L11.9641 17.8799C12.1643 17.6084 12.3699 17.3409 12.5805 17.0778ZM10.6701 19.8128L11.5256 20.3306C11.358 20.6075 11.1957 20.8879 11.0389 21.1717L10.1636 20.6882C10.3268 20.3928 10.4957 20.1009 10.6701 19.8128ZM9.13343 22.7733L10.0493 23.1747C9.91955 23.4708 9.79546 23.77 9.67721 24.072L8.74602 23.7075C8.86914 23.393 8.99832 23.0816 9.13343 22.7733ZM7.99859 25.9098L8.95932 26.1874C8.86964 26.4978 8.78594 26.8108 8.70835 27.1262L7.7373 26.8873C7.81809 26.5589 7.90523 26.2331 7.99859 25.9098ZM7.7373 39.1123L8.70835 38.8734C8.78594 39.1888 8.86964 39.5017 8.95931 39.8122L7.99859 40.0897C7.90523 39.7665 7.81809 39.4406 7.7373 39.1123ZM8.74602 42.292L9.67721 41.9275C9.79546 42.2296 9.91955 42.5287 10.0493 42.8248L9.13343 43.2262C8.99832 42.918 8.86914 42.6065 8.74602 42.292ZM10.1636 45.3113L11.0389 44.8278C11.1957 45.1117 11.358 45.3921 11.5256 45.6689L10.6701 46.1868C10.4957 45.8987 10.3268 45.6068 10.1636 45.3113ZM11.9641 48.1197L12.7689 47.5261C12.9613 47.787 13.1588 48.044 13.3612 48.2969L12.5805 48.9218C12.3699 48.6586 12.1643 48.3912 11.9641 48.1197ZM14.1147 50.6698L14.8356 49.9768C15.0602 50.2104 15.2894 50.4396 15.523 50.6642L14.8299 51.3851C14.5869 51.1514 14.3484 50.9129 14.1147 50.6698ZM16.578 52.9193L17.2029 52.1386C17.4558 52.341 17.7127 52.5385 17.9737 52.7309L17.3801 53.5357C17.1086 53.3354 16.8412 53.1299 16.578 52.9193ZM19.313 54.8297L19.8309 53.9742C20.1077 54.1418 20.3881 54.3041 20.672 54.4608L20.1884 55.3362C19.893 55.173 19.6011 55.0041 19.313 54.8297ZM22.2735 56.3664L22.675 55.4505C22.9711 55.5802 23.2702 55.7043 23.5723 55.8226L23.2077 56.7538C22.8932 56.6306 22.5818 56.5015 22.2735 56.3664ZM25.4101 57.5012L25.6876 56.5405C25.998 56.6301 26.311 56.7138 26.6264 56.7914L26.3875 57.7625C26.0592 57.6817 25.7333 57.5946 25.4101 57.5012ZM38.6125 57.7625L38.3736 56.7914C38.689 56.7138 39.002 56.6301 39.3124 56.5405L39.5899 57.5012C39.2667 57.5946 38.9409 57.6817 38.6125 57.7625ZM41.7923 56.7538L41.4277 55.8226C41.7298 55.7043 42.029 55.5802 42.3251 55.4505L42.7265 56.3664C42.4182 56.5015 42.1068 56.6306 41.7923 56.7538ZM44.8116 55.3362L44.3281 54.4608C44.6119 54.3041 44.8923 54.1418 45.1692 53.9742L45.687 54.8297C45.3989 55.0041 45.107 55.173 44.8116 55.3362ZM47.6199 53.5357L47.0264 52.7309C47.2873 52.5385 47.5443 52.341 47.7971 52.1386L48.422 52.9193C48.1589 53.1299 47.8914 53.3354 47.6199 53.5357ZM50.1701 51.3851L49.4771 50.6642C49.7107 50.4396 49.9398 50.2104 50.1644 49.9768L50.8853 50.6698C50.6516 50.9129 50.4132 51.1514 50.1701 51.3851ZM52.4196 48.9218L51.6388 48.2969C51.8412 48.044 52.0387 47.787 52.2311 47.5261L53.0359 48.1197C52.8357 48.3912 52.6302 48.6586 52.4196 48.9218ZM54.3299 46.1868L53.4745 45.6689C53.6421 45.3921 53.8043 45.1117 53.9611 44.8278L54.8364 45.3113C54.6732 45.6068 54.5044 45.8987 54.3299 46.1868ZM55.8666 43.2262L54.9507 42.8248C55.0805 42.5287 55.2046 42.2296 55.3228 41.9275L56.254 42.292C56.1309 42.6065 56.0017 42.918 55.8666 43.2262ZM57.0014 40.0897L56.0407 39.8122C56.1304 39.5017 56.2141 39.1888 56.2917 38.8734L57.2627 39.1123C57.1819 39.4406 57.0948 39.7665 57.0014 40.0897Z" fill="white"/>
<path d="M35.052 7.93188C35.052 6.55117 33.9327 5.43188 32.552 5.43188C31.1713 5.43188 30.052 6.55117 30.052 7.93188C30.052 9.3126 31.1713 10.4319 32.552 10.4319C33.9327 10.4319 35.052 9.3126 35.052 7.93188Z" fill="#7ACC00"/>
<path d="M35.9375 33C35.9375 31.1015 34.3985 29.5625 32.5 29.5625C30.6015 29.5625 29.0625 31.1015 29.0625 33C29.0625 34.8985 30.6015 36.4375 32.5 36.4375C34.3985 36.4375 35.9375 34.8985 35.9375 33Z" stroke="white"/>
<path d="M33.552 13.4268C33.552 12.8745 33.1043 12.4268 32.552 12.4268C31.9997 12.4268 31.552 12.8745 31.552 13.4268C31.552 13.979 31.9997 14.4268 32.552 14.4268C33.1043 14.4268 33.552 13.979 33.552 13.4268Z" fill="white"/>
<path d="M33.552 52.5361C33.552 51.9838 33.1043 51.5361 32.552 51.5361C31.9997 51.5361 31.552 51.9838 31.552 52.5361C31.552 53.0884 31.9997 53.5361 32.552 53.5361C33.1043 53.5361 33.552 53.0884 33.552 52.5361Z" fill="white"/>
<path d="M52.104 33.9944C52.6563 33.9944 53.104 33.5467 53.104 32.9944C53.104 32.4421 52.6563 31.9944 52.104 31.9944C51.5517 31.9944 51.104 32.4421 51.104 32.9944C51.104 33.5467 51.5517 33.9944 52.104 33.9944Z" fill="white"/>
<path d="M13.0103 33.9944C13.5625 33.9944 14.0103 33.5467 14.0103 32.9944C14.0103 32.4421 13.5625 31.9944 13.0103 31.9944C12.458 31.9944 12.0103 32.4421 12.0103 32.9944C12.0103 33.5467 12.458 33.9944 13.0103 33.9944Z" fill="white"/>
<path d="M35.052 58.0569C35.052 56.6762 33.9327 55.5569 32.552 55.5569C31.1713 55.5569 30.052 56.6762 30.052 58.0569C30.052 59.4376 31.1713 60.5569 32.552 60.5569C33.9327 60.5569 35.052 59.4376 35.052 58.0569Z" fill="#7ACC00"/>
<path d="M57.6145 35.4944C58.9952 35.4944 60.1145 34.3751 60.1145 32.9944C60.1145 31.6137 58.9952 30.4944 57.6145 30.4944C56.2338 30.4944 55.1145 31.6137 55.1145 32.9944C55.1145 34.3751 56.2338 35.4944 57.6145 35.4944Z" fill="#7ACC00"/>
<path d="M7.4895 35.4944C8.87021 35.4944 9.9895 34.3751 9.9895 32.9944C9.9895 31.6137 8.87021 30.4944 7.4895 30.4944C6.10879 30.4944 4.9895 31.6137 4.9895 32.9944C4.9895 34.3751 6.10879 35.4944 7.4895 35.4944Z" fill="#7ACC00"/>
<path d="M40.9688 24.1609L34.6563 30.4734" stroke="white"/>
<path d="M19.2144 19.2187L30.469 30.4734" stroke="white"/>
<path fill-rule="evenodd" clip-rule="evenodd" d="M56.4173 53.5C50.6401 60.2339 42.0683 64.5 32.5 64.5C15.103 64.5 1 50.397 1 33C1 15.603 15.103 1.5 32.5 1.5C42.1861 1.5 50.8512 5.87187 56.6295 12.75H57.9218C51.967 5.28418 42.7922 0.5 32.5 0.5C14.5507 0.5 0 15.0507 0 33C0 50.9493 14.5507 65.5 32.5 65.5C42.6768 65.5 51.7612 60.8225 57.7204 53.5H56.4173Z" fill="white"/>
<path d="M59.4253 13.8911L53.4628 12.7965L57.392 8.18011L59.4253 13.8911Z" fill="#7ACC00"/>
</svg>
