<?xml version="1.0" encoding="utf-8"?>
<!-- Generator: Adobe Illustrator 23.0.1, SVG Export Plug-In . SVG Version: 6.00 Build 0)  -->
<svg version="1.1" id="Layer_1" xmlns="http://www.w3.org/2000/svg" xmlns:xlink="http://www.w3.org/1999/xlink" x="0px" y="0px"
	 viewBox="0 0 65 66" style="enable-background:new 0 0 65 66;" xml:space="preserve">
<style type="text/css">
	.st0{fill:#FFFFFF;fill-opacity:0.7;}
	.st1{fill:#93CB40;}
	.st2{fill-rule:evenodd;clip-rule:evenodd;fill:#FFFFFF;}
	.st3{fill:#FFFFFF;}
</style>
<rect y="0.3" class="st0" width="5" height="5"/>
<rect x="60" y="0.3" class="st0" width="5" height="5"/>
<rect y="28.4" class="st1" width="5" height="5"/>
<rect x="60" y="28.4" class="st0" width="5" height="5"/>
<rect x="30" y="0.3" class="st0" width="5" height="5"/>
<rect x="30" y="60.4" class="st1" width="5" height="5"/>
<rect y="60.4" class="st1" width="5" height="5"/>
<rect x="60" y="60.4" class="st0" width="5" height="5"/>
<path class="st2" d="M8.3,2.1v1h1v-1H8.3z M11.7,2.1v1h1v-1H11.7z M15,2.1v1h1v-1H15z M18.4,2.1v1h1v-1H18.4z M21.8,2.1v1h1v-1H21.8
	z M25.2,2.1v1h1v-1H25.2z M38.8,2.1v1h1v-1H38.8z M42.2,2.1v1h1v-1H42.2z M45.5,2.1v1h1v-1H45.5z M48.9,2.1v1h1v-1H48.9z M52.3,2.1
	v1h1v-1H52.3z M55.7,2.1v1h1v-1H55.7z M63,8h-1v1h1V8z M63,11.2h-1v1h1V11.2z M63,14.4h-1v1h1V14.4z M63,17.7h-1v1h1V17.7z M63,20.9
	h-1v1h1V20.9z M63,24.1h-1v1h1V24.1z M63,37h-1v1h1V37z M63,40.2h-1v1h1V40.2z M63,43.4h-1v1h1V43.4z M63,46.6h-1v1h1V46.6z
	 M63,49.8h-1v1h1V49.8z M63,53h-1v1h1V53z M63,56.3h-1v1h1V56.3z M56.7,63.2v-1h-1v1H56.7z M53.3,63.2v-1h-1v1H53.3z M50,63.2v-1h-1
	v1H50z M46.6,63.2v-1h-1v1H46.6z M43.2,63.2v-1h-1v1H43.2z M39.8,63.2v-1h-1v1H39.8z M26.2,63.2v-1h-1v1H26.2z M22.8,63.2v-1h-1v1
	H22.8z M19.5,63.2v-1h-1v1H19.5z M16.1,63.2v-1h-1v1H16.1z M12.7,63.2v-1h-1v1H12.7z M9.3,63.2v-1h-1v1H9.3z M2,57.2h1v-1H2V57.2z
	 M2,54h1v-1H2V54z M2,50.8h1v-1H2V50.8z M2,47.6h1v-1H2V47.6z M2,44.4h1v-1H2V44.4z M2,41.2h1v-1H2V41.2z M2,37.9h1v-1H2V37.9z
	 M2,25.1h1v-1H2V25.1z M2,21.9h1v-1H2V21.9z M2,18.6h1v-1H2V18.6z M2,15.4h1v-1H2V15.4z M2,12.2h1v-1H2V12.2z M2,9h1V8H2V9z"/>
<path class="st2" d="M8.3,30.2v1h1v-1H8.3z M11.8,30.2v1h1v-1H11.8z M15.2,30.2v1h1v-1H15.2z M18.6,30.2v1h1v-1H18.6z M22.1,30.2v1
	h1v-1H22.1z M25.5,30.2v1h1v-1H25.5z M32.9,36.3h-1v1h1V36.3z M32.9,39.6h-1v1h1V39.6z M32.9,42.9h-1v1h1V42.9z M32.9,46.2h-1v1h1
	V46.2z M32.9,49.5h-1v1h1V49.5z M32.9,52.8h-1v1h1V52.8z M32.9,56.1h-1v1h1V56.1z M26.5,63.2v-1h-1v1H26.5z M23.1,63.2v-1h-1v1H23.1
	z M19.7,63.2v-1h-1v1H19.7z M16.2,63.2v-1h-1v1H16.2z M12.8,63.2v-1h-1v1H12.8z M9.4,63.2v-1h-1v1H9.4z M2,57.1h1v-1H2V57.1z
	 M2,53.8h1v-1H2V53.8z M2,50.5h1v-1H2V50.5z M2,47.2h1v-1H2V47.2z M2,43.9h1v-1H2V43.9z M2,40.6h1v-1H2V40.6z M2,37.3h1v-1H2V37.3z"
	/>
<rect x="30" y="28" class="st1" width="5" height="5"/>
<path class="st3" d="M44.8,19.5c0-0.3-0.2-0.5-0.5-0.5l-4.5-0.2c-0.3,0-0.5,0.2-0.5,0.5c0,0.3,0.2,0.5,0.5,0.5l4,0.2l-0.2,4
	c0,0.3,0.2,0.5,0.5,0.5c0.3,0,0.5-0.2,0.5-0.5L44.8,19.5z M36.4,27.4l8.3-7.5L44,19.1l-8.3,7.5L36.4,27.4z"/>
<path class="st3" d="M20.6,41.9c0,0.3,0.2,0.5,0.5,0.5h4.5c0.3,0,0.5-0.2,0.5-0.5c0-0.3-0.2-0.5-0.5-0.5h-4v-4
	c0-0.3-0.2-0.5-0.5-0.5c-0.3,0-0.5,0.2-0.5,0.5V41.9z M28.6,33.6l-7.9,7.9l0.7,0.7l7.9-7.9L28.6,33.6z"/>
</svg>
