<?xml version="1.0" encoding="utf-8"?>
<!-- Generator: Adobe Illustrator 23.0.1, SVG Export Plug-In . SVG Version: 6.00 Build 0)  -->
<svg version="1.1" id="Layer_1" xmlns="http://www.w3.org/2000/svg" xmlns:xlink="http://www.w3.org/1999/xlink" x="0px" y="0px"
	 viewBox="0 0 62 65" style="enable-background:new 0 0 62 65;" xml:space="preserve">
<style type="text/css">
	.st0{fill-rule:evenodd;clip-rule:evenodd;fill:#FFFFFF;}
	.st1{fill:#FFFFFF;fill-opacity:0.7;}
	.st2{fill:#93CB40;}
	.st3{fill:none;stroke:#93CB40;}
	.st4{fill:none;stroke:#FFFFFF;}
</style>
<path class="st0" d="M14.5,64.6l0.1-1c0.2,0,0.3,0,0.5,0h0.5v1h-0.5C14.9,64.6,14.7,64.6,14.5,64.6z M45.4,64.6v-1h0.5
	c0.2,0,0.3,0,0.5,0l0.1,1c-0.2,0-0.4,0-0.6,0H45.4z M49,63.6l-0.6-0.8c0.2-0.2,0.5-0.4,0.7-0.7l0.8,0.6C49.6,63,49.3,63.3,49,63.6z
	 M49.9,2l-0.8,0.6c-0.2-0.2-0.4-0.5-0.7-0.7L49,1.2C49.3,1.4,49.6,1.7,49.9,2z M15.6,0.1h-0.5c-0.2,0-0.4,0-0.6,0l0.1,1
	c0.2,0,0.3,0,0.5,0h0.5V0.1z M12,1.2L12.6,2c-0.2,0.2-0.5,0.4-0.7,0.7L11.1,2C11.4,1.7,11.7,1.4,12,1.2z M11.1,62.7l0.8-0.6
	c0.2,0.2,0.4,0.5,0.7,0.7L12,63.6C11.7,63.3,11.4,63,11.1,62.7z M10.1,37.7h1v-1h-1V37.7z M10.1,34.5h1v-1h-1V34.5z M10.1,31.3h1v-1
	h-1V31.3z M10.1,28.1h1v-1h-1V28.1z M10.1,24.8h1v-1h-1V24.8z M10.1,21.6h1v-1h-1V21.6z M10.1,18.4h1v-1h-1V18.4z M10.1,15.2h1v-1
	h-1V15.2z M10.1,12h1v-1h-1V12z M10.1,8.8h1v-1h-1V8.8z M10.1,5.6h1V5.1c0-0.2,0-0.3,0-0.5l-1-0.1c0,0.2,0,0.4,0,0.6V5.6z M18,0.1v1
	h1v-1H18z M21.4,0.1v1h1v-1H21.4z M24.8,0.1v1h1v-1H24.8z M28.3,0.1v1h1v-1H28.3z M31.7,0.1v1h1v-1H31.7z M35.1,0.1v1h1v-1H35.1z
	 M38.6,0.1v1h1v-1H38.6z M42,0.1v1h1v-1H42z M45.4,0.1v1h0.5c0.2,0,0.3,0,0.5,0l0.1-1c-0.2,0-0.4,0-0.6,0H45.4z M50.9,27.1h-1v1h1
	V27.1z M50.9,30.3h-1v1h1V30.3z M50.9,33.5h-1v1h1V33.5z M50.9,36.7h-1v1h1V36.7z M50.9,39.9h-1v1h1V39.9z M50.9,43.1h-1v1h1V43.1z
	 M50.9,46.3h-1v1h1V46.3z M50.9,49.5h-1v1h1V49.5z M50.9,52.7h-1v1h1V52.7z M50.9,55.9h-1v1h1V55.9z M50.9,59.1h-1v0.5
	c0,0.2,0,0.3,0,0.5l1,0.1c0-0.2,0-0.4,0-0.6V59.1z M43,64.6v-1h-1v1H43z M39.6,64.6v-1h-1v1H39.6z M36.2,64.6v-1h-1v1H36.2z
	 M32.7,64.6v-1h-1v1H32.7z M29.3,64.6v-1h-1v1H29.3z M25.9,64.6v-1h-1v1H25.9z M22.4,64.6v-1h-1v1H22.4z M19,64.6v-1h-1v1H19z"/>
<path class="st1" d="M15.8,9.3h3c0.6,0,1,0.4,1,1v3c0,0.6-0.4,1-1,1h-3c-0.6,0-1-0.4-1-1v-3C14.8,9.7,15.2,9.3,15.8,9.3z"/>
<path class="st1" d="M24.5,9.3h3c0.6,0,1,0.4,1,1v3c0,0.6-0.4,1-1,1h-3c-0.6,0-1-0.4-1-1v-3C23.5,9.7,23.9,9.3,24.5,9.3z"/>
<path class="st1" d="M15.7,19.5h3c0.6,0,1,0.4,1,1v3c0,0.6-0.4,1-1,1h-3c-0.6,0-1-0.4-1-1v-3C14.7,20,15.1,19.5,15.7,19.5z"/>
<path class="st1" d="M24.4,19.5h3c0.6,0,1,0.4,1,1v3c0,0.6-0.4,1-1,1h-3c-0.6,0-1-0.4-1-1v-3C23.4,20,23.9,19.5,24.4,19.5z"/>
<path class="st1" d="M15.7,29.8h3c0.6,0,1,0.4,1,1v3c0,0.6-0.4,1-1,1h-3c-0.6,0-1-0.4-1-1v-3C14.7,30.2,15.1,29.8,15.7,29.8z"/>
<path class="st1" d="M24.4,29.8h3c0.6,0,1,0.4,1,1v3c0,0.6-0.4,1-1,1h-3c-0.6,0-1-0.4-1-1v-3C23.4,30.2,23.9,29.8,24.4,29.8z"/>
<path class="st1" d="M33.2,29.9h3c0.6,0,1,0.4,1,1v3c0,0.6-0.4,1-1,1h-3c-0.6,0-1-0.4-1-1v-3C32.2,30.4,32.6,29.9,33.2,29.9z"/>
<path class="st1" d="M41.9,29.9h3c0.6,0,1,0.4,1,1v3c0,0.6-0.4,1-1,1h-3c-0.6,0-1-0.4-1-1v-3C40.9,30.4,41.4,29.9,41.9,29.9z"/>
<path class="st1" d="M33.1,39.9h3c0.6,0,1,0.4,1,1v3c0,0.6-0.4,1-1,1h-3c-0.6,0-1-0.4-1-1v-3C32.1,40.4,32.5,39.9,33.1,39.9z"/>
<path class="st1" d="M33.1,49.9h3c0.6,0,1,0.4,1,1v3c0,0.6-0.4,1-1,1h-3c-0.6,0-1-0.4-1-1v-3C32.1,50.4,32.5,49.9,33.1,49.9z"/>
<path class="st1" d="M42,39.9h3c0.6,0,1,0.4,1,1v3c0,0.6-0.4,1-1,1h-3c-0.6,0-1-0.4-1-1v-3C41,40.4,41.4,39.9,42,39.9z"/>
<path class="st1" d="M41.9,49.9h3c0.6,0,1,0.4,1,1v3c0,0.6-0.4,1-1,1h-3c-0.6,0-1-0.4-1-1v-3C40.9,50.4,41.4,49.9,41.9,49.9z"/>
<path class="st2" d="M38,14.9l-0.3-0.4l-0.4,0.4l0.4,0.4L38,14.9z M41.9,10.7l-4.2,3.9l0.7,0.7l4.2-3.9L41.9,10.7z M37.7,15.3
	l4.2,4.1l0.7-0.7l-4.2-4.1L37.7,15.3z"/>
<path class="st2" d="M55.2,14.9l0.3-0.4l0.4,0.4l-0.4,0.4L55.2,14.9z M51.3,10.7l4.2,3.9l-0.7,0.7l-4.2-3.9L51.3,10.7z M55.6,15.3
	l-4.2,4.1l-0.7-0.7l4.2-4.1L55.6,15.3z"/>
<path class="st3" d="M48.6,10.9L45,19.2"/>
<path class="st4" d="M32.6,18.5v-13h21.8c3.3,0,6,2.7,6,6v13H38.6C35.2,24.5,32.6,21.8,32.6,18.5z"/>
<path class="st4" d="M27.9,53.5v-13H6.6c-3.3,0-6,2.7-6,6v13h21.4C25.3,59.5,27.9,56.8,27.9,53.5z"/>
<path class="st3" d="M8.5,46.9l5.5-3.2l5.5,3.2v6.4L14,56.4l-5.5-3.2V46.9z"/>
<line class="st3" x1="14" y1="47" x2="14" y2="50.5"/>
<line class="st3" x1="14.4" y1="49.8" x2="11.3" y2="51.6"/>
<line class="st3" x1="13.6" y1="49.8" x2="16.7" y2="51.6"/>
</svg>
