<?xml version="1.0" encoding="utf-8"?>
<!-- Generator: Adobe Illustrator 23.0.1, SVG Export Plug-In . SVG Version: 6.00 Build 0)  -->
<svg version="1.1" id="Layer_1" xmlns="http://www.w3.org/2000/svg" xmlns:xlink="http://www.w3.org/1999/xlink" x="0px" y="0px"
	 viewBox="0 0 40.7 43.3" style="enable-background:new 0 0 40.7 43.3;" xml:space="preserve">
<style type="text/css">
	.st0{fill-rule:evenodd;clip-rule:evenodd;fill:#FFFFFF;}
	.st1{fill:#7ACC00;}
	.st2{fill:#FFFFFF;}
</style>
<g>
	<rect x="2.1" y="12.9" class="st0" width="1" height="1"/>
	<rect x="5.5" y="12.9" class="st0" width="1" height="1"/>
	<rect x="8.9" y="12.9" class="st0" width="1" height="1"/>
	<rect x="12.4" y="12.9" class="st0" width="1" height="1"/>
	<rect x="15.8" y="12.9" class="st0" width="1" height="1"/>
	<rect x="19.2" y="12.9" class="st0" width="1" height="1"/>
	<rect x="25.6" y="19" class="st0" width="1" height="1"/>
	<rect x="25.6" y="22.3" class="st0" width="1" height="1"/>
	<rect x="25.6" y="25.6" class="st0" width="1" height="1"/>
	<rect x="25.6" y="28.9" class="st0" width="1" height="1"/>
	<rect x="25.6" y="32.2" class="st0" width="1" height="1"/>
	<rect x="25.6" y="35.5" class="st0" width="1" height="1"/>
	<rect x="25.6" y="38.8" class="st0" width="1" height="1"/>
	<rect x="23.8" y="10.8" class="st1" width="5" height="5"/>
	<path class="st2" d="M38.5,2.3c0-0.3-0.2-0.5-0.5-0.5l-4.5-0.2C33.3,1.5,33,1.7,33,2c0,0.3,0.2,0.5,0.5,0.5l4,0.2l-0.2,4
		c0,0.3,0.2,0.5,0.5,0.5c0.3,0,0.5-0.2,0.5-0.5L38.5,2.3z M30.1,10.1l8.3-7.5l-0.7-0.7l-8.3,7.5L30.1,10.1z"/>
	<path class="st2" d="M14.3,24.6c0,0.3,0.2,0.5,0.5,0.5h4.5c0.3,0,0.5-0.2,0.5-0.5c0-0.3-0.2-0.5-0.5-0.5h-4v-4
		c0-0.3-0.2-0.5-0.5-0.5c-0.3,0-0.5,0.2-0.5,0.5V24.6z M22.4,16.4l-7.9,7.9l0.7,0.7l7.9-7.9L22.4,16.4z"/>
</g>
</svg>
