<?xml version="1.0" encoding="utf-8"?>
<!-- Generator: Adobe Illustrator 23.0.1, SVG Export Plug-In . SVG Version: 6.00 Build 0)  -->
<svg version="1.1" id="Layer_1" xmlns="http://www.w3.org/2000/svg" xmlns:xlink="http://www.w3.org/1999/xlink" x="0px" y="0px"
	 viewBox="0 0 66 67" style="enable-background:new 0 0 66 67;" xml:space="preserve">
<style type="text/css">
	.st0{fill-rule:evenodd;clip-rule:evenodd;fill:#FFFFFF;}
	.st1{fill:#FFFFFF;fill-opacity:0.7;}
	.st2{fill:#93CB40;}
	.st3{fill:none;stroke:#93CB40;}
	.st4{fill:#FFFFFF;}
	.st5{fill:none;stroke:#FFFFFF;stroke-opacity:0.7;stroke-dasharray:1,2.3;}
</style>
<path class="st0" d="M66,34.1l-1,0c0-0.2,0-0.3,0-0.5c0-0.2,0-0.3,0-0.5l1,0c0,0.2,0,0.3,0,0.5C66,33.8,66,34,66,34.1z M65.9,30.7
	l-1,0.1c0-0.3-0.1-0.7-0.1-1l1-0.1C65.8,30.1,65.8,30.4,65.9,30.7z M65.4,27.4l-1,0.2c-0.1-0.3-0.1-0.6-0.2-1l1-0.2
	C65.2,26.7,65.3,27.1,65.4,27.4z M64.5,24.1l-0.9,0.3c-0.1-0.3-0.2-0.6-0.3-0.9l0.9-0.3C64.3,23.5,64.4,23.8,64.5,24.1z M57.5,12.6
	l-0.7,0.7c-0.2-0.2-0.5-0.5-0.7-0.7l0.7-0.7C57,12.1,57.3,12.4,57.5,12.6z M55,10.3l-0.6,0.8c-0.3-0.2-0.5-0.4-0.8-0.6l0.6-0.8
	C54.5,9.9,54.7,10.1,55,10.3z M52.3,8.3l-0.5,0.8c-0.3-0.2-0.6-0.4-0.8-0.5l0.5-0.9C51.7,7.9,52,8.1,52.3,8.3z M49.3,6.6l-0.4,0.9
	c-0.3-0.1-0.6-0.3-0.9-0.4l0.4-0.9C48.7,6.3,49,6.4,49.3,6.6z M46.2,5.2l-0.3,0.9c-0.3-0.1-0.6-0.2-0.9-0.3l0.3-0.9
	C45.6,5,45.9,5.1,46.2,5.2z M26.2,4.9l0.3,0.9c-0.3,0.1-0.6,0.2-0.9,0.3l-0.3-0.9C25.6,5.1,25.9,5,26.2,4.9z M23.1,6.1l0.4,0.9
	c-0.3,0.1-0.6,0.3-0.9,0.4l-0.4-0.9C22.5,6.4,22.8,6.3,23.1,6.1z M20.1,7.7l0.5,0.9c-0.3,0.2-0.6,0.3-0.8,0.5l-0.5-0.8
	C19.5,8.1,19.8,7.9,20.1,7.7z M17.3,9.7l0.6,0.8c-0.3,0.2-0.5,0.4-0.8,0.6l-0.6-0.8C16.8,10.1,17,9.9,17.3,9.7z M14.7,11.9l0.7,0.7
	c-0.2,0.2-0.5,0.5-0.7,0.7L14,12.6C14.2,12.4,14.5,12.1,14.7,11.9z M6.4,26.4l1,0.2c-0.1,0.3-0.2,0.6-0.2,1l-1-0.2
	C6.2,27.1,6.3,26.7,6.4,26.4z M5.7,29.7l1,0.1c0,0.3-0.1,0.7-0.1,1l-1-0.1C5.7,30.4,5.7,30.1,5.7,29.7z M5.5,33.1c0,0.2,0,0.3,0,0.5
	s0,0.3,0,0.5l1,0c0-0.2,0-0.3,0-0.5c0-0.2,0-0.3,0-0.5L5.5,33.1z M5.6,36.5l1-0.1c0,0.3,0.1,0.7,0.1,1l-1,0.1
	C5.7,37.2,5.7,36.8,5.6,36.5z M16.5,57l0.6-0.8c0.3,0.2,0.5,0.4,0.8,0.6l-0.6,0.8C17,57.4,16.8,57.2,16.5,57z M19.2,59
	c0.3,0.2,0.6,0.4,0.9,0.5l0.5-0.9c-0.3-0.2-0.6-0.3-0.8-0.5L19.2,59z M22.2,60.7l0.4-0.9c0.3,0.1,0.6,0.3,0.9,0.4l-0.4,0.9
	C22.8,61,22.5,60.8,22.2,60.7z M25.3,62l0.3-0.9c0.3,0.1,0.6,0.2,0.9,0.3l-0.3,0.9C25.9,62.2,25.6,62.1,25.3,62z M45.3,62.4
	l-0.3-0.9c0.3-0.1,0.6-0.2,0.9-0.3l0.3,0.9C45.9,62.1,45.6,62.2,45.3,62.4z M48.4,61.1L48,60.2c0.3-0.1,0.6-0.3,0.9-0.4l0.4,0.9
	C49,60.8,48.7,61,48.4,61.1z M51.4,59.5l-0.5-0.9c0.3-0.2,0.6-0.3,0.8-0.5l0.5,0.8C52,59.2,51.7,59.3,51.4,59.5z M54.2,57.6
	l-0.6-0.8c0.3-0.2,0.5-0.4,0.8-0.6L55,57C54.7,57.2,54.5,57.4,54.2,57.6z M56.8,55.4l-0.7-0.7c0.2-0.2,0.5-0.5,0.7-0.7l0.7,0.7
	C57.3,54.9,57,55.1,56.8,55.4z M65.1,40.9c0.1-0.3,0.2-0.7,0.2-1l-1-0.2c-0.1,0.3-0.1,0.6-0.2,1L65.1,40.9z M65.8,37.5l-1-0.1
	c0-0.3,0.1-0.7,0.1-1l1,0.1C65.8,36.8,65.8,37.2,65.8,37.5z"/>
<path class="st1" d="M38.4,63.7c0-1.4-1.2-2.6-2.6-2.6c-1.4,0-2.6,1.2-2.6,2.6c0,1.4,1.2,2.6,2.6,2.6C37.2,66.3,38.4,65.1,38.4,63.7
	z"/>
<path class="st2" d="M37.1,1.9c-1.2-0.7-2.8-0.3-3.6,1c-0.7,1.2-0.3,2.8,1,3.6c1.2,0.7,2.8,0.3,3.6-1C38.7,4.2,38.3,2.6,37.1,1.9z"
	/>
<path class="st2" d="M10.8,50.8c1.2-0.7,1.7-2.3,1-3.6c-0.7-1.2-2.3-1.7-3.6-1c-1.2,0.7-1.7,2.3-1,3.6C8,51.1,9.6,51.5,10.8,50.8z"
	/>
<path class="st3" d="M12.5,53.6c2.8-1.6,3.7-5.2,2.1-7.9c-1.6-2.8-5.2-3.7-7.9-2.1c-2.8,1.6-3.7,5.2-2.1,7.9
	C6.1,54.2,9.7,55.2,12.5,53.6z"/>
<path class="st1" d="M63.6,18.3c0-1.4-1.2-2.6-2.6-2.6s-2.6,1.2-2.6,2.6c0,1.4,1.2,2.6,2.6,2.6S63.6,19.7,63.6,18.3z"/>
<path class="st1" d="M8.4,21.7c1.2,0.7,2.8,0.3,3.6-1c0.7-1.2,0.3-2.8-1-3.6c-1.2-0.7-2.8-0.3-3.6,1S7.2,21,8.4,21.7z"/>
<path class="st4" d="M62.6,51.5c1.2-0.7,1.7-2.3,1-3.6s-2.3-1.7-3.6-1c-1.2,0.7-1.7,2.3-1,3.6C59.8,51.7,61.4,52.2,62.6,51.5z"/>
<circle class="st5" cx="35.9" cy="33.3" r="17.7"/>
<path class="st4" d="M35.9,22.7c1.5,0,2.6,1.2,2.6,2.6S37.3,28,35.9,28s-2.6-1.2-2.6-2.6S34.4,22.7,35.9,22.7z M37.8,28.6h-0.5
	c-0.9,0.4-2,0.4-3,0h-0.5c-1.1,0-2,0.9-2,2v5.6c0,0.5,0.4,1,1,1h0.7v5.6c0,0.5,0.4,1,1,1h2.6c0.5,0,1-0.4,1-1v-5.6h0.7
	c0.5,0,1-0.4,1-1v-5.6C39.8,29.5,38.9,28.6,37.8,28.6z"/>
</svg>
