<?xml version="1.0" encoding="utf-8"?>
<!-- Generator: Adobe Illustrator 23.0.1, SVG Export Plug-In . SVG Version: 6.00 Build 0)  -->
<svg version="1.1" id="Layer_1" xmlns="http://www.w3.org/2000/svg" xmlns:xlink="http://www.w3.org/1999/xlink" x="0px" y="0px"
	 viewBox="0 0 65 65" style="enable-background:new 0 0 65 65;" xml:space="preserve">
<style type="text/css">
	.st0{fill:#FFFFFF;fill-opacity:0.7;}
	.st1{fill-rule:evenodd;clip-rule:evenodd;fill:#FFFFFF;}
	.st2{fill:none;stroke:#FFFFFF;}
	.st3{fill:none;stroke:#FFFFFF;stroke-width:0.5;}
	.st4{fill:none;stroke:#93CB40;}
	.st5{fill:#FFFFFF;}
</style>
<circle class="st0" cx="46.1" cy="5.1" r="1"/>
<circle class="st0" cx="49.1" cy="5.1" r="1"/>
<circle class="st0" cx="52.1" cy="5.1" r="1"/>
<path class="st1" d="M3,3.1h18v10h0H3h0V3.1z M3,14.1V17h18v-2.9h0H3L3,14.1z M2,2.1h1h18h1v1v14v1h-1h-5v0v2.2v0h2.1v2H5.9v-2H8v0
	v-2.2v0H3H2v-1v-14V2.1z M15.1,18.1H9v2.2h6V18.1z"/>
<rect x="43.5" y="2.6" class="st2" width="19" height="19.3"/>
<rect x="43.3" y="7.3" class="st3" width="19.5" height="0.5"/>
<path class="st4" d="M26.6,52.3L26.6,52.3l1.9-0.5c2.1,1.4,5.3,1.8,8,0l1.9,0.5c1.5,0.4,2.5,1.7,2.5,3.2v3.2c0,0.8-0.6,1.4-1.4,1.4
	h-14c-0.8,0-1.4-0.6-1.4-1.4v-3.2C24.1,54,25.1,52.7,26.6,52.3z M32.5,40.8c2.8,0,5.1,2.3,5.1,5.1S35.3,51,32.5,51
	c-2.8,0-5.1-2.3-5.1-5.1S29.7,40.8,32.5,40.8z"/>
<path class="st1" d="M28.5,3h9v13.9h-9V3z M27.5,18L27.5,18v-1v-0.1V3V2h1h9h1v1v13.9V17v0.9V18v3.3v1h-1h-9h-1v-1V18z M37.5,18v3.3
	h-9V18H37.5z"/>
<circle class="st0" cx="33" cy="19.6" r="1"/>
<path class="st1" d="M16,32.2h-1v-1h1V32.2z M19.4,32.2h-1v-1h1V32.2z M22.8,32.2h-1v-1h1V32.2z M26.2,32.2h-1v-1h1V32.2z
	 M29.6,32.2h-1v-1h1V32.2z M36.4,32.2h-1v-1h1V32.2z M39.8,32.2h-1v-1h1V32.2z M43.2,32.2h-1v-1h1V32.2z M46.6,32.2h-1v-1h1V32.2z
	 M50,32.2h-1v-1h1V32.2z"/>
<rect x="11.6" y="31.3" class="st5" width="1" height="1"/>
<rect x="11.6" y="28.6" class="st5" width="1" height="1"/>
<rect x="11.6" y="25.9" class="st5" width="1" height="1"/>
<rect x="32" y="31.2" class="st5" width="1" height="1"/>
<rect x="32" y="28.6" class="st5" width="1" height="1"/>
<rect x="32" y="25.9" class="st5" width="1" height="1"/>
<rect x="52.4" y="31.2" class="st5" width="1" height="1"/>
<rect x="52.4" y="28.6" class="st5" width="1" height="1"/>
<rect x="52.4" y="25.9" class="st5" width="1" height="1"/>
<rect x="32" y="36.6" class="st5" width="1" height="1"/>
<rect x="32" y="33.9" class="st5" width="1" height="1"/>
<rect x="32" y="31.2" class="st5" width="1" height="1"/>
</svg>
