<?xml version="1.0" encoding="utf-8"?>
<!-- Generator: Adobe Illustrator 23.0.1, SVG Export Plug-In . SVG Version: 6.00 Build 0)  -->
<svg version="1.1" id="Layer_1" xmlns="http://www.w3.org/2000/svg" xmlns:xlink="http://www.w3.org/1999/xlink" x="0px" y="0px"
	 viewBox="0 0 65 66" style="enable-background:new 0 0 65 66;" xml:space="preserve">
<style type="text/css">
	.st0{fill:#FFFFFF;fill-opacity:0.7;}
	.st1{fill:#7ACC00;}
	.st2{fill-rule:evenodd;clip-rule:evenodd;fill:#FFFFFF;}
</style>
<rect y="0.3" class="st0" width="5" height="5"/>
<rect x="60" y="0.3" class="st0" width="5" height="5"/>
<rect y="28.4" class="st1" width="5" height="5"/>
<rect x="60" y="28.4" class="st0" width="5" height="5"/>
<rect x="30" y="0.3" class="st0" width="5" height="5"/>
<rect x="30" y="60.4" class="st1" width="5" height="5"/>
<rect y="60.4" class="st1" width="5" height="5"/>
<rect x="60" y="60.4" class="st0" width="5" height="5"/>
<path class="st2" d="M8.3,2.1v1h1v-1H8.3z M11.7,2.1v1h1v-1H11.7z M15,2.1v1h1v-1H15z M18.4,2.1v1h1v-1H18.4z M21.8,2.1v1h1v-1H21.8
	z M25.2,2.1v1h1v-1H25.2z M38.8,2.1v1h1v-1H38.8z M42.2,2.1v1h1v-1H42.2z M45.5,2.1v1h1v-1H45.5z M48.9,2.1v1h1v-1H48.9z M52.3,2.1
	v1h1v-1H52.3z M55.7,2.1v1h1v-1H55.7z M63,8h-1v1h1V8z M63,11.2h-1v1h1V11.2z M63,14.4h-1v1h1V14.4z M63,17.7h-1v1h1V17.7z M63,20.9
	h-1v1h1V20.9z M63,24.1h-1v1h1V24.1z M63,37h-1v1h1V37z M63,40.2h-1v1h1V40.2z M63,43.4h-1v1h1V43.4z M63,46.6h-1v1h1V46.6z
	 M63,49.8h-1v1h1V49.8z M63,53h-1v1h1V53z M63,56.3h-1v1h1V56.3z M56.7,63.2v-1h-1v1H56.7z M53.3,63.2v-1h-1v1H53.3z M50,63.2v-1h-1
	v1H50z M46.6,63.2v-1h-1v1H46.6z M43.2,63.2v-1h-1v1H43.2z M39.8,63.2v-1h-1v1H39.8z M26.2,63.2v-1h-1v1H26.2z M22.8,63.2v-1h-1v1
	H22.8z M19.5,63.2v-1h-1v1H19.5z M16.1,63.2v-1h-1v1H16.1z M12.7,63.2v-1h-1v1H12.7z M9.3,63.2v-1h-1v1H9.3z M2,57.2h1v-1H2V57.2z
	 M2,54h1v-1H2V54z M2,50.8h1v-1H2V50.8z M2,47.6h1v-1H2V47.6z M2,44.4h1v-1H2V44.4z M2,41.2h1v-1H2V41.2z M2,37.9h1v-1H2V37.9z
	 M2,25.1h1v-1H2V25.1z M2,21.9h1v-1H2V21.9z M2,18.6h1v-1H2V18.6z M2,15.4h1v-1H2V15.4z M2,12.2h1v-1H2V12.2z M2,9h1V8H2V9z"/>
<rect x="25.5" y="62.2" class="st2" width="1" height="1"/>
<rect x="22.1" y="62.2" class="st2" width="1" height="1"/>
<rect x="18.6" y="62.2" class="st2" width="1" height="1"/>
<rect x="15.2" y="62.2" class="st2" width="1" height="1"/>
<rect x="11.8" y="62.2" class="st2" width="1" height="1"/>
<rect x="8.3" y="62.2" class="st2" width="1" height="1"/>
<rect x="2" y="56.1" class="st2" width="1" height="1"/>
<rect x="2" y="52.8" class="st2" width="1" height="1"/>
<rect x="2" y="49.5" class="st2" width="1" height="1"/>
<rect x="2" y="46.2" class="st2" width="1" height="1"/>
<rect x="2" y="42.9" class="st2" width="1" height="1"/>
<rect x="2" y="39.6" class="st2" width="1" height="1"/>
<rect x="2" y="36.3" class="st2" width="1" height="1"/>
</svg>
