<svg width="243" height="95" viewBox="0 0 243 95" fill="none" xmlns="http://www.w3.org/2000/svg">
<path d="M83.4053 94.1151H82.8355C80.4847 94.1151 78.5613 92.2252 78.5613 89.9153V5.04335C78.5613 2.73344 80.4847 0.843506 82.8355 0.843506H83.4053C85.7561 0.843506 87.6795 2.73344 87.6795 5.04335V89.9153C87.6795 92.2252 85.7561 94.1151 83.4053 94.1151Z" fill="white"/>
<path d="M130.777 94.1153C112.007 94.1153 96.7621 79.1359 96.7621 60.6915C96.7621 42.2472 112.007 27.2678 130.777 27.2678C149.548 27.2678 164.793 42.2472 164.793 60.6915C164.793 79.1359 149.548 94.1153 130.777 94.1153ZM130.777 36.2274C117.064 36.2274 105.88 47.217 105.88 60.6915C105.88 74.1661 117.064 85.1557 130.777 85.1557C144.49 85.1557 155.675 74.1661 155.675 60.6915C155.675 47.217 144.49 36.2274 130.777 36.2274Z" fill="white"/>
<path d="M207.998 94.1153C189.227 94.1153 173.982 79.1359 173.982 60.6915C173.982 42.2472 189.227 27.2678 207.998 27.2678C226.769 27.2678 242.013 42.2472 242.013 60.6915C242.013 79.1359 226.733 94.1153 207.998 94.1153ZM207.998 36.2274C194.285 36.2274 183.101 47.217 183.101 60.6915C183.101 74.1661 194.285 85.1557 207.998 85.1557C221.711 85.1557 232.895 74.1661 232.895 60.6915C232.895 47.217 221.711 36.2274 207.998 36.2274Z" fill="white"/>
<path d="M34.6084 54.2165L8.32217 28.3874C6.61249 26.7075 3.83427 26.7075 2.1246 28.3874L1.87527 28.6324C0.165599 30.3123 0.165599 33.0422 1.87527 34.7222L28.1615 60.5513L1.98213 86.2753C0.272453 87.9553 0.272453 90.6852 1.98213 92.3651L2.23145 92.6101C3.94113 94.29 6.71935 94.29 8.42902 92.6101L34.6084 66.886L41.0553 60.5513L34.6084 54.2165Z" fill="#93CB40"/>
<path d="M67.3771 34.6175C69.0868 32.9376 69.0868 30.2077 67.3771 28.5277L67.1278 28.2827C65.4181 26.6028 62.6399 26.6028 60.9302 28.2827L40.984 47.847L47.4665 54.1818L67.3771 34.6175Z" fill="white"/>
<path d="M47.6091 66.8511L41.1622 73.2208L60.7879 92.4701C62.4975 94.15 65.2757 94.15 66.9854 92.4701L67.2347 92.2251C68.9444 90.5452 68.9444 87.8153 67.2347 86.1353L47.6091 66.8511Z" fill="white"/>
</svg>
