<svg width="183" height="93" viewBox="0 0 183 93" fill="none" xmlns="http://www.w3.org/2000/svg">
<path d="M66.6584 77.4194H66.2833C64.7358 77.4194 63.4697 76.1594 63.4697 74.6195V18.0382C63.4697 16.4982 64.7358 15.2383 66.2833 15.2383H66.6584C68.2059 15.2383 69.472 16.4982 69.472 18.0382V74.6195C69.472 76.1594 68.2059 77.4194 66.6584 77.4194Z" fill="white"/>
<path d="M97.8424 77.4196C85.486 77.4196 75.4509 67.4332 75.4509 55.137C75.4509 42.8408 85.486 32.8545 97.8424 32.8545C110.199 32.8545 120.234 42.8408 120.234 55.137C120.234 67.4332 110.199 77.4196 97.8424 77.4196ZM97.8424 38.8276C88.8154 38.8276 81.4532 46.154 81.4532 55.137C81.4532 64.12 88.8154 71.4464 97.8424 71.4464C106.869 71.4464 114.231 64.12 114.231 55.137C114.231 46.154 106.869 38.8276 97.8424 38.8276Z" fill="white"/>
<path d="M148.674 77.4196C136.318 77.4196 126.283 67.4332 126.283 55.137C126.283 42.8408 136.318 32.8545 148.674 32.8545C161.031 32.8545 171.066 42.8408 171.066 55.137C171.066 67.4332 161.007 77.4196 148.674 77.4196ZM148.674 38.8276C139.647 38.8276 132.285 46.154 132.285 55.137C132.285 64.12 139.647 71.4464 148.674 71.4464C157.701 71.4464 165.063 64.12 165.063 55.137C165.063 46.154 157.701 38.8276 148.674 38.8276Z" fill="white"/>
<path d="M34.5367 50.8206L17.2332 33.6012C16.1077 32.4812 14.2789 32.4812 13.1535 33.6012L12.9893 33.7645C11.8639 34.8845 11.8639 36.7044 12.9893 37.8244L30.2929 55.0438L13.0597 72.1931C11.9342 73.3131 11.9342 75.1331 13.0597 76.253L13.2238 76.4163C14.3492 77.5363 16.1781 77.5363 17.3035 76.4163L34.5367 59.2669L38.7805 55.0438L34.5367 50.8206Z" fill="#93CB40"/>
<path d="M56.1075 37.7546C57.233 36.6346 57.233 34.8147 56.1075 33.6947L55.9434 33.5314C54.818 32.4114 52.9891 32.4114 51.8637 33.5314L38.7336 46.5742L43.0009 50.7974L56.1075 37.7546Z" fill="white"/>
<path d="M43.0946 59.2437L38.8508 63.4902L51.7699 76.323C52.8953 77.443 54.7241 77.443 55.8495 76.323L56.0137 76.1597C57.1391 75.0397 57.1391 73.2198 56.0137 72.0998L43.0946 59.2437Z" fill="white"/>
</svg>
